<mxfile host="Electron" agent="Mozilla/5.0 (Windows NT 10.0; Win64; x64) AppleWebKit/537.36 (KHTML, like Gecko) draw.io/28.1.2 Chrome/138.0.7204.243 Electron/37.4.0 Safari/537.36" version="28.1.2">
  <diagram name="Page-1" id="-53LcGeM70uIR-7Dv92o">
    <mxGraphModel dx="1842" dy="1026" grid="1" gridSize="10" guides="1" tooltips="1" connect="1" arrows="1" fold="1" page="0" pageScale="1" pageWidth="850" pageHeight="1100" math="0" shadow="0">
      <root>
        <mxCell id="0" />
        <mxCell id="1" parent="0" />
        <mxCell id="ObA0aVAJBW4TeFRfwmgR-1" value="" style="rounded=0;whiteSpace=wrap;html=1;fillColor=none;dashed=1;strokeColor=light-dark(#616161, #ffdada);" parent="1" vertex="1">
          <mxGeometry x="-320" y="120" width="170" height="560" as="geometry" />
        </mxCell>
        <mxCell id="ObA0aVAJBW4TeFRfwmgR-2" value="&lt;font style=&quot;font-size: 24px;&quot;&gt;Sources&lt;/font&gt;" style="rounded=0;whiteSpace=wrap;html=1;strokeColor=none;" parent="1" vertex="1">
          <mxGeometry x="-287.5" y="110" width="105" height="30" as="geometry" />
        </mxCell>
        <mxCell id="ObA0aVAJBW4TeFRfwmgR-3" value="" style="rounded=0;whiteSpace=wrap;html=1;fillColor=none;dashed=1;strokeColor=light-dark(#5c5c5c, #ededed);" parent="1" vertex="1">
          <mxGeometry x="-60" y="120" width="700" height="560" as="geometry" />
        </mxCell>
        <mxCell id="ObA0aVAJBW4TeFRfwmgR-4" value="&lt;font style=&quot;font-size: 24px;&quot;&gt;Data Warehouse&lt;/font&gt;" style="rounded=0;whiteSpace=wrap;html=1;strokeColor=none;" parent="1" vertex="1">
          <mxGeometry x="181" y="100" width="198" height="30" as="geometry" />
        </mxCell>
        <mxCell id="ObA0aVAJBW4TeFRfwmgR-7" value="&lt;font style=&quot;font-size: 40px;&quot;&gt;&lt;b style=&quot;&quot;&gt;High Level Architecture&lt;/b&gt;&lt;/font&gt;" style="rounded=0;whiteSpace=wrap;html=1;fillColor=none;strokeColor=none;" parent="1" vertex="1">
          <mxGeometry x="-540" y="-50" width="930" height="60" as="geometry" />
        </mxCell>
        <mxCell id="ObA0aVAJBW4TeFRfwmgR-8" value="" style="rounded=0;whiteSpace=wrap;html=1;fillColor=none;dashed=1;strokeColor=light-dark(#5c5c5c, #ffdada);" parent="1" vertex="1">
          <mxGeometry x="680" y="125" width="150" height="555" as="geometry" />
        </mxCell>
        <mxCell id="ObA0aVAJBW4TeFRfwmgR-9" value="&lt;font style=&quot;font-size: 24px;&quot;&gt;Consume&lt;/font&gt;" style="rounded=0;whiteSpace=wrap;html=1;strokeColor=none;" parent="1" vertex="1">
          <mxGeometry x="710" y="100" width="100" height="30" as="geometry" />
        </mxCell>
        <mxCell id="ObA0aVAJBW4TeFRfwmgR-10" value="&lt;font style=&quot;font-size: 20px;&quot;&gt;Bronze Layer&lt;/font&gt;" style="rounded=0;whiteSpace=wrap;html=1;fillColor=#ffe6cc;strokeColor=#d79b00;" parent="1" vertex="1">
          <mxGeometry x="-50" y="130" width="190" height="30" as="geometry" />
        </mxCell>
        <mxCell id="ObA0aVAJBW4TeFRfwmgR-11" value="&lt;font style=&quot;font-size: 20px;&quot;&gt;Silver Layer&lt;/font&gt;" style="rounded=0;whiteSpace=wrap;html=1;fillColor=#f5f5f5;strokeColor=#666666;gradientColor=#b3b3b3;" parent="1" vertex="1">
          <mxGeometry x="172.5" y="130" width="197.5" height="30" as="geometry" />
        </mxCell>
        <mxCell id="ObA0aVAJBW4TeFRfwmgR-12" value="&lt;font style=&quot;font-size: 20px;&quot;&gt;Gold Layer&lt;/font&gt;" style="rounded=0;whiteSpace=wrap;html=1;fillColor=#fff2cc;strokeColor=#d6b656;gradientColor=#ffd966;" parent="1" vertex="1">
          <mxGeometry x="410" y="130" width="200" height="30" as="geometry" />
        </mxCell>
        <mxCell id="ObA0aVAJBW4TeFRfwmgR-13" value="" style="rounded=0;whiteSpace=wrap;html=1;fillColor=none;strokeColor=#d79b00;" parent="1" vertex="1">
          <mxGeometry x="-55" y="170" width="195" height="500" as="geometry" />
        </mxCell>
        <mxCell id="ObA0aVAJBW4TeFRfwmgR-14" value="" style="rounded=0;whiteSpace=wrap;html=1;fillColor=none;strokeColor=#666666;gradientColor=#b3b3b3;" parent="1" vertex="1">
          <mxGeometry x="172.5" y="170" width="200" height="500" as="geometry" />
        </mxCell>
        <mxCell id="ObA0aVAJBW4TeFRfwmgR-15" value="" style="rounded=0;whiteSpace=wrap;html=1;fillColor=none;strokeColor=#d6b656;gradientColor=#ffd966;" parent="1" vertex="1">
          <mxGeometry x="410" y="170" width="200" height="500" as="geometry" />
        </mxCell>
        <mxCell id="ObA0aVAJBW4TeFRfwmgR-16" value="" style="image;aspect=fixed;html=1;points=[];align=center;fontSize=12;image=img/lib/azure2/general/Folder_Blank.svg;" parent="1" vertex="1">
          <mxGeometry x="-274.5" y="190" width="69" height="56.00000000000001" as="geometry" />
        </mxCell>
        <mxCell id="ObA0aVAJBW4TeFRfwmgR-17" value="" style="image;aspect=fixed;html=1;points=[];align=center;fontSize=12;image=img/lib/azure2/general/File.svg;" parent="1" vertex="1">
          <mxGeometry x="-239.95999999999998" y="220" width="32.46" height="40" as="geometry" />
        </mxCell>
        <mxCell id="ObA0aVAJBW4TeFRfwmgR-18" value="" style="image;aspect=fixed;html=1;points=[];align=center;fontSize=12;image=img/lib/azure2/general/Folder_Blank.svg;" parent="1" vertex="1">
          <mxGeometry x="-270.5" y="371.59" width="70" height="56.81" as="geometry" />
        </mxCell>
        <mxCell id="ObA0aVAJBW4TeFRfwmgR-19" value="" style="image;aspect=fixed;html=1;points=[];align=center;fontSize=12;image=img/lib/azure2/general/File.svg;" parent="1" vertex="1">
          <mxGeometry x="-232.45999999999998" y="400" width="32.46" height="40" as="geometry" />
        </mxCell>
        <mxCell id="ObA0aVAJBW4TeFRfwmgR-20" value="&lt;b&gt;&lt;font style=&quot;font-size: 15px;&quot;&gt;(CRM)&lt;/font&gt;&lt;/b&gt;&lt;div&gt;&lt;b&gt;&lt;font style=&quot;font-size: 15px;&quot;&gt;Customer&lt;/font&gt;&lt;/b&gt;&lt;/div&gt;&lt;div&gt;&lt;b&gt;&lt;font style=&quot;font-size: 15px;&quot;&gt;Relationship&lt;/font&gt;&lt;/b&gt;&lt;/div&gt;&lt;div&gt;&lt;b&gt;&lt;font style=&quot;font-size: 15px;&quot;&gt;Management&lt;/font&gt;&lt;/b&gt;&lt;/div&gt;" style="rounded=0;whiteSpace=wrap;html=1;fillColor=none;strokeColor=none;align=left;" parent="1" vertex="1">
          <mxGeometry x="-280" y="290" width="80" height="30" as="geometry" />
        </mxCell>
        <mxCell id="ObA0aVAJBW4TeFRfwmgR-21" value="&lt;b&gt;&lt;font style=&quot;font-size: 15px;&quot;&gt;(ERP)&lt;/font&gt;&lt;/b&gt;&lt;div&gt;&lt;b&gt;&lt;font style=&quot;font-size: 15px;&quot;&gt;Enterprise&lt;/font&gt;&lt;/b&gt;&lt;/div&gt;&lt;div&gt;&lt;b&gt;&lt;font style=&quot;font-size: 15px;&quot;&gt;Resource&lt;/font&gt;&lt;/b&gt;&lt;/div&gt;&lt;div&gt;&lt;b&gt;&lt;font style=&quot;font-size: 15px;&quot;&gt;Planning&lt;/font&gt;&lt;/b&gt;&lt;/div&gt;" style="rounded=0;whiteSpace=wrap;html=1;strokeColor=none;fillColor=none;align=left;" parent="1" vertex="1">
          <mxGeometry x="-280" y="470" width="80" height="30" as="geometry" />
        </mxCell>
        <mxCell id="ObA0aVAJBW4TeFRfwmgR-26" value="&lt;b style=&quot;&quot;&gt;&lt;font style=&quot;font-size: 14px;&quot;&gt;Object Type:&lt;/font&gt;&lt;/b&gt; &lt;font style=&quot;font-size: 13px;&quot;&gt;CSV Files&lt;/font&gt;&lt;div&gt;&lt;br&gt;&lt;div&gt;&lt;b style=&quot;&quot;&gt;&lt;font style=&quot;font-size: 14px;&quot;&gt;Interface:&lt;/font&gt;&lt;/b&gt; Files in Folder&lt;/div&gt;&lt;/div&gt;" style="text;html=1;align=left;verticalAlign=middle;whiteSpace=wrap;rounded=0;" parent="1" vertex="1">
          <mxGeometry x="-310" y="550" width="150" height="70" as="geometry" />
        </mxCell>
        <mxCell id="ObA0aVAJBW4TeFRfwmgR-30" value="" style="shape=singleArrow;whiteSpace=wrap;html=1;arrowWidth=0.370589671415442;arrowSize=0.36561152255373114;fillColor=#dae8fc;gradientColor=#7ea6e0;strokeColor=#6c8ebf;" parent="1" vertex="1">
          <mxGeometry x="-140" y="310" width="75" height="40" as="geometry" />
        </mxCell>
        <mxCell id="ObA0aVAJBW4TeFRfwmgR-32" value="" style="shape=singleArrow;whiteSpace=wrap;html=1;arrowWidth=0.370589671415442;arrowSize=0.36561152255373114;fillColor=#dae8fc;gradientColor=#7ea6e0;strokeColor=#6c8ebf;" parent="1" vertex="1">
          <mxGeometry x="136" y="310" width="45" height="40" as="geometry" />
        </mxCell>
        <mxCell id="ObA0aVAJBW4TeFRfwmgR-33" value="" style="shape=singleArrow;whiteSpace=wrap;html=1;arrowWidth=0.370589671415442;arrowSize=0.36561152255373114;fillColor=#dae8fc;gradientColor=#7ea6e0;strokeColor=#6c8ebf;" parent="1" vertex="1">
          <mxGeometry x="367" y="310" width="57.5" height="40" as="geometry" />
        </mxCell>
        <mxCell id="ObA0aVAJBW4TeFRfwmgR-34" value="" style="shape=singleArrow;whiteSpace=wrap;html=1;arrowWidth=0.370589671415442;arrowSize=0.36561152255373114;fillColor=#dae8fc;gradientColor=#7ea6e0;strokeColor=#6c8ebf;" parent="1" vertex="1">
          <mxGeometry x="630" y="310" width="60" height="40" as="geometry" />
        </mxCell>
        <mxCell id="ObA0aVAJBW4TeFRfwmgR-38" value="" style="html=1;verticalLabelPosition=bottom;align=center;labelBackgroundColor=#ffffff;verticalAlign=top;strokeWidth=2;strokeColor=#d79b00;shadow=0;dashed=0;shape=mxgraph.ios7.icons.data;fillColor=#ffe6cc;" parent="1" vertex="1">
          <mxGeometry x="14" y="199.99999999999997" width="57" height="60" as="geometry" />
        </mxCell>
        <mxCell id="ObA0aVAJBW4TeFRfwmgR-39" value="" style="html=1;verticalLabelPosition=bottom;align=center;labelBackgroundColor=#ffffff;verticalAlign=top;strokeWidth=2;strokeColor=#666666;shadow=0;dashed=0;shape=mxgraph.ios7.icons.data;fillColor=#f5f5f5;gradientColor=#b3b3b3;" parent="1" vertex="1">
          <mxGeometry x="242.75" y="200" width="57" height="60" as="geometry" />
        </mxCell>
        <mxCell id="ObA0aVAJBW4TeFRfwmgR-40" value="" style="html=1;verticalLabelPosition=bottom;align=center;labelBackgroundColor=#ffffff;verticalAlign=top;strokeWidth=2;strokeColor=#d6b656;shadow=0;dashed=0;shape=mxgraph.ios7.icons.data;fillColor=#fff2cc;gradientColor=#ffd966;" parent="1" vertex="1">
          <mxGeometry x="481.5" y="200" width="57" height="60" as="geometry" />
        </mxCell>
        <mxCell id="ObA0aVAJBW4TeFRfwmgR-43" value="&lt;h5&gt;&lt;font face=&quot;Verdana&quot; style=&quot;font-weight: normal; font-size: 14px;&quot;&gt;Raw Data&lt;/font&gt;&lt;/h5&gt;" style="text;html=1;align=center;verticalAlign=middle;whiteSpace=wrap;rounded=0;" parent="1" vertex="1">
          <mxGeometry x="-30" y="260" width="110" height="30" as="geometry" />
        </mxCell>
        <mxCell id="ObA0aVAJBW4TeFRfwmgR-44" value="&lt;h5&gt;&lt;font face=&quot;Verdana&quot;&gt;&lt;span style=&quot;font-size: 14px; font-weight: 400;&quot;&gt;Clean, Standardized Data&lt;/span&gt;&lt;/font&gt;&lt;/h5&gt;" style="text;html=1;align=center;verticalAlign=middle;whiteSpace=wrap;rounded=0;" parent="1" vertex="1">
          <mxGeometry x="197.5" y="265" width="150" height="30" as="geometry" />
        </mxCell>
        <mxCell id="ObA0aVAJBW4TeFRfwmgR-45" value="&lt;h5&gt;&lt;font face=&quot;Verdana&quot;&gt;&lt;span style=&quot;font-size: 14px; font-weight: 400;&quot;&gt;Business-Ready Data&lt;/span&gt;&lt;/font&gt;&lt;/h5&gt;" style="text;html=1;align=center;verticalAlign=middle;whiteSpace=wrap;rounded=0;" parent="1" vertex="1">
          <mxGeometry x="427.5" y="260" width="165" height="30" as="geometry" />
        </mxCell>
        <mxCell id="ObA0aVAJBW4TeFRfwmgR-46" value="&lt;div style=&quot;text-align: left;&quot;&gt;&lt;b style=&quot;background-color: transparent; color: light-dark(rgb(0, 0, 0), rgb(255, 255, 255));&quot;&gt;&lt;font style=&quot;font-size: 14px;&quot;&gt;Object Type:&lt;/font&gt;&lt;/b&gt;&lt;span style=&quot;background-color: transparent; color: light-dark(rgb(0, 0, 0), rgb(255, 255, 255));&quot;&gt;&amp;nbsp;&lt;/span&gt;&lt;span style=&quot;background-color: transparent; color: light-dark(rgb(0, 0, 0), rgb(255, 255, 255)); font-size: 13px;&quot;&gt;Tables&lt;/span&gt;&lt;/div&gt;&lt;div&gt;&lt;div style=&quot;text-align: left;&quot;&gt;&lt;b style=&quot;font-size: 14px; background-color: transparent; color: light-dark(rgb(0, 0, 0), rgb(255, 255, 255));&quot;&gt;&lt;br&gt;&lt;/b&gt;&lt;/div&gt;&lt;div style=&quot;text-align: left;&quot;&gt;&lt;b style=&quot;font-size: 14px; background-color: transparent; color: light-dark(rgb(0, 0, 0), rgb(255, 255, 255));&quot;&gt;Load:&lt;/b&gt;&lt;/div&gt;&lt;div&gt;&lt;ul&gt;&lt;li style=&quot;text-align: left;&quot;&gt;&lt;span style=&quot;background-color: transparent; color: light-dark(rgb(0, 0, 0), rgb(255, 255, 255)); font-size: 14px;&quot;&gt;Batch&amp;nbsp;&lt;/span&gt;&lt;span style=&quot;background-color: transparent; color: light-dark(rgb(0, 0, 0), rgb(255, 255, 255)); font-size: 14px;&quot;&gt;Processing&lt;/span&gt;&lt;/li&gt;&lt;li style=&quot;text-align: left;&quot;&gt;&lt;span style=&quot;background-color: transparent; color: light-dark(rgb(0, 0, 0), rgb(255, 255, 255)); font-size: 14px;&quot;&gt;Full Load&lt;/span&gt;&lt;/li&gt;&lt;li style=&quot;text-align: left;&quot;&gt;&lt;span style=&quot;background-color: transparent; color: light-dark(rgb(0, 0, 0), rgb(255, 255, 255)); font-size: 14px;&quot;&gt;Truncate &amp;amp; Insert&lt;/span&gt;&lt;/li&gt;&lt;/ul&gt;&lt;/div&gt;&lt;/div&gt;&lt;div style=&quot;text-align: left;&quot;&gt;&lt;span style=&quot;font-size: 14px;&quot;&gt;&lt;b&gt;&lt;br&gt;&lt;/b&gt;&lt;/span&gt;&lt;/div&gt;&lt;div style=&quot;text-align: left;&quot;&gt;&lt;span style=&quot;font-size: 14px;&quot;&gt;No &lt;b&gt;Transformation&lt;/b&gt;&lt;/span&gt;&lt;/div&gt;&lt;div style=&quot;text-align: left;&quot;&gt;&lt;span style=&quot;font-size: 14px;&quot;&gt;&lt;b&gt;&lt;br&gt;&lt;/b&gt;&lt;/span&gt;&lt;/div&gt;&lt;div style=&quot;text-align: left;&quot;&gt;&lt;span style=&quot;font-size: 14px;&quot;&gt;&lt;b&gt;Data Model: &lt;/b&gt;None (as-is)&lt;/span&gt;&lt;/div&gt;&lt;div style=&quot;text-align: left;&quot;&gt;&lt;span style=&quot;font-size: 14px;&quot;&gt;&lt;b&gt;&lt;br&gt;&lt;/b&gt;&lt;/span&gt;&lt;/div&gt;" style="text;html=1;align=center;verticalAlign=middle;whiteSpace=wrap;rounded=0;" parent="1" vertex="1">
          <mxGeometry x="-32.5" y="390" width="150" height="70" as="geometry" />
        </mxCell>
        <mxCell id="ObA0aVAJBW4TeFRfwmgR-50" value="" style="line;strokeWidth=2;html=1;fillColor=#ffe6cc;strokeColor=#d79b00;" parent="1" vertex="1">
          <mxGeometry x="-22.5" y="295" width="130" height="20" as="geometry" />
        </mxCell>
        <mxCell id="ObA0aVAJBW4TeFRfwmgR-51" value="" style="line;strokeWidth=2;html=1;fillColor=#f5f5f5;gradientColor=#b3b3b3;strokeColor=#666666;" parent="1" vertex="1">
          <mxGeometry x="207.5" y="300" width="130" height="10" as="geometry" />
        </mxCell>
        <mxCell id="ObA0aVAJBW4TeFRfwmgR-52" value="" style="line;strokeWidth=2;html=1;fillColor=#fff2cc;gradientColor=#ffd966;strokeColor=#d6b656;" parent="1" vertex="1">
          <mxGeometry x="445" y="300" width="130" height="10" as="geometry" />
        </mxCell>
        <mxCell id="ObA0aVAJBW4TeFRfwmgR-53" value="&lt;div style=&quot;text-align: left;&quot;&gt;&lt;b style=&quot;background-color: transparent; color: light-dark(rgb(0, 0, 0), rgb(255, 255, 255));&quot;&gt;&lt;font style=&quot;font-size: 14px;&quot;&gt;Object Type:&lt;/font&gt;&lt;/b&gt;&lt;span style=&quot;background-color: transparent; color: light-dark(rgb(0, 0, 0), rgb(255, 255, 255));&quot;&gt;&amp;nbsp;&lt;/span&gt;&lt;span style=&quot;background-color: transparent; color: light-dark(rgb(0, 0, 0), rgb(255, 255, 255)); font-size: 13px;&quot;&gt;Tables&lt;/span&gt;&lt;/div&gt;&lt;div&gt;&lt;div style=&quot;text-align: left;&quot;&gt;&lt;b style=&quot;font-size: 14px; background-color: transparent; color: light-dark(rgb(0, 0, 0), rgb(255, 255, 255));&quot;&gt;&lt;br&gt;&lt;/b&gt;&lt;/div&gt;&lt;div&gt;&lt;div style=&quot;text-align: left;&quot;&gt;&lt;b style=&quot;font-size: 14px; background-color: transparent; color: light-dark(rgb(0, 0, 0), rgb(255, 255, 255));&quot;&gt;Load:&lt;/b&gt;&lt;/div&gt;&lt;div&gt;&lt;ul&gt;&lt;li style=&quot;text-align: left;&quot;&gt;&lt;span style=&quot;background-color: transparent; color: light-dark(rgb(0, 0, 0), rgb(255, 255, 255)); font-size: 14px;&quot;&gt;Batch&amp;nbsp;&lt;/span&gt;&lt;span style=&quot;background-color: transparent; color: light-dark(rgb(0, 0, 0), rgb(255, 255, 255)); font-size: 14px;&quot;&gt;Processing&lt;/span&gt;&lt;/li&gt;&lt;li style=&quot;text-align: left;&quot;&gt;&lt;span style=&quot;background-color: transparent; color: light-dark(rgb(0, 0, 0), rgb(255, 255, 255)); font-size: 14px;&quot;&gt;Full Load&lt;/span&gt;&lt;/li&gt;&lt;li style=&quot;text-align: left;&quot;&gt;&lt;span style=&quot;background-color: transparent; color: light-dark(rgb(0, 0, 0), rgb(255, 255, 255)); font-size: 14px;&quot;&gt;Truncate &amp;amp; Insert&lt;/span&gt;&lt;/li&gt;&lt;/ul&gt;&lt;/div&gt;&lt;/div&gt;&lt;/div&gt;&lt;div style=&quot;text-align: left;&quot;&gt;&lt;span style=&quot;font-size: 14px;&quot;&gt;&lt;b&gt;&lt;br&gt;&lt;/b&gt;&lt;/span&gt;&lt;/div&gt;&lt;div style=&quot;text-align: left;&quot;&gt;&lt;span style=&quot;font-size: 14px;&quot;&gt;&lt;b&gt;Transformations:&lt;/b&gt;&lt;/span&gt;&lt;/div&gt;&lt;div&gt;&lt;ul&gt;&lt;li style=&quot;text-align: left;&quot;&gt;&lt;span style=&quot;font-size: 14px;&quot;&gt;Data Cleansing&lt;/span&gt;&lt;/li&gt;&lt;li style=&quot;text-align: left;&quot;&gt;&lt;span style=&quot;font-size: 14px;&quot;&gt;Data Standardization&lt;/span&gt;&lt;/li&gt;&lt;li style=&quot;text-align: left;&quot;&gt;&lt;span style=&quot;font-size: 14px;&quot;&gt;Data Normalization&lt;/span&gt;&lt;/li&gt;&lt;li style=&quot;text-align: left;&quot;&gt;&lt;span style=&quot;font-size: 14px;&quot;&gt;Derived Columns&lt;/span&gt;&lt;/li&gt;&lt;li style=&quot;text-align: left;&quot;&gt;&lt;span style=&quot;font-size: 14px;&quot;&gt;Data Enrichment&lt;/span&gt;&lt;/li&gt;&lt;/ul&gt;&lt;/div&gt;&lt;div style=&quot;text-align: left;&quot;&gt;&lt;span style=&quot;font-size: 14px;&quot;&gt;&lt;b&gt;&lt;br&gt;&lt;/b&gt;&lt;/span&gt;&lt;/div&gt;&lt;div style=&quot;text-align: left;&quot;&gt;&lt;span style=&quot;font-size: 14px;&quot;&gt;&lt;b&gt;Data Model: &lt;/b&gt;None (as-is)&lt;/span&gt;&lt;/div&gt;&lt;div style=&quot;text-align: left;&quot;&gt;&lt;span style=&quot;font-size: 14px;&quot;&gt;&lt;b&gt;&lt;br&gt;&lt;/b&gt;&lt;/span&gt;&lt;/div&gt;" style="text;html=1;align=center;verticalAlign=middle;whiteSpace=wrap;rounded=0;" parent="1" vertex="1">
          <mxGeometry x="196.25" y="460" width="150" height="70" as="geometry" />
        </mxCell>
        <mxCell id="ObA0aVAJBW4TeFRfwmgR-55" value="&lt;div style=&quot;text-align: left;&quot;&gt;&lt;b style=&quot;font-size: 14px; background-color: transparent; color: light-dark(rgb(0, 0, 0), rgb(255, 255, 255));&quot;&gt;Object Type:&lt;/b&gt;&lt;span style=&quot;font-size: 14px; background-color: transparent; color: light-dark(rgb(0, 0, 0), rgb(255, 255, 255));&quot;&gt;&amp;nbsp;Tables&lt;/span&gt;&lt;/div&gt;&lt;div style=&quot;text-align: left;&quot;&gt;&lt;font style=&quot;font-size: 14px;&quot;&gt;&lt;br&gt;&lt;/font&gt;&lt;/div&gt;&lt;div style=&quot;text-align: left;&quot;&gt;&lt;font style=&quot;font-size: 14px;&quot;&gt;No &lt;b&gt;Load&lt;/b&gt;&lt;/font&gt;&lt;/div&gt;&lt;div style=&quot;text-align: left;&quot;&gt;&lt;b&gt;&lt;font style=&quot;font-size: 14px;&quot;&gt;&lt;br&gt;&lt;/font&gt;&lt;/b&gt;&lt;/div&gt;&lt;div style=&quot;text-align: left;&quot;&gt;&lt;b&gt;&lt;font style=&quot;font-size: 14px;&quot;&gt;Transformations:&lt;/font&gt;&lt;/b&gt;&lt;/div&gt;&lt;div&gt;&lt;ul&gt;&lt;li style=&quot;text-align: left;&quot;&gt;&lt;font style=&quot;font-size: 14px;&quot;&gt;Data Integration&lt;/font&gt;&lt;/li&gt;&lt;li style=&quot;text-align: left;&quot;&gt;&lt;font style=&quot;font-size: 14px;&quot;&gt;Aggregations&lt;/font&gt;&lt;/li&gt;&lt;li style=&quot;text-align: left;&quot;&gt;&lt;font style=&quot;font-size: 14px;&quot;&gt;Business Logic&lt;/font&gt;&lt;/li&gt;&lt;/ul&gt;&lt;/div&gt;&lt;div style=&quot;text-align: left;&quot;&gt;&lt;b&gt;&lt;font style=&quot;font-size: 14px;&quot;&gt;Data Model:&lt;/font&gt;&lt;/b&gt;&lt;/div&gt;&lt;div&gt;&lt;ul&gt;&lt;li style=&quot;text-align: left;&quot;&gt;&lt;font style=&quot;font-size: 14px;&quot;&gt;Star Schema&lt;/font&gt;&lt;/li&gt;&lt;li style=&quot;text-align: left;&quot;&gt;&lt;font style=&quot;font-size: 14px;&quot;&gt;Flat Table&lt;/font&gt;&lt;/li&gt;&lt;li style=&quot;text-align: left;&quot;&gt;&lt;font style=&quot;font-size: 14px;&quot;&gt;Aggregated Table&lt;/font&gt;&lt;/li&gt;&lt;/ul&gt;&lt;/div&gt;&lt;div style=&quot;text-align: left;&quot;&gt;&lt;span style=&quot;font-size: 14px;&quot;&gt;&lt;b&gt;&lt;br&gt;&lt;/b&gt;&lt;/span&gt;&lt;/div&gt;" style="text;html=1;align=center;verticalAlign=middle;whiteSpace=wrap;rounded=0;" parent="1" vertex="1">
          <mxGeometry x="410" y="280" width="200" height="330" as="geometry" />
        </mxCell>
        <mxCell id="ObA0aVAJBW4TeFRfwmgR-57" value="" style="image;aspect=fixed;html=1;points=[];align=center;fontSize=12;image=img/lib/azure2/analytics/Power_BI_Embedded.svg;" parent="1" vertex="1">
          <mxGeometry x="690" y="220" width="52.5" height="70" as="geometry" />
        </mxCell>
        <mxCell id="ObA0aVAJBW4TeFRfwmgR-59" value="&lt;font style=&quot;font-size: 14px;&quot;&gt;BI &amp;amp; Reporting&lt;/font&gt;" style="text;html=1;align=center;verticalAlign=middle;whiteSpace=wrap;rounded=0;" parent="1" vertex="1">
          <mxGeometry x="690" y="310" width="130" height="30" as="geometry" />
        </mxCell>
        <mxCell id="ObA0aVAJBW4TeFRfwmgR-60" value="&lt;font style=&quot;font-size: 14px;&quot;&gt;Machine Learning&lt;/font&gt;" style="text;html=1;align=center;verticalAlign=middle;whiteSpace=wrap;rounded=0;" parent="1" vertex="1">
          <mxGeometry x="695" y="540" width="130" height="30" as="geometry" />
        </mxCell>
        <mxCell id="ObA0aVAJBW4TeFRfwmgR-62" value="" style="html=1;verticalLabelPosition=bottom;align=center;labelBackgroundColor=#ffffff;verticalAlign=top;strokeWidth=2;strokeColor=#0080F0;shadow=0;dashed=0;shape=mxgraph.ios7.icons.looking_glass;" parent="1" vertex="1">
          <mxGeometry x="740" y="370" width="30" height="30" as="geometry" />
        </mxCell>
        <mxCell id="ObA0aVAJBW4TeFRfwmgR-63" value="&lt;div style=&quot;&quot;&gt;&lt;span style=&quot;font-size: 14px; background-color: transparent; color: light-dark(rgb(0, 0, 0), rgb(255, 255, 255));&quot;&gt;Ad-Hoc SQL Queries&lt;/span&gt;&lt;/div&gt;" style="text;html=1;align=center;verticalAlign=middle;whiteSpace=wrap;rounded=0;" parent="1" vertex="1">
          <mxGeometry x="690" y="402" width="130" height="50" as="geometry" />
        </mxCell>
        <mxCell id="F7ClsQAYFsTohfT2Aaco-1" value="" style="shape=image;verticalLabelPosition=bottom;labelBackgroundColor=default;verticalAlign=top;aspect=fixed;imageAspect=0;image=data:image/png,iVBORw0KGgoAAAANSUhEUgAAADAAAAAwCAYAAABXAvmHAAAACXBIWXMAAAsTAAALEwEAmpwYAAABG0lEQVR4nO2XvQ2DMBBGbwHvkSY70GUIKOhpqIAmE6SAOqFIJglVZskWF50UJAr+DhuM8T3pkyWL4nuyLWwAoZ+8fARFVSON4CK5CFiAyrbJyntKAjR252HPFFWNU7FaEJ+AlDVWIL7ekAI2BXTOQCwCM/BKgEssAj1FuQFGUW7AKwHnt5AJgW92xjZzvo9FYAYisIVAPvIHtSEQJu8gShqkUVuAA1dgCD8E8oX3+G7JpYGB0p2kf4G0O2/kJbWWQJQ0OJVjrYDzZ8Abgc/phJQ1BNTlhRRtgTFsCBhFBEZQImBYgIsyKdAW5YZTlBvwSsD5LTSEVwIh8w+qRGAGhxcINe7xaguBKdgvqb2h9ZLaG0bv8TYQAQHc4Ae5P0HpVg3nAgAAAABJRU5ErkJggg==;" parent="1" vertex="1">
          <mxGeometry x="750" y="220" width="70" height="70" as="geometry" />
        </mxCell>
        <mxCell id="F7ClsQAYFsTohfT2Aaco-2" value="" style="shape=image;verticalLabelPosition=bottom;labelBackgroundColor=default;verticalAlign=top;aspect=fixed;imageAspect=0;image=data:image/png,iVBORw0KGgoAAAANSUhEUgAAAgAAAAIACAYAAAD0eNT6AAAACXBIWXMAAA7DAAAOwwHHb6hkAAAAGXRFWHRTb2Z0d2FyZQB3d3cuaW5rc2NhcGUub3Jnm+48GgAAIABJREFUeJzs3Xl8nFX1P/DPuTOTtVuWUppmmXnmSdI2pQWKgLIVZRcEFBHZBJVVwQ1E/SKCuAIuqCCuoLIpIvwUCxWEyiKylKVQaJOZZyZtGuiSpmmbbZbn/P5ICqW0pbnPncx23q/X96Vi75ljv22eM/e59xxACCGEEEIIIYQQQgghhBBCCCGEEEIIIYQQQgghhBBCCCGEEEIIIYQQQgghhBBZQ9lOQAjxtrnTplUOlJfvBaI2UmomM4cATAcwA8AkABMB+LdZkgDQC6AXRGvIdeNMFAPz64p5aXs83gEgPe7/Q4QQOU8KACGyyLbtSeS6RzDwIQAfADAH73zAezUA4H8AHifmxzpisacgBYEQAlIACDHuWlpaajmVOoWBUwEcArMP/F1j7oFSC+G6f51cXf3gkiVLkuP22UKInCIFgBDjQ4XD4aMIuAjMx2E8H/o7t46BO32ue0t7PL4828kIkU0zZ86sSQ8N2UzUAGAKA1OIyAcATDRArvuGAtakiDodx1mZ5XSNkAJAiAwKBoNlfqXOBfBlAHa289kJBvMiAn7cEYs9nO1khMi0tra2kuTg4KEucAiIDgDz+wBUjyHEJhC9BuApuO5/4PP9JxKJbMpQuhkjBYAQGWDbdilc92IGLqeRQ3z54ikX+JbjOP/OdiJCmLRgwQJ/V2fnsVDqTDAfg5FDtaYMM/AIiO4ZHBy8p7u7e8Bg7IyRAkAIsygcDp9KzN8HEMp2MtqIFql0+ovyakDku5kzZ9akEolLGThvnIrxjQz8wZ9O37iiszM2Dp+nTQoAIQyxLKtZAbcA+GC2czEkCaKfDQwOXpUv32iE2KqxsbGqNBD4BjNfCGBCFlJIAvhjmvnaWCzWmYXPf09SAAjhnWoOhy9j5msAlGU7mQzocIFPO47zZLYTEWI3+OxQ6EIA14CoJtvJABgE8MOhROK6rq6uwWwnsy0pAITwoKWlZYabSv0RhfOtf2dcIvp+RzT6LUgfAZGjRnfhbsNIT41cE4FSZ0cikaeznchWvmwnIES+CofDh8N1H8FI855CRwAOra6uPmzapEmL1vf1bcl2QkJsKxwOf0oB/wBgZTuXnagG86eqq6p8G3p7HwfA2U5IdgCE0NAcDl/KzD9CbtznH29d5LondMTjL2U7ESHa2tpKhgcHfwLg4mznMgYPQKkzsn11UAoAIcZGhS3rxwR8IduJZNkWAj7Z4TgPZDsRUbzmTptWOVBR8VcQHZPtXDS86ksmj16xalV3thKQAkCI3TR//vxAX2/vbQBOz3YuOSJJwKc6HOeubCciio9lWZMVsBC5+b5/d0X9rnvE8ng8no0PlwJAiN2wYMECf9fKlXcBOGU8Pm9y4+Q1TYeGYg37N6RqW2sDE6ZNKC+pKJkKQgUpKgNQyswbweh3U+7w0KahjVtWb9rYvfRNdD29sir+ZNxK9icnj0OqaQLO63CcW8fhs4QAANTV1VVUlpUtYuDgbOfiFQNxfzJ5UDZ2AqQAEOK9+Zot63YGTsvYBwR8yVkfmfXS3DP2Ht5j9h5NKqAaPIZMDG8efn3lU/ENz/36+bo3X36j1UiiO5ZmojOi0eifM/gZQgB4qxj/O4Bjs52LKQQsTQOHOo7TN86fK4TYFTsc/jmYP5+J2NPnTW8/7JuHr99z3p6zlVJTMvEZAJAaSi1/7f5lq5/68VP7DPYMjKXn+e5KMtGJ0Wj0wQzEFuIttmX9GMCXsp2HaQQs7HCcEwC44/iZQoidsS3rywB+ZDzukfayI75zVLqitmKu6djvoX/1c6ufXvjlB2Zu7t5cbzj2Zib6QDQafdVwXCEAAM2W9UkG7sxU/Eqfb+M+lZNWB8tK19f4S7g2EMCmlOvfmE6WRQYH/K/2bw6uSyUzVqgT0VUd0ei1mYr/rs8brw8SIt/YweDRUGohAGUqZv1+M6LH//LEzRXVFXubiqlpuOuZrv/ef/7f5iW2JIztCDAQJ6X2j0Qi60zFFAIALMtqVMBSAEbPtuw7YdKrl9Q19Mwrnzi13Kda8B5Xe5Ouu6p9eDD+m+6uSQ9v2jDXZTb5HHWZ6NBoNPqUwZg7JQWAEDswMxgMpoieN9VKNFAR6D/+Fx95NnRY6FDkUAMu13XXPP3Tp9qfvfnZg9nUDzKiRZFo9DiM41amKHhkW9YjMNRx00eUvHB6w7Of3WN6dZnyzdKNk2K8cW/P2uXXrY4dOJBOl5vIjYEVw4nEPuPRNjhnfhAJkSsWLFjg37hp00IQNZuIF1xgvX72A2ej2qqeC4O7CSYQ0YTG9zc1zTllr2eW3/96aXIoWWkgrF1dVTW8obdXZgcII5ot63QAl5mIdfSUmufvmTV34AMTJ+/jJzXVSyxFmDinojL0mWl1GxPMS1/q31wPj1+sCagN+P3Y0Nv7qJc4u/lZQoht2ZZ1FYBrvMYhIj76hmP/N/uk2fsjD4ptN+123f+Zv62JPxGfbyBciokOjEajSwzEEkVs7rRplQOVlcsBeDqzUkpq8PaWOc/OqZxwmKHU3uXNROK5jy1/qXlDKuX1nMAgE7VGo9FVRhLbiZz/oSTEeLJte18w/xEe/274y/yJTz107pLG9zceiBz71r8zpGjSrJNmT4XLj3c92xXyGE4p4MDpdXW/X7dunQwPEtom7bnnlwB8zEuM+pLSNx/Za373jNKy9xlKa4cm+HwzPjVtxsYnN21cvTaZqPUQKgCgqre39/+Zym1HpAAQ4m2qesqU+wA0eglSOrls4LP/OS82cfrEbB/00+FreH9jcGL9pIeiD0e8vgKZ5qbTydHBJ0KM2dxp0yqTgcCfAWi/mmosKY3/c/Y+qkz5wgZT2ykFTDildo/AS/1bYquGh7RfMRAwZ4/Jk/+0fuPGjSbz21ZefDMRYjzYlnUBgP29xCifUr7l/MfPX1leVa59sCgH0JyPzTn2xF+d+IjXQMz8NcuyPBVUonj1V1ScC2AP3fVTS0re/Gfbvm5AqTqDab0nAk3+TXh2/d4TJnV4CONPEmW034EUAEIAsG17EoBve4nhL/Mnzvn3p1cGJpTMNJRWVoWPaD7iqB8c/S+PYSoU83VGEhJFh4jO110bIBp+aNY+vX6irIwHJsLEPzW3TagOBDbox6Bz506bZuJg7g5JASAEAE6nLwOg/c5O+ZR7zkPnvlI+pXy2wbSybs7H9zrifRcdsNhTEKJTbdve10xGoljYweCBAPbSXX+LPevJCp/+FT8T/ETT72mdG/dw2n7iQEXFyeYyeicpAETRa2lpqSWPW20fvumEpyc1TDZxej7XqEMuO+T9M943Y6mHGATXvdpUQqJIKPVx3aWHTKpa9oGJUw43mY6uupLSfc+fNkP/HIxSZxpM552hMxVYiHzhplKfAzBBd/3sk9peaT6yOZ9Hkr6X0o/f8YnJpZNK13uIcbxt2/sYy0gUPuaTdFf+xGpJIYeeb5+va5hV7vMNaS1mPry1tXWi4ZQA5NBvkBDZUFdXVwFAe9BPeU35hqOuP3oGCrynhvKpptPvP3O5hxCEdPqLxhISBa25qWkWNN/dn1A19ZlK5ZtnOicv/KSmfqWu6TnN5SXpdNpIB8TtSQEgilpFaenp8PDu/9Q7PhFVSmViul7OqWqqOnivU+fqd/cj+kQwGNzTYEqiQLFSB+mu/XpDsMxkLqZ8onaa7SPS6onBUgAIkQFEn9Vd2npc67Ka5tqMNhbJNR/6zhEN/jL/Fs3lpX6lzjGZjyg8dXV1FSDS6tZXV1q2ssofGO8Jm7vFTzT9yMnVWpMyiWg/0/kA7zH1SIhCZlnWXgAO0FmrfMo9+vpjA4ZTynnKp5qO/dGHH/vH5/6f3gErorMB/MBsViJXNTY2Vvn9/lrlujWuUtWKuQZENcxcQ0Q1IKoFcy0BNQzUYOT/tL/Bf3rqnh3w2Mgrkz69Z/2Whzb26CzdGyON+4x21ZQCQBQtRXQamLXW7nfefkv8Zf6i+va/lX20Pb9sctnaob6hsTdoYZ5lWdb7HMfRfR8qsmDBggX+zs7OGp/PV6PS6Zq0UjXkujWkVI3rurVEVIPRhzqP/nuMPMxHus0qNbLdTCNHZWj0X7f+/dP7W/huR1fV5PTruNkVlQ2aSytCoVB9LBbrNJmPFACieDGforOMiPjASz6Q0z9oMomIJh1x7RHPPnDpA0forFfARwFIAZAl9fX15WVlZW89yAFMpdGHt8tcQ0ANAdWj38hrAdR2rVw52UcEuC5cIhAzQARmfvthTjTyINcsqk2oCZToPmDHhQ9o3CNQ0rc2mZg85rU+XwiAFABCeGXb9my4bovO2tkfbVviL/Nn5J1cvmg+rnWfwBWLtiQHkzrXJz8C4OumcypGlmVNVkrVvuNb+dYH+dZv4kRT8fb2ejWAinc8yEcx81tXWbL3CNc3taTkTQLl/CHTtsoJK9du3DD2BkfptKdpiDsiBYAoSuS6R+r+kHv/Fz9Q0Ff+dgcR1ex77n6Ln7n56QUay2e3NjWFVnR2xkznlcd84XC4RqVSNWmfr0aNPMyr3dEHOI0+wHnk2/nWh3kNAP+7vpUD7/hWXixmllWuB5DzBcCs8sqNj23U6A5MNMl0LlIAiKLEwId01lVOreydVDcpp+4YZ8u+5+xT8czNT2utdf3+wwAUZAEQDAbLSkpKapLJ5NYHeS2Iamn08BuYq5no7W/oI9vsVWAG+3wj78pd950P8lHF8zgfu8lKs9HOOJvi9+v+v9F4MyApAEQxIgCH6Cw84OIDlwE42Gw6+am8pmL+xLqJXZu7N495a5KZDwVwm/mszGptbZ2IoaHapM9XS0Q1W9+V8+ght7dOrzPXgmjrt/JKN5WCj2jkffjoQ5y3brcTjTzIs/iuvBCV+iiV7Rx2R6XSvH3P7DObiRQAogi1hkItaWCK1trjWipM55PHfPPO2Dvy5PVP6LybfL/xbHZN2bb91hY7uW716An2rdfRphLztlfRagDUpJPJALZ+K996Yn3b9+Zb/00RbbXnqpSLjE3NM2lTytXaqSClkqZzkQJAFJ00oHV9z18RGC6vrWwznU8+az2uRT15/RM6S5vr6uoquru7B8a60LbtUt/wcE0yENi6xV4Doloe+dcaYn77Ktq2/+q6cJXa8Ql25rw8+CbetjI5nJMdALe3Ojmo9SXCBYy/4pACQBQfojk6y6wFVjs8jCctRJMapswiIpeZx7qv6ZtQWjqnra3ttYGBgRqlVC2l07WkVI07+hDfpmFMNZjfPsnuuhPSgcA73pW/Y6t9+wNw8u28KMSHBrR29cZb5/DYrwACALnuGtO5SAEgig4DzTqPhPCHwhpHdwsbEU2tba111i1fN+bBLS7R/4YHB+mtd+VKjRx827rFvvVamrwrF7uhN5Wa6oJ7Fagq27nsQvrFzX3TdBYq4A3TycgsAFF0CGjWWTd9nzrtkcGFrH7/hlWaS+WruTCqKzHcnu0cdmXQTbdvcdNaw8dcn8/4rRkpAEQxmqGzqHKPylz+ZpE10+ftmch2DkIAwKIN68d8pmQ8Le3vX6+5dGMkEukymgykABBFZv78+QEAY36QExECZYGcbzKSDbWz9siLw1cir2gdeLtr/Zp5MDwwx6Sb3+zSuqnAwCumcwHkDIAoMgPr19fC5xvz1nPZ5LJBEOQK4A5U1laWZjsHkbMSADYA6AHQQ0APE/WAeR0z9yileth1e1ipDb50usf1+3sikUiPHQqdAaI/jvXD3kgMV69MDD3TWFKmNeUzk4bcdPuzmzfuq7OWgCdN5wNIASCKTMLvrySNQ2Wlk0v7AZSbzyj/qVIlBUBx6AfQA+YeEK0noIe3PtiJepi5h0f/tcR113Fpac+KFSs263yQCgQedVN6fX2+typeekt4ptbaTLp17RvrAGjNHwHzYqPJjJICQBQVIirVOVVeOqlsMAPpFIRASUBeAeSfkW/low9sGnmo9zBzjxr51/WsVI/ruj2BQKAnkUj0xOPxcWu1297evtq2rNcAzB7r2v/0bdh7XSr58lR/IGdadifZ7bipe6XuALH+geFh2QEQwitKpQKs0YpT+VVe9BnPCnk1kk1JjHwL38CjW+yj/3k9M69XW7+ZK9XjS6d70j7fhmg02oMcfk++jXsAfEtn4bntr05+YPY+QwByojj9WjyyJQ3o7pQ9qNMwa3dIASCKCvv9SbjumNe5qbT8XdkJZpZbAGYMYPQBzsB6BaxnoIeZN7zjQe66PQgE1ruuuz4SiWzKdtKZ4gJ3Ks0CIDo0GPzHhnVPnFA9VWvmh0nLBwceX9i7/lDtAMz3GEznHeSHmigqzDysc/k8OZAqMZ5MgXBT7nC2c8hBGwGsxzsPvr31rhwjD/P1PtftcX2+nqGhoZ6uri55zbQNx3Ha7VDoaRBpzY34Wmfk4H0mTHymPosHAgfddPsnVyzVOvg3ai18vv9nLKHtSAEgioo/kRhIBwJjXte/bovxUZyFIjmYLOQCIIW3v5X3EPMGEI18Qydaz8w9GH1XvvUUex5tseeDn0JzcJTLTCe+/vLsJ/fa7/Vy5ZtlOK/3lGJ+48TXX5405Lr6DcSIfhuJRDL290sKAFFUJuyxx7q+3l7GGLvQDW8angRgGPrv8QpWf0+/1knvLBjE2+/Ie8C8bruDbxtcop6t38qZeZ3jOH1Zzrmo1Tc1/W3VypVxAoI66wfS6YnHLHux7sHZ+6yo8PlaDae3U2nmVSe89uLgquEhvVP/IwZ9icRNxpLaASkARFFZsmRJ0rasXgDVY12bGk51+0v9oQykldf6VvZl49tuH0a32LHNN3T1zuto6/3M69NKbRgcHOzJ1EEqkTmLFy9O2aHQd0D0W90Ya5OJyYe8+rxv4ex9/jctUHKgyfx2ZCCdbj/+9ZenvJEYavAY6pYVq1Z1G0lqJ6QAEMVoNTQKgP61/WsnN0yWAmA73c+v9vJzJI3R62jEPPJ+nKiHiDYAWDfaJOatb+XpdLqnqampZ/HixXqXxEXeicRit9mW9QV4mMQ5kE5P+NCrSw74TpP935Oqp+6LzNwOcJ/d3PfYedHlBybctFbHv21sSjP/0EhWuyAFgCg6BERY44fJm0vfGJ7coDXJs6B1PtWpNdyEiS6IRqO/Huu6WMz4TBSR29LE/BUm+penIMz09XjHB25d093+++bZgzUG+wT0p9OvXh5vV4/19X7IRDwCrorFYsbH/25PZgGIouMyR3TWOQ9HpBPgdph5S8+K9brvOZcYTUYUrI5Y7GEGbjMRq32wv+Xgpc/NOz/y+qurE0P/hf6BTe5LJV/7v87Is/u9/Mzsx/p6x9y0aMdR+cUZjY0Zffe/lewAiKJDmoM1oo85szHyw8JnNqP81b+2/1U37eq8V3UHBwdfN56QKFhp1/2SX6kjoTnNc3tPbOqdc8SrvagrKdnwianTXzu+qkbtWVI6R4Em7WwNA729yUTnor7evtvWrK5fOTxk5qH/tkH4fGeN1ysuKQBE0VHMz7k09m4AiS2JyqGNQ6+UTSnTfhdZaDoe7tDtkBiRQ3liLOLx+MaWUOiTLtG/AYz9Lu9OdCcS1T9Z3XnwT1Z3AgCqA4Feq6x8ZVNJGUCUGEq7w1vcVPXywYGaNYnhadCYJjoGl0UikWUZjP8OUgCIotMej7fbltUHYMwv9NsXruide3rOtBjPNn7xthfCmmsz0ttcFLb2WOyJZsu6nEf6A2TEhmSyakMyWfU8xr3J4q0Rx7l5PD9QzgCIYuQCeEJn4fO/ea5ldH3RS2xJvLIx1qt11YmItH7/hehwnBsZuCXbeRjFvLi0vPzC8f5YKQBEsXpUZ9HGlRv37F/f/5LpZPLR0ruXbtRdSz7f4yZzEcUl6jifI+DubOdhAgHPuUQnLVu2bNxnakgBIIqTUtpXip676X9F3+aVmTc9feNT+2gtJnq9vb3dMZySKC7upKqqs0H0l2wn4tGS4VTq6Gx1nJQCQBSl0YM27TprX7zjpX3dtLvScEp5pet/XS8mB5J68xGY7zecjihCS5YsSUai0U8CGNf35sYQLYJSH1y5cmVvtlKQAkAUs3t1FnGafc/9+rlVppPJI0OLvrpQu6+6C9xnMhlR1NxAOv0dAHk1kpqBX9U3NByf7XHOUgCIouUCd+mu/d+N/z3ATbqdJvPJF51Pdf53U/fmPTWXdziO87zRhERRSyl1NYB8Gde9BcxnRR3nwlxoZy0FgChajuO8QsBzOmvTybT/kaseWWs6p1zHLq9feOkDXuab/w4Am8pHFLeWYHAmE30623nsFqL/uMC+kVjs9mynspUUAKKouR6mjL36l6Xv2/zG5hdM5pPrnr7xqWWDGwenaC5Pplz3D0YTEkXNVer7yP1+Nm8C+EwkGj3ccZyObCezLSkARFEbHBy8Hcw9uuv/fOpd05lZ+zpcPulf1//CMzc9c6juegLujcfjb5rMSRSvcDh8EICTsp3HLmwkoqsq+vvtiOP8Hjm48yU9zUVR27x5c7K6uroSwGE664c3D09M9SeXNh0SNNKfPFexy+tvPfJ3lYn+hN7Jf4DTzGdu3Lgx4xPORHGoqaq6C0BjtvPYgQgRXVNaXn728hUrHlnT35/MdkI7IzsAQij1CwBbdJc//7vn9+9+ofs/BjPKNemFX3xgZf/aft2DfwDwz1gsttRYRqKohcPhkwAc5CHEZlO5jFoN4JdMdHDEcVo6otGfLVu2TPtnyngZ+0QUIQpQOBT6NhF9U3e98qvkBU9ftLy8urzgBgW9fPvLj/77Ww9/0EMIdoH95fS/MGHBggX+rpUrXwEwUzPEIBO1BtJpX4roQyB6P4B5ANoA7M7I7wSADjAvIaWWuMCj0Wj0Vc1cskoKACEA2LY9Cem0A6Ia3Rhlk8s2nvffC9YEygLad+RzTdczXY//5fS7td/7j7oj4jhnGklIFL1wOHw+Mf9Kdz0D10Ud54od/FcUDAan+f3+6cp1axiYxMw+AFBEva5S/b7h4c4Vq1a9iQKZByIFgBCjmi3rQgZ+6SXGhD0mrP/sf87fokpU0FBaWbPmlTcW33nynYcxs5efE4MuMNNxnKLunCjMmDttWmV/ZWUHAdM1Q2xIuW44Ho8XxcHd9yJnAIQY1eE4v9btC7DVlrVban972K8rkoPJFabyyoau57oev/Ojdx7q8eEPIvq+PPyFKYMTJnzJw8MfzPw9efi/TQoAId7mslIXAvB0anfL2i17/Pr9t8wYyM+pgfzafa89+pfT7j6UXfb68+HlSVOm/MBIVqLo2bY9lZkv9xCiM818k7GECoBcAxRiGxs2bHijuqpKAVjgJU46kS554dYXamtnTX262qpuQD68bmNsfvTqf7/05A1PHGIgWoqJPrJs2bIuA7GEQHVV1Q8B6P/ZZL7EiceLqnHXe5ECQIjtzJ0376nNfX3HAvB0t5+Z1YoHljf2r+t/LrTAKiWiCkMpGje8efiVPx53G8cfj7cZCnll1HHyfVSryBG2bYfB/HvoP7NeisRilyAHm/FkU+5/KxEiC2YGg8GUUksAVJuIV1Fb0XPq3ad1VIeqDzQRz6CBl+96+ZlHr3rkUHbZyBcCAhZ2OM4JKJCT0iL77FDobhB9QjuA6x4TiccXGUypIEgBIMROhMPhY4n5ARg8KxM+0n7puJ98uDJQHmg2FVOT27Ni3X/vO/9+e1NXn5cGP9tb5y8pmbV8+XLt9spCbMuyrP0U8Cw0n1cE/LvDcY4wnFZByPUhCkJk01QYLpKjD0f2/sXcn7l7n7XP0wdffkh1oHzcewake2O9zz502YM1b7zUfXAG4tekhobmACjkzohiHCngOuj/PWSXaEd3/gVkB0CIHWq2rOMZuA8ZLJKJCOEj7RcOvvyQoWqrej6A0kx9lpt231z5eLz9se8tDvU6Gxoy9TkAwECclJoXiUQ2ZfJzROEb3YVbqLuegbuijnO6yZwKiRQAQmzHsqyDFfAv7F5bUCPKppRtmnfa3JfbTp1bMqVxykwQJnuN6Sbd+OoXV3e+/IcXJkcejs5x0+647fgR8x86YrFzxuvzREFSzZb1IgNzNdcnlN8/q7293TGaVQGRAkCIbViWtZca2b6uylYOpCg1bc40xz66Zd2M/WYkq5qmTC6dXDZFBVQNEU3a7penXdftcxPu2oH1AxvXt68fjv3H8ccWx8KG3+2PGQEf63Ccv2UzB5G/wuHwp4j5Nt31DNwYdZwvGkyp4EgBIMSo1qamUNrvfxLMddnOZWeIiMsml/UBQDqZQqI/OSXbOe3C+kA6Pff1zs43sp2IyC/BYLDMr9QK6I/77VN+v93e3r7eZF6FRg4BCoGRLmMp132QcvjhDwDMTIMbB3P5ob+t2qTPdxuAYyD3r8UYBHy+S5lZ9+EPAD+Uh/97k0ZAoui1trZO5HT6YQIKbpRvDghXV1Wt2dDbK6OAxW5pbGys8in1F+iewSHqHhgaOmPz5s2eWnoXA5kFIIpaW1tbSTqZ/CuA+dnOpYDd0BoKFcyIZJFZJYHA/8FLAy7Xvaq7u3vAXEaFSwoAUcx8w0NDtwM4KtuJFLiKNNEd8+fPD2Q7EZHbbNuuB/PFHkIsr29q+oOxhAqcFACiaDWHQjeD+eMGQjGAOwAMGoiVcxiI00hPBC/m9/X2fsNIQqJwpdPfhZfrt8xXLF68OGUuocImBYAoSuFQ6FomOt9ELCL6WsRxzvSl020A/mEiZo5IA/hpZX//nKTrng5gmcd4V7aEQvsbyEsUoJZQaB6IztRdz8ATkVjs7yZzKnRyDVAUHduyLgZgZC44Mf+8Ixa79B3xQ6ETQHQjgJCJz8iSx8h1v9wRj7+09R80B4N7s1LPACjxEDdaWl6+97Jly7Z4T1EUEjscfgjMR+uuZ6KDotHof03mVOhkB0AUlWbLOh3Az03EGu1294Xt/3kkFvsHE33ExGdkwQtg/kjEcT647cMfAEb/87c8xg8PDw7+0GMxgCN9AAAgAElEQVQMUWDC4fAHPT38gb/Jw3/spAAQRSMcDh/DwG0w8+f+gRlNTZ/FTu63E/NFBj5j3BDwJAEnRBxnv0gsttPXGBHHuZ6AJz1+3EXhcPgYjzFE4SBivs7D+pSfWc6XaJBXAKIo2MHggVDqEQCVXmMR8ORgInFUV1fXDg/92bY9Fa7biXGcJaBpM4j+TOn0Tdt/29+VlpYWy02lXgIwUfeDGXgjUFKyl4wNFuFw+DRivkt3PQO3RB0nrwruXCE7AKLg2bY9G0QPwMDDH8ArSdc9YWcPfwDgdPoS5O7Dv5+A+8D8iaFEYlokGj1vLA9/ABgdruKpxzoB01OJxC1eYoj819bWVkKu+10PIbakXfcaYwkVGdkBEAXNsqxGNbJlbWIEbsyXTB68YtWq7p39grnTplUOVFR0gqjGwOeZMAzgeWb+rwIeZp/v8UgkMmwisG1Z9wE4yVMQ5rMjsdifTOQj8k9zOHwpM9/oIcS3I47j9VxK0ZICQBSslpaWWjeVegLATAPh1rrAwY7jdOzqF3n8gdan/P590+l0UDHvxcAPAZSONQgDN4LoBQDLiOhVUw/87Y2+6ngFwDQPYfrSzPNisVinqbxEfrBtexJcNwJgqmaINb5AoHnFihWbTeZVTKQAEAWprq6uoqKs7GEAHzAQbhOUOjwSibywq1+0YMECf9fKlREATZqf84OI43x963+wLWsIGgXAwNBQ5Xi1QrWDwaOh1IPw8LOEgCc7HGcBRvoOiCJhh8PfhbfDe5+LOM7NxhIqQnIGQBSc+fPnBypKS++FmYd/gphPea+HPwB0dXaeBv2H/7Avmdz2eqIPGg9/ANzd3T1uHQkj8fgiYv6NlxgMHBwOhb5kKieR+1obGurA/K4rtLuN2SktL/+twZSKkhQAotCovg0b/gQiE9fM0mA+syMWe3g3f/2XtT+J6I/bni2wbVv3wOIAxnn0bvnAwJcBtHuJQUTfCYVCcw2lJHJcuqTkGng7lHvFsmXLEqbyKVZSAIiCYlvWj0D0CQOhmJkvisRi9+zOLw6Hw8eCaB/dz6JU6ifb/oNUKlWhGWvcp6AtXbOm3wXOAOBl/Gqpj+jOYDBYZiovkZtaQ6FWMJ/jIcSzkVjsXlP5FDMpAETBsC3rW/B4Pe0tzFdGY7Hd3tom5st1P4qA+zs6O1/f9p/5/X6tb0cM9Ovm4YXjOM8zs9cOf20+peRKV4FLK3UdAL/ueib6OsZ5l6tQSQEgCkKzZV0I4GpD4W6OxGLf291fbFnWfgAO1/0wl+iGd/0z19XaAaAs7ABs1dDUdA2AZ73EIOAy27YXmMlI5BrLsg4Gs5c22Q9Eo9FHjSVU5KQAEHkvHA6fxMAvTMRi4K6I41wyljUKuMLDRz6+ox7mynW1dgAoSzsAALB48eKUct1PwVsRouC6f2psbKwylZfIHQr4gYfl6dFv/8IQKQBEXguHw4cT890YOTXvCQOPkFLnAnB3d01LS4sF4GTdzyTg+h3m4vNp7QAwc9YKAABoj8eXM9HXPIapD/j9PzaSkMgZzZb1UQAHeQjxh2g0+qqpfIQUACKPWZa1HzH/P+hdl9ves2Xl5SePtWlOOpW6HLrFB9HrHY6zcIf/le4OAFHWXgFsFY1GfwHgQS8xCDjHDoVONZSSyD4fE33Hw/ohJrraVDJihBQAIi+Fw2FbAQ/Aw0CabbxWmkgcO9YZ9eFweA8CPqX7oaOd/na428BK6e0AEGV1B2AU+5LJz4LZ26AfoptmNTVNN5STyKJmyzoPzLM8hPhpNBpdZSwhAUAKAJGHRpuIPAxvLWi36nKBY5d1dW0Y60IFXAr9oT+ry8rKdjoBjZj1dgBcN+s7AACwYtWqbiI632OY2qTPdxukY2lea2trm+ACV3kI0VuaSOzwVZnwRgoAkVcsy5qcDgQWEhA0EG49pdNHOY6zcqwL506bVsmue6HuBzPzT3bVyISJ9K4B5sYOAACgw3H+BuAOj2GOskdueIg8NTw4+BUCvOzkXKtToIv3JgWAyBv19fXlvpFt/3kGwg0w0Ynb37/f7cWVled7mPjXx0S7bGNKzHl5CHB7LvA5AGMusLZzQ2so1GoiHzG+bNueCg8dMhmIQynp958hUgCIvDB//vxAeUnJXxk42EC4JBN9bEfX73Y3FwD6fcyJbnIcp+89fpVeH4AcOAS4Lcdx+hTzmRjDzYodqEgT3TH6+y7yieteDWCS7nICrszUNEshBYDID9TX2/srBo4zEMtlorOi0ehDugH6NmzwNPQnkEq9d88CzVcAuVYAAEB7LPYEAC8z3wFgfl9vr5fJcWKcjV6R/ayHEC9HHGen52SEd1IAiJxnh8PXAzjXRCwCvhyNRv/sLQhpb2kS8x9e7+x84z1/oe4rANfNqVcAb1Hq6wQs9RjlyuZg8AAj+YiMc1OpHwIo0V0/2l7by86ReA9SAIicZodC3wDzVwyFu6bDcTx9E7Us6zgAe2sud+G6P92tX6l7CyAHdwAAIBKJDGOkS6CXCW5+VuqOtra2CabyEpnREgrtD+BjHkI8NoYpnEKTFAAiZ4XD4bPhrXnIWxi4JeI4V3uNozwM/QFw324fOtS9BZBjhwC31RGPvwTgWx7DhIcHB720kxXjwCX6PvSvbzITefl7JnaTFAAiJ9mh0EeI+Xcwcwf8/qjjfN5rEMuy3geiBdoBlPrRGH617iHAnC0AACDiONeB6D8ew1w8uhMjclCzZR0P4IMeQtwZjUaXmMpH7JwUACLn2MHgYSD6MzyMDN3Go1DqNABpr4E8Df0h+k8kEnl6DCu0dgDcHH0FsA3Xl0qdC2CThxhEwG9nzpypew1TZI6Pge97WJ+AUl53icRukgJA5BTLsvaCUvcBKDMQ7nlfIHCSiWtEoyeaT9Jd7zJfN8YlWjsAvlw9BLiNFZ2dMQBf8hKDgOnpROI3hlIShtiW9SkAczyEuCkSiURN5SN2TQoAkTNs2w4r4F8ATIyCjaSZj1+xYsVmA7HAyeQV0J84+KrjOGMbjqN5BiCtVK7vAAAAIo7zewB/9RKDgZPtUOgsQykJj4LBYBmAqz2E6POXlHzXUDpiN0gBIHJCOBzeA667EMCeBsKt9rvukbFYbI2BWAiHw3swkfaDhomuB8BjW6R3DdCfSuX8DsBWyu+/CMCbnoIQ/TwUCun2ZBAG+ZX6IoAGDyF+sHz5cm8DpMSYSAEgss627Unkug8BaDEQrk8xf3h5PB43EAsAQCNd/3SH/nSVlZXdrbFOawcgkSc7AADQ3t6+Hq57DsZaHL3TZD/R7dDfnREGNDY2VgHQP7lP1D0wNPQzcxmJ3SEFgMiq+vr6crjuP0C0j4Fwgy5wfHss9rKBWABGhv7AdS/wEOLHuxr6swtaBUBFRUXe7AAAQCQeX8TAr73EYODgcCjk6UyB8KbE7/8mgGrtAMzf7O7uzpvitVBIASCyyVdWUvInAIcaiJV0gVMcx3nSQKy3DFRWXuBh6E+vLxDY5dCfnSDoHYLkZcuWDWqsy6rK/v6vAGj3EoOIvhMKheYaSkmMwcxgMAjgYg8hltc3Nv7RUDpiDKQAENlCtmX9Ct66hW3FRHS+4zgLDcR6i9ehP0R0s84hxLnTplVAr//BEAxcdxxvS9es6XeBMwAkPYQp9RHdOXoQTYyjlFLfAVCqu56AyxcvXpwymJLYTVIAiKwIW9YPAHzGULjLOqLR2wzFesvGjRtPB9CouXzYn0rdpLOwf8IEre1/MOftFqrjOM8zs9cOf20+pa4xkpDYLS2h0DwAn9Rdz8ATHY7zgMGUxBhIASDGXTgU+jwBXzURi4i+G3GcH5uI9a7QzJfpLmbg1t0a+rMDgXRa6wYAcrwL4HtpaGr6NoBnvcQg4DLbtheYyUi8F3fkhov+c4Toa+ayEWMlBYAYV7ZlnUFEXkfDjmD+Y0c0+k0jsbbTPNJqVrehicuAdlGS8vv1dgCAvN0BAIDFixen1MjAIC//OxRc90+jp9JFBoXD4cMBHOkhxF+j0eh/TeUjxk4KADFuRnuE3wYTf+6I/l7f1PQZeLtCtlPsbYfib47jdOgudl1XbwcAyOsdAABoj8eXs/dvhfUBvz8Tu0LibUTM13tYn6J0+ipj2QgtUgCIcWEHgwcycDdM9PdnXpxKpz+RqYNDlmW9D15uJrjuWIb+vItSSm8SYJ7vAGwVjUZ/AWBsnRO3Q8A5dij0cUMpie3YlnU6gPkeQvxqtydjioyRAkBkXDgcngOl/gnNu+3bImBpivnkeDw+ZCC1nX2Gl2+gj0Xi8f95+XzdHQDK4VHAY8S+ZPKzYPbWFY7o5llNTdMN5SRGtbW1lQDwcthyS8p1jYz5Ft5IASAyKhwONxDzQnhpEvK2aNJ1j47H4xsNxNohy7JayMPQn9G2v54oZr1CKc8PAW5rxapV3azUeR7D1CZ9vttgZqS0GDU8OPg5AGEPIa6Px+PeWkALI6QAEBnT0tJSC+aH4a0/+FZrXeDYTP/gUESXQf/vxSvRaPQhrzmQ5isA5P4o4DGJRqP3AbjdY5ijmi3LSydHsQ3LsiaD+f88hFjrCwR+Yiwh4YkUACIjWltbJ7qp1EMEtBoItwlKHePlYN3uCIVC08CsP11uZOSv50OJrDkIiAvnFcBbXODzADq9xGDgR5ZlmZgzUfQU8DUPnTFBwLdMTegU3kkBIIxra2srSSeTf4W3Q0JbDRLzCZFI5EUDsXbJR/QF6LXgBYCuydXVfzaRB2mOAqYCOQS4Lcdx+tRIUeZ6CFOhgDtHOzsKTa0NDXUALvUQon1SVdXvTOUjvJMCQJimhoeGbgdwlIFYaQLO7IjFHjcQa5daW1snArjIQ4gfLVmyxEsr27fIDsA7tcdiTwD4qccw8/t6e79hIp9ilQ4ErgWge0UVBHzd1N8RYYYUAMKo5lDop2A2cf2KwXxBh+P8zUCs95RKJC4AMEVz+YbS8nKdoT87xJo/ZKnAzgC8g1LfIGCpxyhXNgeDBxjJp8i0BIMzAZztIcSzHY5zn6l8hBlSAAhjwqHQtUx0iYlYRHRFJBYbl+3C+fPnB8hD3sx807Jly7aYyoc0r0tyAd0C2F4kEhlmpU7HyMAjXX5W6o62trYJpvIqFq5S18NDD4/R5k4Zadol9EkBIIywLetiIrrSRCxi/nlHNOr5Ot3u2rRx4xnQH/ozlGa+2WQ+rFkAkOsW7g4AgEgksgze7p8DQHh4cNDr0KGi0hIKHQLgeO0ARH+PRqOPmctImCIFgPCs2bI+CeDnhsLd3hGLaY/g1UDsYegPgFtNX00kIr0zAEoV7A7AVhHHuQ7Miz2GudgamfUgdoNL5KVgSoNIzl7kKCkAhCeWZX2IgVth5s/SA/WNjediHLcK7VDoeABtmsvTTGS85zxrNgIq9B2AUa6f+VwAmzzEIAJ+O3PmTO3rbMXCDoVOAfAB7QBEt47u3IgcJAWA0NYSCu2vgPsBlHoORvS/iv7+0zLV339nmOhy7cVE90aj0YjBdEbCah4CdAv4DMC2lsfjcQK+6CUGAdPTicRvTOVUiBYsWOCHUt/2EGKQAS/rRYZJASC0WJbV7BL9A4CJA1WvJpLJ45auWTOuD7CWUGh/Ag7RXU/pdKYmzmntACilimEHAADQ4Ti3gugeLzEYONkOhfQbPxW4rpUrzwfzLO0ARD+JRqOrDKYkDJMCQIxZS0vLDAU8DGAPA+FigXT6qJUrV/YaiDUmLtHXPSx/tCMef8ZYMu+ktQOQTqeLYgdgK+XzXQzA2/kLop+HQqEmMxkVjtGbEt/0EKI3kUzeYCofkRlSAIgxmTlzZo2bTj8MwMQPzXU+5mNf7+x8w0CsMWkNhVoBfEQ7gOteZy6bd9HaAfD5fEVVALS3t6+H654Db2dGJiuiPwHwmcmqMAwPDl4GYE/d9QRck42iXoyNFABit9XV1VWkEom/e9oWfNsmKHXMilhshYFYY5ZWSnvoDwFLI/H4vwyntC2tAiCQTBbNK4CtIvH4IgZ+7SUGAYeEQyFPZwoKSTgc3gPAl3XXMxBnpW4xmJLIECkAxG6ZP39+oKK09F54ORH8tgQxnxKJRF4wEGvMRof+nOkhxA+R2ZsKWq8AkoFAUe0AbFXZ3/8VAO1eYhDRd0Oh0FxDKeU1Yr4awETd9Qr4RiQSGTaXkcgUKQDE7qC+DRt+C6JjDMRKg/nMjljsYQOxtPiIvgT9oT+rJlVVeTp89h4IQLnOwvr6+qLbAQCApWvW9LvAGQC89Jkv9RHdGQwGdf9cFITRqYmf9RDi5Q7HMTIUS2SeFADiPdmW9WMQeekDvhUz80WRWCyTD9BdGh36oz0fnohuyORAk/r6+jLovY9OjPcVylziOM7zzOy1w1+bTymvnQbzmgK+B0B7aqICLoO3yY1iHEkBIHbJtqyr4PHO9VuYr4zGYlm9e+2mUhfCw9CfkrKy35vMZ3sTJkzQnbZWlNv/22poavo2AE83Mwi4zLbtBWYyyi8todD+AD6qHYBoUbvjPGIuI5FpUgCInWoOhy+A997rW90cicW+ZyiWlvnz5weY2cuwol+YHPqzI4lEQusAIICi3P7f1uLFi1Nq5FaAl98Lxa57q23bkwyllTdGW/6S7nJp+Zt/pAAQOxQOh09i5ptMxGLgrojjGJkS6EVfb+9ZABo0lw9AqV+YzGdH/K4rOwAetMfjy5n5Ci8xCAiy695oKqd8YIdCJwA4XDsA0R3ZOtQr9EkBIN4lHA4fTsx3w8DdaAYeIaXORfbfCxI8XG0CcGskEllnKpmdSft8ejsAzFIAjIrGYjcRsNBLDALOsUOhj5vKKcf5QPR9D+sTyue72lQyYvxIASDeoSUUmkfMf4OJ/v7As2Xl5SfnwpWg0W84Xob+/NRkPjvj090BICr6VwDbYJVMngfmHk9RiG6e1dQ03VBOOcsOhc6B/t8NgOjn7e3tjrGExLiRAkC8JRwO2y7RIugfktvWa6WJxLGZfme+24i+qr2W+a+ZGPqzI2mldM8AyA7ANlasWtXNSp3nMUxt0ue7DfrvxXNefX19OYi+5SHERn8g4GX3QGSRFAACANDa0FAH5ocBTDMQrssFjl3W1bXBQCzPmoPBAwAcpLuelbreYDq7pDRHAUMOAb5LNBq9D8DtHsMc1WxZ2tdGc11ZSckXoX8uBkT0/eXLl3vbaRFZIwWAgGVZk9OBwEICggbCrad0+ijHcVYaiGUEexj6w8Aj0Wh0icl8dvl5zHII0CAX+DyATi8xGPjRaIOcgtLY2FgFQH8cNrC6f3Aw4wdjReZIAVDk6uvry33AAwDmGQg3AKU+0tHZ+bqBWEa0hkKtIDpBd71izuTQn3chIr0dADkDsEOO4/Qp5rMApD2EqVDAnfPnz9dukJOLSvz+qwBU6a4noiu7u7vlz10ekwKgiM2fPz9QWlJyDwMHGwiXhOt+NBKJPG0gljHpkXf/un/OX+6Ixca1sQlrzgGQWwA71x6LPQHvhzjn9/X2ehkfnVNmBoNBABdpByB6fUZDg9fXKyLLpAAoXtTX2/srAj5sIJbLRGdF4vFFBmIZEwwG9wRwuu56yvzQn3d/puYOABFJAbArRP9HwFKPUb45ep4k76WU+i483PRxmS8r5tbThUIKgCJlh8PXAzjXRCwCvhyNRnNuAIhPKe2hPwzEZzQ2jvvMAt0zAOy6shW7C5FIZJiVOh3AkIcwflbq9ra2tgmm8sqGllBoHoDTPIR43HEcT30WRG6QAqAI2Zb1dTB/xVC4qzscJ+e6ptm2PYmA87UDMP8oG99wSPcWgJwBeE+RSGQZgKs9hrGHBwe9Dh3KKpfoeuj/7Gco9TWT+YjskQKgyNih0FkAvmsiFgO3RBwnN6enue5F8DD0p3Jg4FaT6ewuJtLbAZAzALsl4jjXg3mxxzAXW5Z1nIl8xpsdCh0F4EjtAET35No5H6FPCoAiYodCJ4Do9zDT2OT+qON83kAc42zbLgXRpR5C/HzpmjVZeaASoHsGQHYAdo/rZz4XwCYPMYiA386cObPGVFLjRHls+Zt0ma80lo3IOikAioQdDB4Gor8A8BsI9yiUOg3erlZlTjp9JpjrNFcPQCkjQ5B0aO8AyCHA3bY8Ho+TxxHXBExPJxJZHW09VnYodDqAfbUDEP3KcZwOcxmJbJMCoAhYlrUXlLoPmgfitvO8LxA4KRf6++8EgUh/6A/R78dj6M9OP17zDIByXSkAxqDDcW4FkadDngycPPpKLee1tbWVwNto7y1p1/2OqXxEbpACoMC1tLRYCvgXPDT82EYkzXz8ihUrNhuIlRHhcPhEALM1l6cN3Bf3RPcWgKuUvAIYI+XzXczAG56CEP08FAo1GUopY4YGBi4BkaW7noiui8Via0zmJLJPCoACZtv2VDeVehDAngbCrfa77pG5/kOAmLVbmzLwl0gkEjWZz1jp9gFQ6bTsAIxRe3v7emI+B956PUxWRH+CgdHZmRIMBqcQ4KWJ0Vrl92e1MBaZIQVAgbJtexLS6UUATPQw71PMH14ej8cNxMoYy7IOBvAB3fWk1A0G09HCmocA07IDoCUSi/2LgV95iUHAIeFQyNOZgkzyKfV1EGkfWCSiq3J510/okwKgANXX15fDdf8Bon0MhBt0gePbY7GXDcTKKAXoj/wF/hWJRF4wlowm3VbAfr9fdgA0DQ4NfQVAu5cYRPTdUCg011BKxrS0tMygkYFIutonTZnye2MJiZwiBUDh8ZWVlPwJwKEGYiVd4BTHcZ40ECujWoLBmfDQ1lgB4zbyd1d0rwEODQ3JDoCm7u7uASY6HUDSQ5hSH9GdwWDQxEFbY9Kp1HegO18CABN9bcmSJV5+X0QOkwKgsJBtWb8C8DEDsZiIzs+Xlp+uUp6G/rQ7zr9N5uOB1g/riRMnyg6AB6Mjn73ckQeANr9SVxtIx4jmpqZZBJzpIcQz0Wj0fmMJiZwjBUABsS3r+wA+YyjcZR3R6G2GYmVUS0vLDABn6K7nkeYo4zr0Z0dGr2rp9GlILVu2LGE6n2JT39h4LYBnPIa53LbtBQbS8c7nuwFe+n6MtPzN+t8LkTlSABQI27K+DOAKI8GIvhdxnB8biTUO0snkFwCUaC6PNTQ03GsyH12bN2/WmwMAyPa/AYsXL075mD8Fb7+fil33Vtu2J+mub2xsrGpsbKwaLQi12MHgYQzotysm+nskElmsvV7kBRNd4USWjTYjMXOCneg3kWg0b9p9WpY1mYALtANkaejPjpSVlVW4qbGnwoBs/xuyIhZbYYdCXwXRL3RjEBBk170RO5m2WV9fX15SUvIBxXwAEzUT0AwgjO2u6w4PDsK2rC0AesHcRcArLvCKApYmmZ+Nx+M7m2xIUOqHuvljpB+Gl2uDIk+Y6AkvsqjZsj7MwH0AAl5jEXBfh+N8HLna4ncHbMu6AoDudLb1A0NDTd3d3TnxDdqyrBYFrNBYGo04jm08oeJFdjj8IJiP9hKEiT4ajUbvA4CZwWAwSXQGiI4mYH8ApR5zHADwKIAHodTfI5FI19b/wg6FPj7a9lsP0W8j0eh5HvMTeUB2APJYOBw+iJn/AgMPfzAvTjKfjnx6+Nt2KbvuFzxUsb/IlYc/APhct4LV2N/KkewAmMa+ROLTab9/qaf788y/brasaUx0Wor5UDL7hasCwPEAjofr/sy2rIUucItS6t9wXS/TPgeUz3e1mRRFrpMzAHkqHA7PIeZ/wMMVn7cwvwif78RdbCnmpnT6TAKma64eUH5/1ob+7Ijr82mdAZBRwOatWLWqG8BFHsPUMvBLMB+GzO62+gCcoIB/wnXfwMgrBT1EP21vb19tLDOR06QAyEPhcLiBmBfCTH//aIr5uEgk4mU8ajYQlPqK7mJm/m17e/t6kwl5Ra4ro4BzSCQWuwcjbX7ziZefCetd5uuMZSJynhQAeaalpaWWmP8FoMFAuLUucGw8Hn/TQKxxFQ6HTwLzLM3lafL5fmY0IQNYKRkFnGNc5ksAdGY7j/FARNc6jtOX7TzE+JECII+0trZOdFOphwDMNBCuj1z36Hyd703Ml3lYfne2h/7siO4oYHkFkDmO4/Qp5rOQR2djNMWYyNNMBJF/pADIE21tbSXpZPKvAOYbCDeomE/oiMdfMhBr3DWHQofCw9AfKPUjc9mYozsKmKQPQEa1x2JPZHtMdKYx0TcikchwtvMQ40sKgPyghoeGbgdwlIFYaQLObI/FnjAQKyuYSHvkL4gWRSKRFw2mY4zuKGDZARgHRP9HwNJsp5EhL0WjUf1rgyJvSQGQB8Kh0E/A/HEDoRjMF3Q4zt8MxMqK0aE/2h3OGMjdQ066OwByCDDjIpHIMCt1OoD8uimzGxRwOQA323mI8ScFQI4Lh0LfJqJLTcQioisisdjvTMTKlrRSV0D/z+2SaDT6qMl8TCLNQ4BSAIyPSCSyjIhy8vWRNqJF7Y7zSLbTENkhBUAOC4dCnyeib5qIRUQ3dESjOTHyVpdt2/UEnK67noly+n8/yyHAnBYMBvfkkWZZBUN5axok8pwUADkqHA6fRkQ3Ggp3e0c0+lVDsbKH+YvQHfrD7OTK0J+d0jwDQHINMOPq6uoq/D7ffQBC2c7FJJfoSow0EhJFSAqAHGQHg0cT8x9g5v8//6hvbDwXeT7WMxgMTgGzfn9yopwZ+rNTmmcA2HXlFUCGVZSV/QHMB2b6c3yBEpRPmDIYCJRtBJDM9OcBOMq2LNkFKFIyCyDHNAeDB7BS90J/vO1bCHhyMJH4RM4/+HaDX6kLAeiOWF03lEjcajKfTCCgQqdKkzMAmWWHQp8FcIrpuKUVE/tnH/SRl+YccrJbNT1UVVo5qVaRmgagfPT/4KbTawf7N65c39U+sOzx+ya8/vQDM1OJYe/tv9/pq5ZlPe44zkLDcUWOk2mAOaS5qWkWK/WElwEkWxGwNOm6h8Xj8Y0mcssm27ZL4ZBWj0oAACAASURBVLpxbDcudXcR0VUd0ei1ZrMyz7asRdC46slEx0aj0YcykFLRaw2FWtNESwBovZ7ZkZb9j3n+g2d9gyfXztgHY/wSxsCm3q7IKw/fdnVNfNnTJhqCjSDqLh0e3mtZV9cGYzFFzpMdgBwRDocbmHkRAM8PfwAxfzp9TEdnZ94//AGA0+mziUjr4Q+g3xcI3Gw0oQzR3QFQ8gogY9JEv4Shh3/L/kcvOf6i6ycFyir3041BwKTqevugT1x5OwY2rn/m/hs/P2XV8udaPSfHXDdcWvpTAGd7jiXyhpwByAEzZ86sIWARzPT3X+djPvb1zs43DMTKBYqU+pKH9b9Zvnx5j7FsMoiBCTrrXKXkEGAG2KHQqQAO9xqnrHLK5rO/e98TJ3/p5n0DZZX6k/q2UzGl9oDTv3V3y+nfvPNxX6Bks+eAzGeGw+GDDKQm8oQUAFk2d9q0ylQi8U8Pg222tQlKHbMiFlthIFZOCIfDJ3r4vUmlmfOmhSuPvvcdK5VKyQ6AYcFgsAxEnptG7Rme9+oltzyzZbo19xBk5pUrNcw+4NAv/vbF1bX1zd1eYxHzDyGvhouGFABZ1NbWVjIwYcK9AA4wEG6IiU6KRCIvGIiVMwjwcn3xz7FYLG8muZHmVnPa55MdAMMCPt+nADR5iTHzgGNePPvaexuV3z/dUFo75S8pm/np6xaW1Dfvs8xjqIMsyzrWSFIi50kBkD1qaHDwNjAfbSBWmoAzotHoYwZi5YzmUOhQD1evWDHndOOfHdAqAPx+v+wAmOVj5q94CdD6/uOeOfGLN80hIt2bK2NGpGpPv+aeuvqZ7/M04VMBXiZtijwiBUCWNIdCPyXgkwZCMTNflM/9/XfGJdL/9s+8qD0We9lgOuNB63rXwMCA7AAY1GxZJwLQflc/rWl25KRLf9YKIGAuq91DRFWf/OYdVZNq6t70EOZw27b3NZaUyFlSAGRBczj8TSa6xEgw5iujsdhvjMTKIeFweA55GfqjVF59+1+wYIEfQKnGUrerq6vgBtRkEwPn6K4tLZ+w+ezv3lcO0BSDKY2JUr7az1z/4BvK59fv/+G6nzGYkshRUgCMs+Zw+AJm/raJWAzcGInFvmciVq5RrnsZ9A8jPZ/LQ392pKurS7e5ywDyvMtjLmlpaakFcIzu+lO/fuvzyuefYTAlLSXlE/Y5/sLr/+chxMdHi1JRwKQAGEd2KHQKM99kKNwdUcf5sqFYOSUcDjcwkf7QFebcHfm7E4FkUveuuWz/G8Sp1CnQ3LpvmLX/8rrmfQ81nJK2WQd/ZP7kPRpWaS6fumrVqiOMJiRyjhQA4yQcDn8QRLfDzOCNBydXVZ2LAp3hTSNDf3Tfn0YisVjenYdIBgJedgCEIS5wpO7ak7508xBya7BO+ccu+9VK3cVk5oCyyGFSAIyDllBoHjHfC713vNt7trS8/NQlS5aMx6CQcdfY2FgFQHvoDwE/ApA2l9H4SKfTsgOQfYqABToLZ9h7L6uYWLW34Xw8m9rQesDEmulrNZd7boIkcpsUABlmWVaLS/QvACYOBb1Wmkgcu2zZsi0GYuWkEp/vIgATNZevHUwk/mAyn/Hi05wECNkBMKY5GJwLoFpn7VGfuXaT4XRM8S/45FeXaq6d21Zfr/X7IfKDFAAZ1NrQUDfa4ncPA+FWQqmjC3lYx2j3Ne3bEUT0866urkGTOY0XVynZAcgy1+ebq7OOlG9oatOsNtP5mNJ6wDEtmktp2O/fy2gyIqdIAZAhlmVNTgcC/yQgaCDceuW6R0cikS4DsXLWaPc1L0N/fmkyn/GkmKUAyDZmrYd4aN7By8ez4c9Y+fwljVP2aNBrE6xUzhY2wjspADKgrq6uQgH/BGDineAWFziuPR5fbiBWLlMeu6/lzdCfHWGl9F4BEMkrAEMI0Jo5Mefgk3P+lVzrgR9u11lHzOZGDoucIwWAYQsWLPCXl5X9BYCJqVoJYv6o4zjPGYiV05ot62Tod19LusBPTOYz3kjzDAAzSwFgzjSdRdPteTn/czQ89xCtO/2slO6OnMgDOf8HN89Q18qVvybgwwZiuUx0dkcs9rCBWDmPifT7jzPf5TiO9nWnXMBEWq8AiCjnv33mkak6iyom1kw2nYhpk6bO0L1Wa+L8kshRUgAYZFvWDQDONRTukmg0+mdDsXKaHQwe5mXoj0t0g9GEskB7B8B18/LQY46q0lnkLy3L+W/J5ROrSnTWEbPW74nID1IAGGJb1hUATHXmuybiODcbipXzSCkvI38fchznFWPJZAlrHgIkIjkEaI5WEx+lVC41/9kh5fNrHVJk/XbcIg9IAWCAHQqdBeD7JmIxcEvEca42ESsfWJa1FwP688dd94cG08ka0nwFwMxSAJij1VmTGQnTiZjmuq7MixDvIgWAR7Ztnwii38NEpUz0l6jjfM57VvlDEV0O/d+7ZyPx+H9M5pMtrDkKmOQWgDnMWtPz2HVzviunm0rqvirK+eJG6JMCwAPbtt8P170TgImpWY+C6GwUaH//HbFtux7Mp+muJyDvhv7sjPYOgLwCMIdIq8lWcnhgvelUTOvvW6/354R5neFURA6RAkCTZVl7wXX/Cc1vbtsi4LnS8vITI5HIsIHU8ofrfgX6Q3+iHY5zv8l0skrzECC5rhQAphBpNcvpfTOe8/0n1q5arrW7AaWkAChgUgBosG07rIB/QfPU8LYYWEF+/3GF3N9/R0aH/nxWdz0RXY88HPqzC1oFgCuvAMxhXq2zbNXrz+X8IcDYy0/qDSJjLujuo8VOCoAxsm17Klx3IfRb1m5rdcB1j2lvb8/5LUTTSgOBzwGYoLl87eDw8B9N5pNtrPl7oWQHwCStbnlLF98z3XQihv1/9s48Pqry6uO/88xkZUcQxQBzlywYxCUg7o37vrRWq61VW1u31rrU3b5V31qrVmutS6vWqti6a1/3uqNVFBBFJEKSe+9MYkRBZBHINjPPef9IsGhByHOfWe7M/X4+/qHmnOdHSOaee855zkm3znm+VtG2SauSkLwiDAAGgGmawyDlCwBUl2usz3IIceCiRCKhwVegiMVi5cz8c2UHzDcFdenPxiDVDIAQYQZAF8zvqpgt62ipTiV78nZU95qVny3oXrtK6RogSRkGAAVMGABsJrFYrFwQPQE98/07IcRhjuMU5S9XiRAnQ3HsKoDVvel0YJf+bBQipQBAhAGANkRJiVIAAIBa3nnxE61iNPLe89NXK5quLR006EOtYkLyijAA2DwiUSEeAPO3NPhKMtF3Hcd5S4OvIBJhwM/Sn7+2t7ev0KYmX1AcBBRNpcISgCZaWlo+BhBXsX353t/UA1B90GYMlvKz2c/+bYqi+ZtNTU3hNcACJgwANg3Zpnk7gKM0+JIAfuS67nMafAUS2zC+DcBWNE8yUaCX/nwDShmAZCQSZgA0QsxPq9h1rlq2ZWL+G7N06/HL+6880JLq7S5XNH9Vq5iQvCMMADaBbZpXAzhFhy8CznM87x86fAUVIlIf+8v8gOu6H2mUk08oZQAGrVkTZgA0IoV4VtX2qdvO25GZV+nU4weZTiZemn6V6ts/KJ1+QqeekPxDxwCbfCFSX1U1LFlZOZx7e4cSUWlaiHQkElnR29vbOWjQoOUDTWfZpnkugIu1qCO6utV1b9LiK6BYlrU3M09VNGcW4vdaBeUPAoDKWxrPX7KkoJohcw0RvQrmZQBGDdS2c9XnW7z24PUzGo+/oFG/sgEjn7j5nNXpZG9MyZr5vda2toV6JYXkG4EMAOrr60t7Ozt3gRDfYinrQVQHoLYHKEcqBQgBBkDMkKkUokKgp6srZZtmHMAiZl5EwBuIRGY4jvPFhs7on+9/gxbBRHc6rvsrLb4CDEl5IUht6i8Dz7quu0CzpLygvr6+sqerS+Ub04UimhyZDRzH6bFN8z4A56rYz3ryL42T9jzqjVFV1XtoljYgWt995d8ts/6l3LPEwP069YTkJ4HZ9GTb9lBmPk4wH8nAt6CYMv0aKRC9w1I+DSGmr0svV5vmoQz8E+pT6r6EgcddzzsWhTW0ZsAYhjE5QjQPij9zxPyt1nj8dc2y8gLLsrYk5iUKpsscz1PaYR+ycWzb3hY+rr+Vlg9ae+atMxNllYPrderaXL5Y/umcv5y11w4s06qfX2vLenvHN3V0KI1GDgkOed8DYJrmHrZh3AspPyHm2xk4BHoe/gAQBfMuRHQVMSds03zBMoxfMvAwNDz8wTwjLeUPUOQPfwCI+Fv6M6tQH/4AEE2lVH+ew/p/BnAc50Mw/0vVvrd77aC/nP2tMcne7madujaHrtUrPvjreftt5+PhDwD3hA//4iBvA4Aaw9jTNoxXBfDv/iU5vmfubwIBYH8iul7LWczvIRI5MpFIdPv2FXAMw5gA4Huq9oW09GdDpEtK1H7ewjHAGYOYr/Bj371m5ai/nLXXlj1rV8/XJGmTrFr28Zw/n7WnlezpUu36B4AkhCjUmzYhXyPvAoCaWKzONs0XJNHrIGrMtR5FnDRw8Mb6C4oNQXQu1DMqLQW19GcDiHRaLQPAHGYAMkRrIjGLgWf8+Oj84vMRN53aUNPe9NbzunRtBG6d88Jbd5y995RkT5evlxcGbnMcx9UlLCS/yZsAoKGhocQyjMukEPMA7J9rPaow8EkknT4gHo+r1HQLjvqqqpHk4xolM1+PAm90k5GIagYgDAAySETK8wH42tDJMl3+wFUnHPjsHRfPlulkQo+y/5Ds6Wp99NofffD4H87YVcq0356uFSWlpb/RIiwkEORFAGCaZs2qFStmE9FVANS2VuUHKyXzQc1tbUrTxAqR3rKyM6G+9OfTNPN9OvXkIySlagYgLAFkkJZEYhGAa3T4+uDVR3a+8UeTt5z3yoMzWErfLwfpVPKjNx+/eeaNP97ecue9PlmHRma+aNGiRXm/2jhEHzm/BWCa5iEC+AeA4bnW4pMuwXxgSzz+71wLyReqqqoqyktLEwC2VHRxqeN5v9MoKS+xDeMYED2sYPqo43nHaBcU8iW2bZeB+T0wT9Tlk0Ske/u9j31nt2//rGTIFltPwmY2NTPz6uWLvaa3nvhz5YdvPrkd+3/jX08UPe+47sEAWJvPkLwnp3MAbNO8CMDVyJNMhA9SYP5e+PD/KuWlpSdD/eG/OiVl4S392QAkxCBmhc/dMAOQcRzH6bEs61gC3oam20cs0+XzXn5gj3kvPwASkZ5xE6e+VzNl/zWjx9WlKoZtIcoHDa0As+jtXJ1evWJpzxLvA/Lef33sR83vGCzTu+jQ8HVEJHImwod/0ZGzAMA2zSsB/DpX52uEwXy6E48/lWsheUYEwHmqxkR0eyKRWKlRT97CUg5SGpAU9gBkBdd1F1Sb5k8zMRyHZbqsventHdub3tbtekCkk8l9AXg5FRGSdXLy5l1tWVehMB7+AHCZE4/flWsR+YZtGEdDfelPLxMVzdhkEiK8BpjnpIFnAXyWax2ZgoguamxsDORk2BB1sh4AVFvWhcx8WbbPzRQETEYe9FLkHX2Df5Rg4H7HcTp0yslnmFktAAivAWYLEkTTARTy1EWro63t+FyLCMkuWQ0A7FjsQGa+OptnZhoGjrMM49Jc68gnTNPcF4DqFjImIa7XqSffYWal2jKFJYCsYJvm/4D5iFzryDhCXILg92OFDICs/WVXT5gwEUI8jL7acEYgIgwdtc0nY63JTlXd1IVVdVMXDt9y3GIhIhkdxUtE/2tZ1lGZPCNICB9v/wCecRxHeQ57ECEipQBAShmWADKMaZqHALg81zqyAvNE2zC+k2sZIdkjKzWf+vr60p6urocADNXpl0QkXTt1//lTDjll9ahtqkeVDRo8AaCtN/ClyXQqufjzj932D9/4P/rg34/Xdq76fAuNUgQx31c7YcLkYp8BUGMY20vmA1TtBXNBj/3dEAxUqtSQKOwByCi2bVuQ8u8oprdiossAPIbwRkBRkJUAoKer61IA2+nyN3TUNp8edsbvW6rqpk4iIXbcDJOSSLRk3JYT6sZtOeFiNP7g4tTyT+Jvv/C3Xw9tWzBzW02yBqeFuA3AwZr8BRJJdCFUeyKY3yrGq5RENAgK1wA5LAFkjMljxgzqlPKfAEbkWkuW2aHaNA9t9byncy0kJPNkPLI1DGMygEt0+Bo8fMvPvn/5g6+fcfPrI8ZtO20vEmKkoqvoyK2NXY677L5tz7pjzvtbTpio5/oL0UHVpvl9Lb4CSF0sFgNwrKo9C1F0b/+AehMghSWAjNE1aNBfofGlJUhwXxYgpAjIeAAQAW4CUOrXz3aNx8w549Y3xbi6qXtB47jgyiEjt//RNU9XHXXOLa9FoiW9fv0xcGN9VZVqYBJokn1Lf5SySgw0u677pGZJgYAUmwBZiDADkAFs0zyPgeNyrSNnMO/S38gbUuBkNACoMc39/G70EyKS/v7lD75+yGnXTBFC6Kzbr09p7bSDv3XmbW99WDlkhN/hM1v2lJaer0VVgKirq9uCiJSX/lARLP3ZKERqGYB0OswAaMayrL0BXJtrHT5ZAeBKAPNUHQggzAIUARkNACRwlR97EYkmT7nhhTn9b/0Zv2tfOWTEDmfeOnP5yLHmRz5dnWnbttaGx3wn1dv7MyiOSmXgE0QiBb/05xtQuwUQZgC0YlnWOGJ+EP57o96RQC2Aa8GczeU6SwFcEikpmeB43hVg/q0PX3tblrW7LmEh+UnGAoAa09wPwDRVexKR1Kl/fGXeyK1iGZl9vTEiJaXmKb//FyqHjfLzizsMUp6hTVSeM3bs2EoAP1e1J+Amx3F8rV0NOEoZACFEmAHQRCwWKxfMj0F9d8U6PpPA0Z7ntTied3F3MjmOmU8F0dvITIarG8D/MdHx3b29Mcfzrmlubl4NAE48/jiAD1UdUwENbAvZMBkLACTRT/3YH3vx3TOHjdpmqi49A0GIyLhTb3z5s5Kyim5VHwycbdt2kFcbbzaV5eUnQ31K2hcS+ItGOUFEKQOQSqXCDIAmokLcwoDfz5sUEx3neV77uv/Q0dHR5cbjdzquuyuE2ArMJxLwINTHCksAHxLzvUx0kgS2cjzv267rPtjR0dH1X1/L7Geb5sGWZTX4sA/JczJyDbCmpmaUTKWOVLXf8YAfvh3bbvc9dWoaKGUVg+u+/+sH37j3siP3ULEnYGsABwF4Qq+yvCMC5l8qLbMBwMy3e/H4Ks2agoZSBqCsrCwMADRQbVmnMbNy/8o6mPli1/Ne2dj/dxznMwD39f+DmpqaUZxMbiuFqCPmWmIezESDQFQK5uFgXk7AUiZaRsBSFmJRJBKZu+4Nf3OomjDhwY729isAWIp/qEsBHK1kG5L3ZKSuXm2aZzPwRxXbyiEjl591x2wB0HDduhTgx64/bb4z96XtlayJ7nNc90TNmvIKy7K+1183VaFXRKNmS0vLx1pFBQuyTTMFhWyc43lRABmdclno2LHYLhBiBvzeLGJ+yInHj0ceDtCxDeMnILpT0VxCiMnFNp2zWMhICUACh6naHnXebQvy5OEPAHTU2TcPjZSUqtWnmQ+vr6/3fQUynyHmC32Y/6PIH/6oqqoqh9rvYTfCh78vDMMYAyEehf9rxQsqOztPQR4+/AGgrLJyOgDVxmYBKcNdJwWK9gBg7NixlQQope9HT6jzxtVN3U23Jj9ESkqNXY488x1F8+FdXV37aRWUR/Q3eu6kaM6UTv9ep54gUllZqVT/BxA2APqgoaGhJEL0MIBtfLpayUTfnr9kSd6WY5qamnqZyM/v2vcsy1Jd7R2Sx2gPAMrLyxuhGFHvf9LlHcjSeOKBsMsRp44hIqXoPkK0t249+YIE1N/+mZ9sbWtbqFFOIEkmk6oBQN4+cILAF8uX3wBgL59uJAEnuK7r6NCUSdLp9J0MfKJoHiHmi7UKCskLtAcAAlBqmouWlHVX1U3Ny9Gb0ZIyu3rKAe8rGTNvzq6CwGHb9o4A9le1ZyGK/u0fAKJSKjUAcpgBUMY2jBOY6CwNrv631fOe0eAn4yQSiW5BdKMPFyeapjlem6CQvEB/DwBRvYrZ5L2PnUdEebt4Y+rBJ3+hYsfMO+jWkg+wlH5W/s50XfdNbWICjIxG1aYAhhkAJapjsR1AdLsGV085nvcbDX6yRml5+Z99DCYqEX4yfiF5if4AQMpJKmbb7n6E7zn8mWRre4dxSoZEWxRa5Fw7YYJBwDHKDpiDPmpVG0JK1emJYQAwQMaPHz+CiR6D4rXL9WhNSXkiAja6uqmpaQ2Ibvbh4pTacePGahMUknO0BgBVVVUVIIqp2I4eP9HvBK6MEikpNYaO2uZTFVvBXKdbTy5JR6PnQbVXg2ihE4+Hq0b7kUKoZQCIwhLAwIiUlpQ8ACLTp581EOLbiUTC786QnNCbSv0JgFI2E0B5urT0PJ16QnKL1gCgtLR0tIrPaGlFV2l5RbVOLZlgK2OSUgDA6muL846amppRYP6xsoNiXvqzAYTiJkBiDgOAAWCb5m/AfKBPNwzmHwf5Tnx7e/sKALcqO2A+raamZpQ+RSG5RGsAEGVWquEPGT56OYCITi2ZYPS4GqW0Kyl+X/IRmUr9HOop1I/LKir+rlNP0JFEYQkgw9i2fSQA313sDPzeiccf0SApp0RLS28AsEbRfHA6mfyFTj0huUN3D4DSBrzK4aM2e7RlLtliGzulZFggAUD/0p+fqdoT0U1NTU153euRbQSzWgkgzABsFtUTJkyElPfB59RTAl52Pa8gBuIsWrTocwB/VbUnorNM0xymUVJIjtAaAEjFD7NBw0d/fYlFXiKE4reLqCBWA1eUlf0YgGr6bxXr6b4uKKRiCYCJwgzAJrBteyhHIo8DGOLTVRtFo8ehgCYvimj0egCqGziHE7Py9s+Q/EFrAEBESg/ydLI379P/AJDqVft9ISLVdFs+ESGic3zY/8VxHNXmo4KFVEsAzGEA8M0QpLwLgN8G3G4JfLelpWWZDlH5QktLy8cM3K1qT8C59fX1g3VqCsk+WgMAjkSUHnRda1aU69SRKXp7u1TTiIF/8FWb5rFQ3SgG9ESSyT/p1FNAhLcAMoBlGJcC+K5fP0R0hud5qqPA85oSKa8FkFQyJtqip6vrVL2KQrKN1gAgkk4rvZWs+CSe11cA1/FpvEkpUJFA4NfdMrOfwT9/b/7oo8XaxBQQpNoDEJYANoplWQcR0f9qcHVbq+veo8FPXrIokUgw8A9VewbOj8VigXh5C9kwWgOAdCSiNGu6a82q4SzlZzq1ZIKORbO3VjQNdABQbRj7g0h1pLEUUl6vVVABwaolACnDDMAGqKmpMYn5H/D/2TazrKLiXB2a8pko8zVQ7G0gYOuoEOpXgkNyjtYAoL/Gq3RXfvXyT+I6teiH1674NKG0OYyZXd1qsokk8rP056mWRGKRRjkFBamXAMIMwNcYO3ZspUylHgfga+4GA59EksljiuHGSnM83gzmR324uLChoaFEm6CQrKJ9FDADrSp2rXNfyeubAKuWdnzAUqp8v3pGjBgR2Aegbds7EaC80piFuE6nnkKDAbUMgBBhBuBrVJaX3wFge59ukiA6pphKVmngagBK204BTPhixYoTdOoJyR76twEyK614nfPMXy3k8YS4uf+6V1Vb09y5c9UabfKBdFr57Z+AN1zXnalTTqGhmgEQUoYZgPWoNs2zAfzAtyPmc4ttUVU8Hp8P5idV7Rm4BAEY5Bby32QiA/BvFbtVn3VUdX7xudrK3czT+f6rD09WtM3XP9MmqampMUGk3EnNzOHb/yZQ7QFIh7cAvsSOxb7FgP/10szTnXhcfUxugJFEv/VhXt1/SygkYOjPAJSUvKpqO+OB6/LyTTn+/utzervXqt553a7WMGq1CsoSMpU6D+qR/Yfh0p9No3oLIBJmAAAAtm1XQYiHAPitQ7/bnUyerkNTEPE8bw6AF1TtGbgUPqcthmQf7QFAS0vLxwBaVGwXvPbY1N7utXlWL+e1T//5AqUVx/1MSRO9b5vm5bZtl2mTlWFs2x4N4Eeq9kT0e6jXFYsG1R6AVJgBgG3bZZDyUQBjfLpalmb+TkdHR173IWUawXyVD/NJlmUdqU1MSFbQHgAAADM/oWhHT970817k0YOj+e3n3ulctWwLn27KAFzBUr5v23ajBlmZR0pfS39Ky8vv1ymnUGHF73FJMhlmAJhvBjDNp5e0AI6Px+NtOiQFmZZ4/N8AXle1J+bLNMoJyQIZCQAgxHRVU3fe65M/bn1PqY9ANz1daxY+ecu5u+nyR0AtpHzFMs276+rq/AYVGWPymDGDwKy89IeZ/1gMV6h0QIoZgJ5IpKgzALZh/ATMP/Xrh4gubfG8l3RoKgiY/fQCTLEs6yBtWkIyTkYCANd1FwB4V9X+wd/8YGqyt7tZoyQV1v798mMqZDql+44rEXByqrd3kWVZJyEP62ZrBw/+MYhUA5SVFIncoVVQYaOUAdhiiy2KNgNQYxg7g+gWDa4ebXVd/82DBYQTj78AYLaqvQizAIEiMxmAPu5SNUwleyruOv/AQTKd/linoAGQfO72ixYu+6gllsEzRhHzPbZpvmyaZk0GzxkQjY2NUTCf58NFuPRnM+nvCYkqmCYDfbXUB5ZlbSmJHkNfWc0PH5ZVVPwIeVRuzBt8ZAEY2MOOxb6lU05I5shYAJCS8m8MKI0GBvquBf7919/pklIu1alrM0g9/7fL350/49EpWTpvbwHMz5cmwY/b248lIKZo3lOSTodLfzaT3t5e1R6Lonz7b2xsjJKUDwGo8ulqlQS+3dTUVAhbOrXjxONPETBf1Z6F+JVOPSGZI2MBQCKR6CbA1z3wT7wF9l0XHNgt08msNOgw8xfP3n7Je/Ne/LvfxqKBUgbgCkg5L8fRMzGgvvSH6L6FbW3KQV+xUVpaqlT/R5HeAOhob78ORI0+3TCYT/Q8T+mmUpHAcBaLUAAAIABJREFUkuhqVWMC9quOxbL9GRqiQCZLAOjs7r7DTxYAAJYv9sbffOrU4Ss+bcvodK50b0/8nosPW/HBjIenZvKcTVAHIV61TfNvuWgStGOxAwDsoGguI+HSnwEhpVTLADAXXQag2jS/D8D3ch5mvsqJx5Wn3hULrus+yoByHxYLEfYCBICMBgCLFy/uBJGfejIAoLtz9bA7zt1n91emXzVTyvQSHdr+A6/9cOZTr/3xpw1bLW1fNEGvbyUIwI9Svb0LLcs6EVlsEiQhlN/+CXiiOR7PdeNmoBBCqGUAiqwEYBjGZAbu9OuHgGfdePwKDZKKgTSIfufD/rAaw/C7lyEkw2Q0AAAA13UfBPCcDl9znrt7t5tO2WHw+y8/8BpL6SsQYObVH7e+9/ptP99zzVM3n/OtVG9XhQ6NGhlNzPfapvlSNpoELctqYGBfVXuWMhz7O0CklKoBQNGUAMaPHz8iQvQ41GdSrMPtSaVOQB7vG8k3hg8ffj8A1S2tJMMsQN6TlbfLulgslhLiAwCq43T/CxGJJuv3+vZ7uxz209SIrY0aIjFqUzbMvLpz1bKW9168v2vOc3ft2Nu1VvUDONt0A/gdhLjWcZyeTBxgW9ZDYFad5/2643lh5+8AsQ3jABA9r2D6ouN5B2gXlH8I2zSfBnCwTz9rJbCr53kf6BBVTFRb1mnM/BdFcymkrA/XgecvWUsvW5Z1HDE/kAnfRMSjx9fFt6ltWDpmfF3PkBFboXTwEOpes0quXrGU1nz2cTSxYOboT+MLLCnTmdpaJZH5jMoiSHm6k0i8ptOpbdsWpGyG4tx/Ag5v9bxw7v8AsSzr28T8+IANmZ9w4vGjMiApr7AM4zdE5LujnImO789EhgyQ/nHLLoBtlBz0LVg6Sa+qEF1kdQiNbZo3Ajgnm2dmibmRdPqYdDR6JZhPQGa/rwyiv4Pol47jfKbDoW2atwE4Q8mYaKHjupMQplYHjG0YJ4DoPgXT+x3P87/6No+xDeMIEP0f/P4uEd3guO75elQVJ7ZpngvgD4rmaSaqc13X0akpRA8Z7wFYn6rx4y8AoLwtME9pT0l5WHNbW9xx3RPBfBAAN4PnEZh/CCmbdDQJWpa1JYCTVe0ZuBbhw18JFkKtrl3g1wBrDaO2PzDyG0i/WjVu3MU6NBUznd3dtwNQnccSEVKqXy0OyShZDQBmzJiRipSUHAmit7N5bgZZJoHDEonEp+v+gxOPv9Dd27sd+u7RZnJa2/pNgtXKXvqW/qg2QHb0NwqFKKC6CpgL+BpgbW3tkLQQ/wQw1Kerj5jouBkzZqR06CpmFi9e3AngRlV7JjrJtm2/w5tCMkBWAwAAaG5uXi373pLfyfbZmvkszbzvhhqLOjo6uhzXvUwC9QBeybCOfQTQZJvmNQOdJDh5zJhBBJzp4+wbi3UkrQ6YWakJlYgKNQCgdCp1F5gn+vTTI4GjXdfN9hTRwkWI2wCsULQuYynDMkwekvUAAAA8z1tV1tt7IHysnswpRIshxN7xePwbx2V6ntfqeN5+zHwq1H95NocSABeB+b1qw9hrc426Bg36iZ+lP5GSEt93s4sZUiwBsJQFWQKwTfMiMB/j2xHzzzzPm6NBUkg//fs9bla1J+CnhmGM0SgpRAM5CQAAoKmjY3nV+PH7AvhzrjQo8q5k3tVxnKbN/Hp24/E708wT++uamVs+wjyRiWbYljXdtu3R3/SlDQ0NJexjshoR3drc3Lxa1T4kzACsT41p7gfgKr9+GPiLE48rLyIL2Thlvb03AVD9na+MEBViA3igyVkAAPT1BDiedyaA8wBk5H67Zv6WknJ3z/PaB2oYj8eXZLtJ0DaMH27si1atWHEsANXJh93JdFrHOtaihojUMgAF1gRYF4vFJPODULyG+iVEb5MQ4UMmQzR1dCxnfy9sP6uvqhqpTVCIb3IaAKzD8bwbIUQD8rcvYCkBRzued0oikej24+jLJkHgSmQ26BkNoum2ab5WE4vVbeD/K9fkGLh3/cbHEEVUMwAF1AQYi8XKU0I86qMUtY4lIDomU4OyQvqQzH+A+iTKIT2lpWfp1BPij7wIAADAcZymYSNG7EZE/wMgX9Z0SmK+V0Sj9a2eN/CBLRuho6Ojy/G8K/qDnowuOQKwlxTivWrL+p/6+vpSALAs6yD4WPrD6neCQ75K0WcAopHIHQAafLpJEvOxjuN06NAUsnHi8fgSYvZTYvlFbW3tEG2CQnyRNwEAAMydOzfZ6rpXiWjUQN/98pxF8wy8BCGmtMbjJ7e0tCzLxBmO4zQ5nrcnE50EICNn9FPOzP/b09W1wDTNfUnKi3z4ejxcpaoNtQyAlAWRAai2rF+AeaNlqs2FiX7ZGo8Hs6E4gHAkch2AXkXzkelk0s/NoxCN5FUAsI6WlpZljuddLKLRbdF3/3R5lo5OEvAgpNzV9bz9Hcd5Lwtnsuu609PMkwBk+k59tQBe9LNTncKVvzpRygDIAsgA1BjGnsys42fp767rKnenhwwcx3E6QHSvDxfnjR071u9ypxAN5GUAsI6WlhbP8bzzunt7q5joZAJehnrk+U28A+CSSDIZa/W8451EIuuDiuLx+BLH834A5gOR6SZBZUt6rTWRmKVRS7GjlAEQQgQ6AKipqdlGEj2MvuurfpjX2d19mg5NIQNDRCLXAFAdsrTloPLyn+rUE6JGVncB6KC2tnaITCb3Z+AnUN0SxuyBaCaAt6JSPrsokUjo1OiXqqqqivKysl+B+QL4/5DUhgQO9Tzv2VzrKBRs02wGMOBVzxHmuuZ4vDkDkjJOfX19aU9n5wwQ7erT1fJIOj2lua1NdV1tiE9sy5ruo4TTASHssGkzt0RzLWCg9N89f9w2jEEgUgkA7nfi8bxepNLR0dEF4DLbtu+HlLcD2D3XmgB84Hnec7kWUWAoZQDSkUhgewC6u7puIv8P/zSk/H748M8tlEr9jiORH0Atk1zFzCcBuEOzrJABkNclgE0woLG369GlVUUGyWKT4KZh/j0yOcSoOFEKAHp7ewMZANiG8UMCTtfg6n+cROJ5DX5CfNDa1rYQgPLtKJLyosbGxsC9hBYSgQ0AGChXNPV1jz8H/KdJMNOTBDdOR1ll5UM5OLfQUQoASktLA9cDYNv2jiC63bcj5iccz7tGg6QQDQjmq6D6mURkdrS1Ha9XUchACGwAAPUMQCBrTl9OEhRiHwCLsnz8DU1NTZlovixa+t98VPo70kGrm9bV1W0BKR+D+tZJAAADzbIvGxZmovKElnj8fQDPKDsguhTBfg4FmsB+44moVNE0UB+eX8dxnBndvb07ZWHd8DpYML+ahXOKivb2dqW3fwCBSv83NjZGU729jwAwfLr6IiLlUZ7nrdKhK0QjUv7Wh3WdbRhHa9MSMiACGwBAvQQQ6AAAyPq6YZJEb9mmecVA1w2HbJySZFIpAOCABQAd7e3XAtjbpxsG8yktiUS2M18hm4GTSLzdf0VbDaLLEMAbaYVAkAOAoioBbIgv1w1nvkmwAsDlkHK+ZVl+P8xDAKRKS5UGoZD6HPasU22a34GPjZPrIKKrnXj8UQ2SQjKEJPKTBdi+2jQP1SYmZLMpxgAgaE2AmyKbTYI1xPyybVnT6+rq/C5vKWoiUqqNAQ5IBsA0ze0YmA6fb3YMvNTqupdrkhWSIVzXfZWAN1TtGfiVTj0hm0dgAwAftwAKJgOwPllsEiQw/zDV29tkWdaJGTynoEkLoVYCCMAY4PHjx48QfdfDVPsc1tEWiUaPB5DWICskw8i+viRVptWY5n7axIRsFoENAAgoyibATfG1JkGZwaPGEPO9tmX9q6amxszgOQVJhFltFjpzvgcAoiQavQ+A7dNPp2A+MlOLuEL047rucwDmqtpLojALkGUCGwAgzABslI6Oji4h5RPIxt8v84EylVpgm+YV69YNh2waqZgBQJ6XACzDuIIA3/VcJjqz/4pZSIAgQD0LwPwt0zT30CgnZBMEOQBQ6wFgLvgAAACY6OIsHlcB4PKerq4PwibBzYOkVG0CzNsAwDaMw6mvo9svf3Rd18+2uZAc0ep5/wTwgaq9AC7VKCdkExRdAEBEhdYE+F+YplnDwJE5ODpsEtxMmLmgrgGaplkNounw/5kys6yi4iIdmkJyAhPgZ1LjwaZpTtWmJuQbCWwAoNwEWAQZAEF0PnL3dxs2CW4GJIRaBiAPewDq6+sHC+CfAIb78cPAJ5Fk8phw6mSwafW8hwC0qNpHgEs0ygn5BgIbACCcA7BBDMMY42NFp076mgRN85Vaw6jNtZh8QzkDQJRvGQDq6e6+C31DqfyQBNExzR99tFiHqJCckgbzdarGDBxlmuZ2OgWFbJjABgAU9gBskAjROVBvkMwEe6eJ3gubBL8KK94CoDy7Bmib5oVgPtavH2b+meu6b+rQFJJ7ho0cOZ2BhKI5CSCbPUxFS2ADAIQZgP+itrZ2CPSsW9XNuibBdyzL2i3XYvIBIlLKAEgp8yYAME1zXwB+JsD1wTzdjcfv9K8oJF+YO3dukpiv9+Hie6Zp1mgTFLJBii8AKOAMQKq391So12GXgznTK3+3I+Z/W6b551gs5qteHHQYUMoAiDwpARiGMUEADwKI+HQ1G5HIqTo0heQXKea7GPhE0TwSZgEyT2ADANUmQFF4o4ABAA0NDSVE9AtVe2a+1YnHj2OifRho1qntawgCTo8KsaiYmwRJcUoeM+c8AIjFYuURokcBjPLpaimEODpo641DNo9EItEN5j/4cHFCXSwW06Un5L8JbAAA1QyAlAX5YfPFihUnABivaN6dZr4N6Jvp3dPbuyOAKwFkshv7yybBYkz1qWYA8qEHICrErQCm+HSTghDfcxynQ4emkPxkUGfnnwF8pmhekhLiAp16Qr5KYAMA1SZAGjSoEAMAYuCXPuzvTiQSn677l46Oji7H866QfR/yM/3L+0b2FsC8YmsSVO4ByHEJwDKMnwP4sQZXFzqOM0ODn5A8Zv6SJWuJ6E8+XJxSO27cWG2CQr5CYAMAKAYAkUik4AIA2zAOg/o1rDQTbTBN53neB47n7cFEJ4H5c3WFm+TLJkHbtnfN4Dl5g+otAJHDJkDbtnclohv8+mHgAcfzbtShKST/4b4AYKWieVm6tPQ8nXpC/kPRBQCjR48uuB4AIrrQh/Fjrus63/AVfeuGgfr+dcOZZDtI+WYxTBJU7QGQQuQkAxCLxbaClI9AfQkXAICA+YPWrv2pJlkhAcBxnC+I6FZlB8yn27Y9WqOkkH6CGgBEAEQV7OSMGTNSusXkkhrD2JkB5QUalE5vVpPOunXDTLQPfEz52hxJ/ZMEFxRykyArBgAilcp6BqChoaEkIsTDALbx6WoFC/Gd+UuW5LyRMSS7REpKbgSwRtF8EDGfrVNPSB+BDADGjh0bzgDoRxIpj80k4OXWRGLWQGxc1321u7d3B2S+SXCrQm4SJMUmwHQkkvWH56oVK24iYE+fbqQETnAcx9UiKiRQLFq06HMQ3a5qz8xnFfvV4UwQyAAgGo2qBgAFlf7vH7F7hKo9S/l7FbuvNAkyv6V6/mZSqE2CShmA0tLSrAYAtmGcAOAMv36I6HLP857VICkkoKTS6esBdCmaDy2JRH6uU09IQAOAQUSqo24LKgOQJroAin+HBMx3EokX/Jzved4HTjy+e9gkqIRSBmDNmjVZKwFUx2I7+Hlr+xKiJ1tdV31PfEhB0H/T6G5Ve5bynP5ppyGaCGQAwERFXwIwDGMMgB/4cHEtANYghV3XnZ5inhQ2CW42EagNspIdHR1ZyWLVV1WNZCEeh2Kgsh4tkvlEAFKDrJCAw0TXQLV0SLRF/7TTEE2EAUBAiRCdC/WlPx8NHTHiEZ16EonEp2GT4OZRW1ur+lDthJ6gbVNEesrK7gdg+PSzBkJ8x/O8VTpEhQQf13U/AvB3VXsiOr+qqqpCo6SiJpABQG+RLwKybXsogNNU7Yno+rlz5yY1SvqSbDcJVpvmM0EbF9rb2+snAMg4lmH8DswH+nTDYP6x4zhNWkSFFA5CXA1A9TbWVuUlJToGUYUgoAEAKWYAqECaAIn5dPhY+lNaXv43nXq+TjabBBk4JCXEh0FqEiwpKVFqAASQ8QZAy7K+TUTna3B1rROPa80yhRQGjuO4DKj/bBBdFJTf9XwnkAFAlLlomwAbGhpKmNlPN+zNTU1NqvdxB0S2mwR7u7rmBKFJMJVKqQYAGc0A1MRidcR8DwDy44eAlx3P+5UeVSGFCAlxFdT7Qsb1dHWdoFNPsRLIAABF3AOwasWKHwIYp2jeib5FLtkka02CDExe1yRYX1U1MpNn+SEipWoJIGMZgNra2iEyEnkcwFCfrtooGj0OQFqDrJACxXGcDwl4woeLSxsbG1WGwYWsRyADAC7eHgAC4Gcu9t2O46hu5vJFtpsEe0pLm/K1SVBGIvlWAqBUMnkPmCf69NPNREe3tLQs06IqpKBhIX4D9aZW6+P29mN16ilGAhkAoEgDAL9LfyBEzhewuK77amd3947M/HuoNwJtDlsR872WaT6dT02C/W8ttootZ6gEYJvmrwn4jl8/THSa67pzdWgKKXwcx3kPwL9U7Rm4FMF9huUFQf3mFWUA4GvpD/Oj+TKGdfHixZ1uPH5hmrkBRG9n8iwCDk0JscAyjPNzkTJsbGyM2rbdaBnGdbZhzOxob/+CmJWG6xDzxGrT/FFNTc0oXfqqTfNQAL/27YjoFtd1p/tXFFJMMNFvfZjXV5vmUdrEFCG+mn1yRbVlnczMA54oRcz3tsbjJ2dAUsaxLGs3Yn5T1Z6JpuTp25mwTfN0AFcDGJbhs94nKU8b6P4DFSzL2o2AH4H5u1C/sbEx0mD+NwvxODNPV71nb1mWTcxz/Ooj4I2hI0bsk6mrpSGFjW0Yr4KoUdF8ruN5U3TqKSbCDEBAICmV3/4JeDlPH/4AIB3Pu60knZ4IokxfG9uehZhpm+YtpmlqDzYaGxujtmH80DbNBcT8Jph/Av0PfwCIgKiRmP8kgI9s07zBsqwBNYZOHjNmEDH/07c+osXRdPrY8OEfoookusqHeYNlWQdrE1NkFFUAIAM6B6AmFqsD0eGq9sx8nU49mWBhW9snjuseK4FDGUhk8CgB4GeC6EPbML6rySfZhnFCR3t7C4imQ71PQ4UhAM4jZrfaMO6ZOGHC1pthQ52VlXcBmOTz7F4GjlnY1vaJTz8hRYzneS/7KQUS82U69RQTQQ0AimoOgBTifKj/Xc1z4nFfS3+yied5zw5au3ZSxpsEmceC6BHLNJ82DGOCqhvLshpsw3iz/4qj39G5fihhopOSkchCy7LOQt++gQ1iGcZ5IPqehjPPcV13pgY/IUUOMfvpBdjdsqy9tYkpIoIaABRNCaB23LixAJSHXhCQ92//X2f+kiVr3Xj8QsE8BUBG6/UEHBohahpok2BjY2PUNs0riPltEOXT8KFhxPwn2zRn1xjG9l//n5Zl7UN9C1l8wcA9juf92a+fkBAAaPW8ZwDMU7UXYRZAiaIKAIQQgQsAUiUlZ0Pxz8tAYpvx4wM7jrUlHn/f8bzd0Df5MJMLZQYR0e872tvn1BjGzpv6Ytu2qzra298AcDmAfB1GspMkmmkbxpfBo2ma44n5QfjXPDct5Rk+fYSErA/DRxaAgX3tWGwXnYKKgUAGAKxYApBSBqoHwLbtoeRj6Q+Yb5gxY0Ym79pnA+nE47empKzLwrrhHSTR2980SdCOxXaBlHMATMuwFh1Ugui+asO4vba2dkgEeBTAaJ8+l0fS6WMSiUSgfpdC8h8nHn8cwAJlB0KEWYABEsgAgKRUWwQRsAxA/9If1W71ZV09PRld+pNN1k0SJOCwDDcJ9k0SLCv74OtNgpZlHQUhZgDYKoPna4eJTk0nkx4DU326Skng2Oa2trgWYSEhX0XCX8PyobZt76hNTREQyACAhSj4JkDbtssYONuHi1sWL16clfWx2aTV857p6e3dFpleN7xek2BdLBazDeO7xPww1PtPco3v4UHMfInneS/rEBMSsiGcePx+AK2K5gTmS3TqKXQCGQBAysJvApTyB2Aeq2jdKaLRbC/9yRrr1g0L5p2RhSbBlBALQPQAgJJMnpXXED3sxuM35FpGSMGT7r8BpAbz0dUTJvjdaVE0BDMAUH8LC0rdkgD8UtmY+a5iWMjS3yS4KxOdBGB5Bo8ahPxt9ssGi0D0U6gvbgkJ2WyGjxx5D4A2RXPB0WiYBdhMghoAFHQJwLKsIwFsq2ie5kjkJp168py+dcNS1mehSbAYWU3p9Hccx/ki10JCioO5c+cmiegPyg6Yv2+aZrVGSQVLMN9qiNSaAAMSABDzBcq2wCOtebL0J5skEolPAZxYbZoPM3ALAOXhPtlgi+HlSxt32Sq+U/2o5NZbD+rdckQ5QWBod7fsXLmqm+cvXF46Z8FnI+fM+2xCKs256juQBHy/ta1tYY7ODylSunp67iwvLb0UwBgF84ggugDAqZplFRyBXAZkm+YrAAY8+YmJ9nVd95UMSNKGZVm7E/Mbyg6E2Kl/zWbRMnnMmEGdgwdfCeazkUdBrjV+SPyXp24f371hS6OsNBLDZvz+MaNz8dLORdMfa00//LQ7qasnXZF5pV9ypeN5V2TxvJCQL6m2rAuZ+VpF814msl3X/UirqAIjqAHAGwB2H6gdE+3huq7yRr1sYFvWE2A+QtH8RcfzDtAqKMBUx2I7sBC3A9jkcJ9MslvDmHnXXbyzGDWyfDv4+J2TzMuffLF90dW3vLfTF2uTqmWwzeVpx/OOBCAzfE5IyAapra0dkk4mEwA2OJNjUxDzza3x+C/0qiosiqoHgJnzugRQPWHCRDArL/0RARz7m0laE4l5juftysxnAch6DXvslpXLnvnbgTP/dt1e248aWT4ZPgNuQTTyqAMm7Pb2/x35xSnH1igvT9kMWlNS/hDhwz8khzQ3N68GoNzPxEQ/MQxDpYRQNAQ1ACjIa4AciVwA9YfEuy2e95JOPQWCdOPxWyLJ5EQAj2Xr0IMbq9586R+HwJowdDdozrQJQVtecNr2uzw//ZC5w4eUrtbpG8AaJvpOIpFYqdlvSMiA6U2lboZ68F4hiM7TqafQCAOAPKGmpmYbAD9QtWci9buzRUDzRx8tdjzvuwQcDvUrRpvFdZdMe+vG/9l1VyHI9/Cdb2LCNoMaXn/k8GXjtq7UtY6XwXyK67rq41hDQjTS3t6+AsBtqvYEnLGxsd4hxRcA5O0cgHQyeTYAtdsNzJ7ruoFd+pNNWj3v6cq1a+tBdAMysG74jt/t8coR+43fFVn63SotEcbz9x4irAlDO/z6IqIbnHj8YR26QkJ0wUQ3AlCdajqkp7TUz0TVgqaoAoB87QEwTXMYEakv/QH+ACCtS0+hM3/JkrWO655PUk4lYI4uv9devPObe+289T66/G0uIkJjnrjzAN56dMXnfvywlP/WpSkkRBeu6y4FcIcPF2fZtj1Ul55CIqgBQEE1AQrgdACqP6Cfdfb03K1TT7HQmkjMa+2bJPgL+GwSPOqACTOP3H/CbpqkDZhohMY98dcDlpZEhZ9A8MfaBIWEaEREo9dDvYQ7AlKeqVNPoRDUAEApA5BKpfIuAAiX/uSctOu6N4PoIVUHY7YoX/a7C6fWIMfXaocOLp140+W7qV9zJTo0FosFatNhSHHQ0tLyMQP3+HBx7tixYyt16SkUiioA6OjoyLsAAOn0CQRsrWi9NlpaWrBLf7KIYObDVI3v++M+CaLMNvxtLvvstvWu21YPTyiaR6NCHK9TT0iILqLp9LUAkormW1aWl4eTAb9G4AKA+vr6Uqi9afUi/+41CxCdr2pMzH9btGiRr7pvCFAdi01VDcKm7Tjm3fFjB03RrckHJX/57R4rfNgfpE1JSIhGmtva4sR8vw8X59u2HdR13hkhcAFAKpUqmCuAlmUdAaBO0TwVYVZfmBHyJSzEkaq21100Jd+CSmy5RcWOu08Z86Gi+Z6xWCzTUwZDQpQQwO+g3vC8DTGfrFFO4AlcAJBOpwtmEyBJeaEP84cXJRIJXVqKGuZGFbM6a1h8zOjKfHr7/5KLTt9+jaJphRBiwGO2Q0KyQXM83gzmR1XtmfmihoaGEp2agkzgAgAUyBCgGsPYE0S7KpozSRkO/tEDgWg7FcOfnTQpb7cu1hjDthsyqGStiq3I8e6EkJBvIg1cDYAVzY2VK1d+X6eeIFM8AUCeXQGUROpv/0QvtCYS8zTKKVps2zYBDFax3WvKGEOzHJ1UHLHf+A+ULIkmatYSEqKNeDw+H0RPKTtgvgRARJ+i4FI8AQBR3kwBrJ4wYSKAQ1TtOVz6ow1mnqxiN3bLymVlZRFLtx6dHLrPOKX+BGJW7UsJCckORFdCMQtAQK1tGEdrVhRIiicAyKMMgIxELoT69/4d13Vf0amnqJHSVDGbuv0oR7cU3dQZw5VmoDNQq1tLSIhOHMd5F8CLqvZEdBlyPLcjHwhiAKDWBChEXgQAtm1XEaBeg2IOa/96Ga5i1FA/SvU+ctaoqCypIrWPuKGNjY1RzXJCQrRCzL9VtWVgsm0YyqvXC4UgBgDBbgJkPgc+lv448XjWVtoWAySEUgBgxYbl/dsDEQYPGVSi9HPved4Q3XpCQnTSGo+/zoD6/oq+LEBRE7wAQHUOQB6UAGKx2HAwq0+jIroe4dIfvUiptIOhsqIkEH8PQweXrlSxi0Qi4fKUkLyHmK/yYb6zbRgHaBMTQIIXABAFNgMQFeJ0AKpvVku7e3vv0SgnBACEUCopRSIUiLvEZaVCqflVCHGEYRgTdOsJCdGJE4+/4GujZ5FnAYJY51PrAcjxLQDbtstYyl+o5o2J6OaOjo4uraJCAGCVilEqGYgEAJat6K5QsSPmP0WI/mSb5koG3iHgTTDPjZaVzQzHT4fkEyzEbyHl/ymO2r0rAAAgAElEQVSa71VjGHu2xONFuQo7iAGAav08pxkATqdPJCLVpT9rSnt6btMqKAQAwFKuJIVOuY6lnV3b1ozIgCKtJL9Ykxzm08dwAvYDsB+IkOrtlbZpLmJgNgGzIcTbVVVVH8yYMSOlQ3BIyEBxHOfJatOcz4DSlV4pxGUo0h0YwSsBqGYAclsCECTEuT7s/9rU0bFcm5qQ9VHKACx0Viq9WWeTVEouZVZumt0YAsC2BJwM4DZI+W5He3unbZrvWIZxk2VZJ9q2XY/wilVI9mBJ9Dt1az7QNM2pGvUEhiBmAALXA2BZ1pFgVp2ulkwz/1GroJD1WapiNHf+Z3mx/veb+HRpZxzANlk4qgRAAxE1gBlghm2aS0A0i6WcHSGalQLmeJ6nFGyFhGwK13UfsUzzClKcYSGYLwNwlGZZeU/wAoAANgES4Gfpz0PxeLxNm5iQryJEE3jgA8XmLlg2gRkriJC3dYDX5yzpzeHxY8B8BBEdIQEIQNqW1czMs/pLB7Oqqqrmh6WDEE2kQfQ7MN+jZE10hGma23mepzY+O6AEsQQQqACg2jD2AvMuiuacDgf/ZJRoNPoBFEaKptNc1v7xmtYMSNLGP59PVOVaw3oIME9cr3Qwt6O9/QvbNN+wTfMGy7K+F946CPHD8OHD72cgoWhOEeBSnXqCQBADANUegNzcAiC6SNkUeC4ej8/XKSfkqzQ3N68Gc1zF9sGn3bytc3d1p5o+aF5ek2sdm6ACwO4AziPmByNECds0V1im+aJtmlfYhnF4XV3dFrkWGRIM5s6dmyQfe1IYOKbWMIpqDHYQAwC1WwA5yABYljWJgYNV7WXf4J+QTCPEXBWz+x5vnZSS/IluOTp48En301xrUGTdrYPLQfRkqrd3qW1ZH1Ybxj22aZ5h2/ZO4T73kI0ixN8AfKxoHUkRXaxTTr4TvB6AAN0CICkvgModMwAEzHFc91XdmkL+GwaeIeCYgdql0lzx1IuJud8+0FC93pkRpOTPbrlv4a651qEJAeaJ3Lei+CRIiVUrVnTZpvkugNlMNKsknZ61KJFI5FhnSB7gOE6PbZrXA7hRxZ6AH9TFYld+/efJtu2hzDwMwDAAwyLMFVLKJEcia6SUy0aOHLl47ty5eb8f5OsEMQAIRA+AZVnjwHy8qj0zhyt/s0QkEnlGplJpKOwIv/rW9xsO32/Cp9GI2CoD0pS4+5GW+Ws7k/vmWkcGWVc62J2YkRKi79YBMJuIZkPKWWmi2eGtg+Kks7v7jsry8ksBjFYwL0kJ8VvbMP4Foh0A9P0j5cj13+QkAAgBYkaECKtWrGDbNDsI+ICB9wl4U5SUvN7c3Lxawx8pY+RtDXNj2KZ5F4AfD9iQ+SdOPH6XfkUbxjbNGwCcp2juOJ5Xh3Duf9aoNs1/M7CHiu33j7De+PXZOynZ6qa7J93ScPg/zXSagxjc64RBtIiknM1Es5lo1vDhw+cH8S0tZODYpnkJgKtzLCMF5jcAPJpifiyRSORdWS6IPQBqGYAsjgIeP378CAA/VbWncOlP9iF6RNX0/ifdPRIfrVafR66PtSecMwPhwx8AQP2lg5MA3ErM76xasWJV/62DP1iWdVxdLBbLtciQDCHErQBW5FhFFESNILolKsRHtmk+YlnW3jnW9BWKJwDI4ijg0kjkDKgv/VmSTKfv1aknZNMw0T0AvlC1P/qMl+p6euVCfYoGzk13L5i7oCXvO/9zybrSwbnE/EBKiLhtmkts03yq2rJ+ZRvGAbFYTGk9dEh+4TjOFwBuzrWO9YgC+C4xv2Jb1luWZeXF6OEglgCeAnDYgA2Zj3Di8af0K/oqsVisPCpEAsAYFXtm/pUbj/9Wr6qQzcE2zT8AUB7ZPHbMoMUv3neQiOSgH+Bfr3W8es7/vuXn7aIXzD8D0bYApgHYEX0PzGKDATSDeTaIZoWlg+BSX1U1sqe0NAH1l7GMwsBLIp3+RWtbW85eHIIYALwAYP8BGzIf6MTjL+hX9FUsyzqVmG9XNF/Tm0qNb29vz3XqqiipnTDBSEcirVBoBlyHNX7IR0/cdWAqKsjQKO0beeL5thcvum72wH8n1oOB213PO33dvzc0NJSsXLlyMjFPI+adWYidwVyHAH5maKALwHvov3UQTaVmNbe1Kc2OCMkulmFcR0QX5FrHN5Bk5muGjxz5m1wEmYH7ZbZN8zUAew3YUMpGJ5F4Tb+iryBs01wEoFrR/kbH81QbB0M0YJnm3f3T6pQZObxs2XP3HPTJsCGl22mStTE6b53+4bs339vktwGxh4mqXdf96Ju+yDTNYRHmnSHENGbeGcDOUMx0FQBL0X/rgKWclWKenUgkVuZaVMhXMQxjTISoDeq3x7LFuxI43vO8lmweGsQA4G30pSgHhpS7OonE2/oV/Ydq0zyagUcVzZNMZG3qQzgks/R/YDSj776vMiVRkfrDZdNe23+vqj2QgQ+frq70wu+f86pY6KzwPbmMmG9ujcd/oWJbF4vFkpHINGKehr6AYCcUe+kAmC2JZo0YMeL9sHSQOxobG6Md7e1/AnBGrrVsJqsIOKHV857O1oFBDADeQ9/dzIEhxE6O47ynX9F/sE1zFvo+BAcO0X2O656oV1GICtWmeTYDWjYw1pjD4n+9Zs+VW25RsaMOf2nJn97/z9ZF193xwR7JlNTR7f+xBOp13ZlvbGyMdnR0TIaU04h5Wn/poBbBbDj2SzeAdwHMJmC2SKffDksH2WH8+PEjSqPRRwHsk2stA0QScF6r592UjcOCFwBY1ocqq3Upnd42k80Wdiz2LQgxQ9GcJbB9sW2iylf63xwcANqW0+xQP2r+5b/YcfVEe/gUKGQEunvSix57LrHk93fOn9LdnRqkSxeEOMpxnCe0+dsApmkOiwJT08zTqC8gmIbiLR18BmAWEc3mdHp2CpgVlg70UldXt0Wqp+dFEGkJunMBM//Gjcd/nelzghcAGIYLInOgdiIatVpaWrxMaAKAatN8hoFDVGwJeLbV8w7VrSlkwJBlWUdS327wKZk4oLIiuvagxqp5R+0/QU6qHjGqoiI6mohGfeWLGKlkWrYtXdb16dvvLk3d/WjzGKdtdZ12McwPOfH4cdr9bgaGYUyIANNANI2AnbmvdFCZCy05hhloIeZZCEsHvqmpqRklU6mXAGyfay0auNLxvCsyeUDwAgDL+hjMYwdqJ6LRqpaWFtUlEd+IaZrbCeB9qH4/s9OgGLJxItWm+T0GLgEwKduHV5RHe8aMrli5dk1vdzLNlWs7U0OSKam682LzIFoIol3670vnnP7SwXaQchcGdqa+UlodirV0wPweiGYRMJui0VmZfHkpFPqvYL8MYLdca9EFAedkshwQvADAND8HMHKgdtHS0lGLFi36PAOSYJvmfQBOULElYE6r56n1DYT4ov+q2/FgvpSAYloDukIC0zzPa821kG+ivr5+cFdX1w4RoIGJGph5TwJiudaVI1YxMIeAN8E8V5SUvNXS0rIs16LyCOr/HP5BroVoRhJwRKvnPZMJ50EMAFYDGDxQu0hJydBMLGYwTXO8ABwASitKCTi61fMe1ywr5BuoqqqqKCsr+wkxXwBgXK71ZJkkpDzcSSSez7UQFUzTHC+Yp0GIvibDYi8d9C8/kkSzR4wYMa9YSwfVlnVBpheolY+s7BwxYfgnFSMrVkYiVLb2s85I5/KusjVLV09IdaWUZ4dsBishxBTHcVzdjoMYAPRC4WE7bMSI0kz8cvicHtfieN5E9C+XCskstbW1Q2QqdQYzn4fibEJLMtGxruv+X66F6KKxsTH6cSIxCULswn1lg2ko8tIBE80WwKxiKR1YltVAzDMBlOr0Ozw2vH2nkxs6zH2tssFbDTaEEBvLPKeSXUln6cKlnyx6vGn4gseaJqV700ovhBuF6O2qceP2nDFjRkqrW53OsoCwTVNlSY50PE97hNZ/1aQdChkJAGCi01zXvUOzrJCv0T8S9BcAzoJC+ahASDLR91zX/WeuhWSa/t3tU0jKXQDszEQ7E7B1rnXliM+4/xoipJzVK+XsQpo0GovFyiNCzNNVwiNBPOmY7d7d4/w9SytGVkyCyjOSsbxj9kfvv/TrlyYudz7XNhaciH7d6rq/0eUPCFgAMHbs2MrK8vK1CqZdjudpTxNahnEZEV2laP5pSkojkUhkbUthsWEYxhhBdB71DQLJy3ngWWIlEx3vuu6/ci0kV6xfOmDmnQloQJGXDrhvVfKsIJcObNP8NYArdfiy9rMWHHrT4eXR8qitwx+AZMesj9548swntute2T1q01++SbqZaDvXdR0NvgAELADof+NermC60vG8ETq1+F36A+BSx/N+p1FSSD+maY4XRBeA+RQU51S69flQAt/O9ojRfOfL0kEkMo3/M8VwIsLSwWwWYlYm6s266d/d0QSfv+MllSWrj73/ex+M2W6rXZGBZyJLXvHiJc/HFzy6YCffvoBnXM8b+DK8jRCoACAWi20VFeITBdMljudp3dBWbZqnM/BnRfPVKSnHhwNA9GKaZrUALkbfjQyt9cAgQsCDoqTk1Ew0vxYiX5YO+gMCBqYVcelgGQOzqG8B0uxkMjkr30oHtmVNB/MP/fgYYY1cfOJTJ3VHyiIDni0zQDj+qvvKE6c9sbdMS19BpmDeqyUe/7cOUYEKAAzDmBAhSiiYtjmeF9MoJdK/9EctVUR0g+O652vUU9RYljWp/yrfsfCxya9gIFoMojMzPeGvGLAsaxxJOY3+swCpAYC+SYzBgQG0gmgWSzk7Aswuqayc19TU1JsLMZZl2cS8EIDyOOyxO41ddOxDx20hhBitUdo3stxbPnv6Qfc0yLT08zn1quN5WkYcByoAME2zRgDNCqYtjudpu+dtG8Z3QfSIonkvhLAcx+nQpadYMU1zqmC+DERHIDc/yx8DuIGAFu6rQzbkQMP69AK4MyXlr8LsUmZobGyMLm5rq0/3X0PEf0oHxRh49oDoPZZytiCaJYlm66xPfxO2Zd0J5p+o2m9RPartxGdPGkSCdNTmB8Sy1mX/vu+Qe3dnycqZAAlM9TzvHb9aAhUAGIYxOUL0voLpB47nTdalo9o0ZzMwVcWWmO9tjcdP1qWlGKk2jL2Y6DIAB+RIQpyIrmWiexzH6en/b2RZ1rFgvjIHQ4WSxHx3Crg6Ho+3Zfnsoqe2tnZIKpVaVzqYBqKdVaaVFgjLCJjNfaWDWeU9PbObOjpU+rY2immawwSwGIpNnBUjK5af/vaZXRShbXTqGgjuy+7MJ079p/LEQgbucT3vR351BCoAME1zqgBmK5i+43ie0gP761iWtTcxv6JozhBiO8dxmnRoKTYsyzpIMF/GwB45EUC0kIFrxo0bd/833McVtmHsR0SnM3A4fKQoN4N2Zr5XAneFD/78wrbtKpJymmSeRkTTUOylg/5egoiUs/yWDvz0XxERfvrmabMHjxmc6+mr8qmfPzm39bkW1edSF4TYyu8o76AFAHsIQKX54U3H87Q8NGzDeA5EBymaP+143uE6dBQRYr0FPblJsTO/B+BqJx5/HAMY2lQ7btzYVDT6HUF0MAON0HHtjNmDEK8I5odaPO+VgegJySkRwzDqBbAuIJiGsHQwm4hmM9GsgZQObMt6C8y7qBw87ee7vr37ubsr2epGpuWnt+/858FdK7uU5siA+YdOPP53PxqCFgDsK4CXFExfcTxvX7/n95cg5kHx+6aze7MIiNimeRz6FvTU50jDTAKubvW8Z9H3JqNMLBYrj0Qiu0HKnQQwiYkmATCw8cFEKQAJAK0MtAiieSkpXw3f9AuH2traIel0ugFSTiNgGhNNK9rSAfPnRDSrv3Qwu7zn/9u79zipqmtP4L91qqqrH9DQPLVp6HrR3YJBtBXQ+IqaOGpM/MSbyWiM18Q8nGiejtHRez+TOB/R+IjR6716jUZvjJrEDIoYo4kxqIgioA6CQHedU93Q0DRoN/Sruh5nr/mjy4zxItD7nFOnil7fz6f+svfeC/DTZ9U+e6+VWbO/VwfxeHwGMXdD47pm5eSqvivW/nc+QEW/okuttF558vJlp2gNJno6aZqfd7K+l9uTXhhzH3UAIMCVYjsBomugmzQxvyYP/4ObP39+RWZ4+FIQXQcg7kcMBPxFEd1kmuZf3ZqzUPDpxcLn78yZM6eusrKyDgAMw9iXz+dzpdKlT3incD1zZeED4G+vDhYp5iVkGIvA3ArNSqNlhWhqoZ36ucSMTEUFErFYO4A1TPSGYdtvVNTUvDUyMnIONGs1nPGTMzcYhnGaq3E7FD09dtyE6TXdg3uGxn7dlPlTra2tISdFnMoqASCiMFjri1jm4D9yYNFotBHAl3THs2Hc5jSGw1l9fX11TVXV1zPp9DUgavAhBAbwDJRa2t7R8XoxFy7cry6pO9bCH4XbQV0APmgQFohGo/MDwCIQLcHorYN5GB+vDuYCmEvMl7BhIJNOZwjQqQSLYGUw03xus2sHwV1Uc9bNZ7/91NeX6dSbmLh3794TAKzWXbysEgCDuVJzH9ZxAmAQ/QCaHf8Y2GqaptzJ3o9EIlELpb4N4AfMPMOHEBSIfm8otbQtldK5YSKEl+xUKrUBwAYADwCjbZIzmczxxLwIzB80QfLtRHsRhaG5C7zwywvXkkH+HB4+iMipkSYyyGbFY0/qlDoJ4yUBgO4OALOjBGB+Q8OUDHC57nhivh1yWOvvtLS0TM1ns9+FUt8B4GqZ5kOUY+DRIPMtWy1Lp7aEEL7YtGnTID7y6qCpqWkW5/OLFbCYmBeB6HiMh1cHh2jhVxZW+h3DxzECxvToqdF11krr+LGOJaKFTtYurwRAM/uDwx2AbDj8bTDrdfwDuikQeMTJ+oeTSCRyRCgQuDqfzV4Bf35BjQD4ZVCp27Z0dHT4sL4Qrmtra9uB0dcGf3t1EIvF5hnMi2AYS4h5EY8eph0Prw7+DgXIrm2YXOzaHGNyzFeOzVgrx965mYBPOFl3XCQAysEhwIaGhipm/o7ueALu+lCxmHGrUMb5GgCXM7Mf2fggiP49lM/fsbmzU6efhBDlxLYs6x0A7wB4ECi8OhgaaqVAYLQ+weirAz/O2xRV/XGz2kFo8TuOA5m5YKZWjQgGGp2sOy4SADjYAaisqLgMgO676X4F3Ke79uGgUL75gwY9WmcoHNrLzPcEQqG72tra3vNhfSFKQuHVwUuFD4DRVwe2bS8i5sVgXgyiVhxmrbNnHVdf8mWxq+qqZmsOndTc3DxRt+FXuSUAut8cdROAAIAfao4FA/dZlrVPd3w5i8fjRxPwIzBfBH/+P3sPwL/mlfq51MUXYv8Krw6eLHwAIJBIJFqYuRVKtdJoQnACyri75rR5Mz6uamfJIKKp1VOq08O9w2NubZzNZqcAGBcJgNYOgGEYWglAIhq9ELod/4BsIBi8W3Ns2WqKRhcpw7gBzOfDvwY9tw+PjNy/c+fOYR/WF6Kc2YVS5ZsA/AoAFsycWZOurm7FaEfED6oYls2rg5qZNSWfAABARW1Fn04CEAgEtEtMj4sEALo7AKPvrHU9Wsiux4VEJHIaDOMGBXxas1aDM8wWG8ZPieg/5MyFEO7Z0NMzBODlwgdAocx1RcUi+v8JwfEo0VcHoVCgLHYvQlUV/QB0KkFqn6kqrwRAqTBo7F8qdQ4BxmKxMzH6P7UOhmHcrjm2rBT6M/wEgCv9qTWYTHTr7DlzfnmABj1CCBdt3b59J4CnCh8AQFNTU8y27ZNL7dVBLm1rV8orKir+GbfySgCKuANgEF2j/U2WaEUymXxXb3BZMObGYhcwcAOA43yK4c1Cnf4nASjTNH0KQwgBAG1tbRYACx95daCARR9qgKR72E1bum+oLHYEB3sGdZuFad9yK6sEgIt0CDAajS4As3aveQZu1R1b4oxENHohiH7Mo+VI/fAqmH+aTKWegcMGPUII7+zv1cFRjY1H5gzj+MJtg1YAJ+HjG2K5Yu+2/nJowzyYfn94us5ApZT27aaySgBQpB2AANG10D/Atto0zVc1x5akRCIRZuZ/JKWuBVHMjxgYeIEM46ZkMrnSj/WFEM4VanCsKHwAwEgkEkeRUosUsJhGdwmOhovPpm2rOycvumKRW9N5Ij+S3wW9A+cjTm6alVcCQOR5AtASiUTywH/VXAcwjMPm2399fX11TWXlN1ip/0FAg875C4cYRCvItpcmOzrWFHtxIYTn1IduHTwEjP7emRAOt9rAIjKM0foEwBzdBbrWbG8EkAYw5hP2xbJn854d0EsAtjlZt7wSAM0dAB5DL4Ac0Q9I9++FaHMymVxx8B8sbYUGPVcC+D7rF0FywibgiTzzzSnL2uDD+kIInxSu775S+AAYfXWQDQZPI+bHxzqfyqsJ6b70O1V1VY7K5npp07KNWs8cGk2ctGn1VfaRVgJARId0SKKlpWUqEWk3/UGZN/1paWmZGo9Gb4RSnQCWovgP/xyAhxQwr92yLip0QRNCjHObOzu7TdP8DYh26ozftGxTKRdkG9myfPMxOgN5tNSztnGRAOAQXwHks9krAegdGCHaCcN4VGusz45qbDwyEY/fns9mO4jonwFMLnIIIwD+1Waem7Ssr1mW1Vbk9YUQ5WGdzqA37nm9CUBJFgbbs3nPmuxQVq8xmlLarYCB8nsFoHsL4KA7APX19dUArtKcHwT8vL3MCtBEo9FGA/hhjugbYPbj/dgQMz8YCIVuHU9Fk4QQmphfAvC5sQ4b6R+Zsfvd3a/NmDfjRA+icoL/fP1zWqf/AeQD4bCjBGBc7AAwc/ZgP1NdWXkZAN1/iH028/2aY4uuORptjsdiDwWI2onouyj+4Zg+ADcGKyoazVTqe/LwF0IcCrLtP+qOXXHl8jlwcGfeCwPdA+t3bejRulLNwGu6TYA+MC4SABz8FUAAzFdrzg0G/r0cmv40RaPHJKLR39hE7xJwGYrfnW83gP8Jw4gkLet/bdmy5f0iry+EKGPtnZ2bASR1xu7btm9WaqW1yuWQnEgvu/QJ3S+dIGCZ0wDGRQJwsFsA8Xj8Hxzcb88Ec7m7NMcWRSISWZKIxZ5WRG+B6Eso/r97FxF9b3hkJJq0rFuSyWR/kdcXQhw+tM9aPfPdFZ+0s3bKzWB0vfP7d9a8b/U2ag5XShKAQ3bAbR9idtL059eFutglJx6Pf2puLPYCDOM1AH505zOZ+Zvhqqp4u2neLd35hBBOqdEEQKsKaG4oV/X4Fx/LABh0N6qxGdoztPaF6/90qvYEzH+yLMtRDQBgnCQAB9oBaIrFzsJoSUodylCq1Jr+0NxY7LxELPYqMb/IwJk+xLAJwCUNc+a0mKnULzZt2nTQMxhCCHEoLMtqJ0D7LMDujT0tK2/860b4dGU7P5Jve/jTDzaxzdrPXzYMV86cjYtbAPl8/mMTAAXof/tnXtHW0bFFe7y7jEQ0+gUA1zNwrE8xrC806HkKgEpalk9hCCEOZwTcycC5uuPf/I/1SwLhwKpTrj11CYr4HFRZ1fHw2Q/VZgaykxxMs8U0zeVuxFNuCYBWa8murq79JgCJROJYKKXf9KcEyv6efvrpwe3bt19MwHVgPsqPGAhYpYhuMk3zOT/WF0KML22W9UIiFluN0WZCWtbe/8bJmeHsa2f95KyFKMJNqMy+zNu/PPOB2em+9FQn8zDRzXBp96Loxd11zZ8/vyKTTuvcs88lLWu/iUM8FnuMgIt04iFgVbtlnaIz1g2JRCJMzJcx87UAoj6F8ScotTTZ0fGST+sLIcapudHoqUzk+HfPjHkzrS898d9yocpQsxtx7Yfa8UbX6t9f+sQiO2drfYn9kHeSlnUsANuNwMomAWhubp5o53I6p8cHkpZV+5/ma2yM2oFAG3R3QZg/l0ylil73f8HMmTXDNTXfBHA1gFnFXh8Ag/lpRXSTZVlrfVhfCCEAAIlY7AkA/+B0nmA4MHzunee9mTi76TgA1c4jG5XP5Nuf/tZTgx2vdLjyWpaJzjRN80U35gLK6BUAM7taA8AOBn8IZt0//7uFfvRFE4vFJhnMVw4TfR/6BYucsBn4HQM3W6mUo/rTQgjhhkAu9z07FPoMgP/0JW8s8hm7+ulvP33yhOk13efd/dnXZ50w+ySQduVZ5Efy775xz2u9b/xi7RKVV249Zx918+EPlNEOQFMk0qIMY/NYxzHQbVrWLHzo2khTU9M0lc93QjPTI6Kvtpvmwzpjx6qpqWka2/b3mfkqAE4OjujKAXhEAbdYltXuw/pCCPGxErHY1wA86Oac4YkV6QUXL1y34MvHBCfVTzoGdPBnhZ2123e9tXP7G/evnZ5aaR0NF5+vDHRXZrNHb+rq6nVrTqCEE4BEIhFm5jOI+XwApwI4CvrXFncR8/Mgep6CwT+rfP5KAD/WnGtHuKoq5vXVtubZs+vtUOhqAN+CboMiZ9IgelAx3+bGfVMhhPBKIhr9TaHImevIIK6LT7EaTpjdM6N5GkI1oXSoMqSU4nCv1Zfrebdncs+GXQ2DuwZmerE+AJuYz2lPpf7s9sQllwAkIpElMIyvA/giHG7rfAwFIA/NGwXMfI2ZSnl297+5sTGaDwR+RMBXoV/4yIkBZr7PZv5ZR0fHLh/WF0KIMUkkErWFznjz/Y7Fdcw3JFOppV5MXSoJgDE3FruAgRsAHOd3MAewF4bR6EUp26ZIpIWJrmOii1H8Gv3AaIOeu8PZ7N1ubzMJIYTXCge718CfM1JeeSxpWZdAs/Lhwfh+CDARjX4GRLcz8Am/YzkE97n98J8biSzkQOB6xXwh/KnM2APgzkAo9G9OO0sJIYRftnZ2pmKx2LkG8AL8OS/ltj9Oqqu7DB49/AEfdwASiUQDlLoXwGf9imGMMiHbjm7u7Ox2Y7JEInEilLoewHnw599hOxPdlslkHujq6kr7sL4QQriu8Lv1eQAT/Y5FG/Nzw5nMhV73T/ElAZxR1KEAAAynSURBVJgbi32VgTtRTlka0QNJ0/yG02ni8fgZxHwDgDNciEpHEsw/DVdX/0pq9AshDkeFKq/PAjjC71jGioFllVVVFxXj93NRE4D6+vrq6nD4XhBdWsx1XaACzPO2plJbNcfT3FjsPGa+HkQnuhrZodtIwM3tlvVbuFRFSgghSlXhTMBylMfrZWB0q/+WpGX9E4rUqKhoCUDhWtsfACws1ppuIeDJdsv6gsZQIxGNXgii6+Hfn3sdEy0tNI/wpfuVEEL4oVA59T4Al/gdy0HsA/M3k6nU74q5aFEOATZFIi22YTwHoLEY67lNMW8cy8+3traG9u7dezExXwegxaOwDoiBV0ipm5IdHc/7sb4QQvhtQ0/PEICvzI3FnmXmfwGRo0Y8HnnZZr40lUp1Fnthz3cAmqPRZptoJcrwXcyHMICrkpb1bwf6oUQiEYZSX2PgRwREihPaRxA9T0otbU+lXvZlfSGEKEGRSOSIINFPQfQVlMYV+D0EXNtuWQ/Dw5P+B+LpX0JTU1NM2fYrYK73cp0iYSa6wjTN+z/6HwrbTN8C0dU+/VkZwHIF3GRZ1jof1hdCiLIQi8VOIGApAWf5FMIAM/+8UGxtr08xAPAwAYhEIpODgcBqv3rUeyRPzOd+UJIxEolMDgUCVzHz9wBM8yEeG8Bvmehm0zTH9JpCCCHGs7mRyGI2jGsAfA7FKL5GtJOAeykQuK+tre09z9c7BF4lAEYiHn8WzGd7NL+f9irgfIPoHDBfCX+uMmYBPMJEt5immfRhfSGEOCxEIpEjgobxjxhtK9wKd5+LaRCtANFjkyZNenb9+vU5F+d2zJMEIBGNXg+im7yYe05FeMfnp820FlRNULMrKyumhkITDUYgD85lbZXvzmeH3hrs5zUD/bWr+vcelWXlRz19r6SJ+QFlGLeZprnd72CEEOJwEo/HZ5NSZxNwMo9e2Y4DCIxhin4QvQXm14n5L+lcblUpF1pzPQFoikYXKaJX4eINg9kV4Z3/PDvavmTi5MaQYUQOdRwD/e3DQ+88vKe7YnnvnlbF7EepXTcMMHCvYv5ZKpXq8TsYIYQYDyKRSGUFUbMavcE2o3CLIAygmoiGmHmAifrItjuCQOeWjo5tKKPr1q4mAKeffnqwa9u2dQCOcWO+eVU1yTtizXsi4coT4DChyLJK3tHVuefX7+1aXEaJQC9GG/T8izToEUII4SZXE4B4NHo1ETlulRs2jJE7Is2vnzm57iRotu39OMO2vfni9o3hrcNDMTfndVkPEd1hBIP3SYMeIYQQXnAtAZgzZ05dRTBoAqhzMk+iqqZjWcsCDhFFXQptf9IP7t659o6ujlO4NO6DfmAbM9+WyeUeLOX3RkIIIcqfa1vhFcHgtXD48D+pdvL/Xd6yYKLHD38AqLp8Rv2pjzcveNUg8qUAw0e0A7g8XFU110yl7pGHvxBCCK+58u03kUjUQqntAGp15zivbvr626Nzj8boAYui2ZoeWnXhlg0n2sxjOenplo0ELG23rN9BGvQIIYQoIld2ANi2vwEHD/8FNRPbbovMbUKRH/4A0FxVc/JDc+evKuaaBKyFYVyQtKwF7Zb1OOThL4QQoshc+dY7ZcqUh0izEt6MUGjP8paFwYBBflTSAwDMqghHhm179dtDA7M9XurlQsen63p7e3VbCwshhBCOOX4FUCin+Lru+GfnHfdatLLyRKdxuGDos+++9Z45kna/YyHzc4roJsuyirrTIIQQQnwcx68A2DC+pDv2/CnT1pXIwx8Aau5LHLXLxfkUAU8y0fHJVOocefgLIYQoJW6cAThHZ1CAyF7aONe3bf/9aaioXHzmpClvO5zGBvAoDGNBu2V9wTTN9W7EJoQQQrjJUQIQjUYbAbTojP3itBnrgkQRJ+t74X83xp0MXwPDaE5a1iXJZHKTWzEJIYQQbnOUAASJPqk79gf1jVVO1vZKXTB0TLyyqlNzeH8ymTRdDUgIIYTwgKMEQAGLdMY1VlZtrw0EFzhZ20N09axISnPsQlcjEUIIITziKAEgZq2mPxdOmd7hZF2vnThx0izNodObmpp0xwohhBBF4+wQIJHWC/P/MmWaqw1+3FZpGPHJwWC/zljO52UXQAghRMnTTgDmz59fAUDr2+6RwYpS/5ZsfHJiXbvOQMVc73YwQgghhNu0EwA1ODhVZ3wAyAcN4wjddYvlExMmDOmMMwxjstuxCCGEEG7TTgByodAUnXENlVXdAIK66xbLzEBIt0vgJFcDEUIIITygnQAwc6XOuEmBYFm0up0eqtAqk8zMjloiCyGEEMWgnQAYtq3VwW5E2SX/7R8AQgFDr08CUcjlUIQQQgjX6Z8BCATyOuNyzGXxgOzP5bUSHGYedjsWIYQQwm3aCUAgEOjTGbc7m60DoPt+vWi68xmtHQAi0jo8KIQQQhSTdgIwPDzcqzNuSNkTcsw7ddctlg1DA1pnHFipbrdjEUIIIdymnQB0dXWlAezRGft+LlfyCcCawQG9+/yGscPlUIQQQgjXOW0HrFUsZ83AvpLeJreZt28fSc/WGcvMSbfjEUIIIdzmNAHYrDPoFz1dEYfreuqd4UHdZkDZurq6La4GI4QQQnjAUQLAzGt0xpkj6Uha2W1O1vbSPTu3693lZ960fv36nMvhCCGEEK5zlgAQva479rH3enY5WdsrI8puWz2w92itwUQvuRyOEEII4QlHCYBlWRtBpHWg764dnYtzSnU5Wd8LP9+5/T0G9IoAGcZKd6MRQgghvOH0DAAD+IPOwBxz+OHdO3XftXti0LbffWRP9xLN4cPVAwMvuBqQEEII4RGnCQBg2/9Hd+hd3dtP6rfzGxzH4A7728nNUMy6fyd/3NDTU9K3G4QQQogPOE4Akh0dL+i+BrCZA1/YumEKM/Y6jcOpFX17Xl471D9PdzwT/drNeIQQQggvOd8BAGwAD+sO3jEy0nBjV2pLYR5fdOcyb1zXkTzNwRRds2fPfsa1gIQQQgiPBdyYZGZt7WZlGFcB0Or0t3F4sEEBqxdPnDQbugfwNA3Y9juf2fhmS5ZVhe4czHzrW2+/LTcAhBBClA1XEoD39u0bnFJXFwFwnO4c6wb754SJVrVOqJ0Fd3YmDqo3l11/1sY3E8PKrnEwzV4murivry/jWmBCCCGEx1x70CrgRgAjTub42c5tp1xpbtlos16PgbF4a6j/pdM3rv/EkLInOJzqTsuy9rkSlBBCCFEkruwAAEBfX9++qVOmTAZwkpN5Upn0EU/17h44e/K0zRMCgVkuhfc3ecU9N3alNt64zTpZOf/zd1UPDX25Z2hIqv8JIYQoK66+b29ubp5o53KbAGg10vmoc+umrb8pkphUSUbC6VwMHnx53751V6e2tg4pe6Ib8RFwcbtlPe7GXEIIIUQxuX7gLhGNng+ip92azyBSn5k85e3vHtmYiVZWHgcgPJbxWVbJP/S+33X7jo4FvfncFLfiAvPyZCp1gWvzCSGEEEXkyYn7eCx2LwFXuD1vbSDQ/6lJU7d+enLd0LETJtZOCARrA6DaAFEdA1kFHkwr9d6ObKZvVf9etbx3T0P78FDM7TgA7LaZF6RSqR4P5hZCCCE850kC0NDQUFVVUfE6Awu8mN9neSY62zTNF/0ORAghhNDlyXW7rq6udECpzwM47L4hM/N18vAXQghR7jy7b7+lo6MDSl0A4LCpj8/Md5up1B1+xyGEEEI45XnVvXg8fgYxPwOgyuu1PMX8q2Qq9VUAyu9QhBBCCKc8r7hnmuaLCjgfwIDXa3mFmO+Xh78QQojDSVFK7lqW9RcYxmm6XQN9xABubE+lroA8/IUQQhxGitp4J5FINECp38JhtcAiGQTz5clU6nd+ByKEEEK4zbVSwIeit7e3PxqLPZLNZKoALEGRE5AxWKeAs81U6mW/AxFCCCG84NsDOB6Pn0TAA2A+yq8Y9iNNREsrKitv3bRpU9bvYIQQQgiv+PoNfP78+RWZdPpKAP8EwL0yvWPHAJYZweCP2traLB/jEEIIIYqiJLbg58yZU1cRDH4HwHcATCvi0grAs0z0Y9M01xdxXSGEEMJXJZEAfKC+vr66Ohy+CERfg7cHBXcBeIyJ7jVNM+nhOkIIIURJKqkE4MMSiUQcSn0ezOeDaAmASifzMbCViP5sMC9vs6y/ArDdiVQIIYQoPyWbAHxYIpEIM3MrKXUsiOYDSAA4EsB0ABUAajG6nT8AoI+AbgY6AbSD+c1APr9+6/bt5VaDQAghhBBCCCGEEEIIIYQQQgghhBBCCCGEEEIIIYQQQgghhBBCCCGEEEIIIYQQQgghxOHo/wFICcLJr5XClwAAAABJRU5ErkJggg==;" parent="1" vertex="1">
          <mxGeometry x="720" y="470" width="70" height="70" as="geometry" />
        </mxCell>
        <mxCell id="F7ClsQAYFsTohfT2Aaco-3" value="" style="shape=image;verticalLabelPosition=bottom;labelBackgroundColor=default;verticalAlign=top;aspect=fixed;imageAspect=0;image=data:image/png,iVBORw0KGgoAAAANSUhEUgAAAgAAAAIACAYAAAD0eNT6AAAABHNCSVQICAgIfAhkiAAAAAlwSFlzAAAOxAAADsQBlSsOGwAAABl0RVh0U29mdHdhcmUAd3d3Lmlua3NjYXBlLm9yZ5vuPBoAACAASURBVHic7N15YFTV2Qbw5zl3JgnIFggJq+wgRFBkTcgyQAg7shh3bV2pba12tf2qLa1dbGs3bbXWutQVCYKAskMCJOybQgANi4iKohRBhSwz9/3+mCUzk5mQhISwvL+W5M6de889d9rMee9ZAaWUUkoppZRSSimllFJKKaWUUkoppZRSSimllFJKKaWUUkoppZRSSimllFJKKaWUUkoppZRSSimllFJKKaWUUkoppZRSSimllFJKKaWUUkoppZRSSimllFJKKaWUUkoppZRSSimllFJKKaWUUkoppZRSSimllFJKKaWUUkoppZRSSimllFJKKaWUUkoppZRSSimllFJKKaWUUkoppZRSSimllFJKKaWUUkoppZRSSimllFJKKaWUUkoppZRSSimllFJKKaWUUkoppZRSSimllFJKKaWUUkoppZRSSimllFJKKaWUUkopdZ44dOhQo08//fSeL774Ir6h86KUqszR0BlQSl1YPv744wSPyB0WeZ9tS9vS0tKvALzY0PlSSoXSAEApVSfef//9LqR1v8fjuZM0jQUAKRDhFGgAoNQ5hw2dAaXU+a24uPgqy3LebwxuIOkgDWgIQ4I0MIanALRu06bN1w2dV6VUBa0BUErVmIiwuLh4JMn7SDNBYEPEAPA+9UMIIUAIRNjIGI4GMKdhc62UCqYBgFKq2oqKimJIXv/ee+/9BGAy6KtGFEAoIAiRiEHAFGgAoNQ5RZsAlFKnVVxc3KykpOQ2GvMjQ9OBpK+aP7S6P9q2MTx+9GhSYnIyyxr6XpRSXloDoJSKauvWrZ0sy7r/5KlTdxqaJsFP+oFtIfwd/oKf+sNqAJq3bv1ZFoCFDX1PSikvDQCUUpVs2LC9p8Ph+RnAm2yB0wAQCECCkYIAX9U/KIDNTWJkISm/gJD+IMC25WZoAKDUOUObAJRSARs3bkwW4QPG8AYaOgwNQqr7w7aNCVT37zJkLoBXunXr9h4AHDp0qJBkKiuOPWlZVpvWrVt/2cC3qZSC1gAopQCsX7++n23jR7YtN5KwBBVP+kC0p37ssm3mGmPP7Nm9154Iyc4UQSq8x0KEjW3bngLghbN7d0qpSLQGQKmLWH5+YYpx4EFDjjUkaYyv4x4RcdvwS8uYl0XkX5dffvnbVaV94MCBNg6H40PSWEEdApe2aZM0+mzdn1IqOg0AlLoIrVq1qq8IH6JhToRC3ttzP6i63xjugTHPG+Df/fr1O1bd6xw6dGg5yZFBowJsh8NxaUJCwkf1eX9KqdPTJgClLiIrV65MFsGvPbZMIf0d9+kbyy/ebQEAgZAlBsgl8a8rr7xybS0v+aoIRnovBAhoPB7PdQD+Ulf3pJSqHa0BUOoisHDhim6WQ2YY8kYaGuN74id9VfOh20cMzd8B+6khQ4YcPZPr7vnss6aXlJR8RJqmQc0AO9u0SepbV/emlKodDQCUuoAtXLiwg9D6sUVMpzGxwQV+hKr/9w2tv8XEOJ4eOHDgybrKwwcfHPqHMfxO6ORAHJaUlFTbWgWlVB3QJgClLkALFy5s5rbxf7bgPgOJ81bte8fxe4fre6v7AcBADgL4dXlZ+QvDhw9313VeROwnRKxvk96ZgbyTBmE6AA0AlGpAWgOg1AVk1qxZVmxso7tA/MrQJHo79EWdsvcwLfPbxISEp5OTk+t1it5Dhw6tJM3woDyciouLbd+iRYtqdyhUStUt09AZUErVjdmz3xjtcMS8bYv9JASJAoF3ej7fLH4iEO/2KYj9cHl5WY/hmZn/rO/C3+efvl6A8OWoUVlZ2S1n4bpKqSi0BkCp89zs2bOTRfgoDcf4n/SjPPULwZmWxZ+OGjXqg7OZRxGxPvzww3eMMX2CaiCKkpKSLj+b+VBKVdAAQKnz1HPPzW3RqFHZb2nM3aRxmLCCP2z7PcvwW2PGjMlrqPweOnRoKmle9+fTt0pgemJiYkFD5Umpi5k2ASh1HnrllVduiI0r3S3AtyFwAAIRfxV7SNV/GQQPN24Ud0VDFv4A0KFDh7mAbJKKZgCI4P6GzJNSFzOtAVDqPPLsyy93ddryTxozxvcEXdVTv3/7sGVYIMYUOsiC7OzsraR3up+z7YMPPs62LFkS1AzgAdArKSlpX0PkR6mLmQYASp0HnnrqKWdcXOMfg3iQNI2iTdlbRRAQvH3EMtwo5CaHMZvLy8s3jx49+sjZupePPvpoMcnRQasEPpaYmHjf2bq+UspLAwClznHPPPNMGo31L5LJp3/qNzDkcRo2P11AEDwk0DL8AOTbNKbIIneQ3HX8+PHd48aNK63r+zl48GBXh8O5g4aNfXn4KibG2TE+Pv6Lur6WUio6DQCUOkf95S+zGjVt+uUjNLyXNAx56q/6Sf9tiOMm45R0IxxtLDOSZNPTTP8bPkcAaIybNAcNsRfG2mdR9hpj9oo4PgLKD+/fv//Itdde66nNvX388cffA/h3/7UA64GkpIQ/1vFHqJSqggYASp2DnnzyP/2NZb9EWn181eQh1f1B22WkiakcEOCFaVOnfgMAnnpqs7Nt2yOplsXRJEbTmP4kGT0IiDpVsDf9im2b5BEafkqYj4zBEdL6iDSfGiNHHA7HlyJyCsAJkl+KxJ1yOt1fXXrppScA2IcPH55Lmqt9QcCHrVu37kqyvGE/eaUuHhoAKHUOmTVrlnX06LEfg/gVaWIqP/UHCuPFhviNMSYWNEtJY4Ufa2junzLl6r+HX2PJkiWJts1sY5nRhhhOY9pXXStQ9VLBrGLbn+cIsxCWkqbcGDbxDwm0LPPNhISE/zbE567UxUgDAKXOEX/965OdY2LkBdCkV/HU/xksfuu2W2+d4z/v1Vdf+yWIGRGaBDykdc2UKRPfqOq6eXl5nT0epFmWGUYijcb0IStWDDxdrUAdBQQgTXHr1gm96R0ZoJSqZxoAKHUO+NvfHrvVWNbjJJsFCslKQYDZTNhTb7/99kPB586YMcP06NVnqWUwMkIQcBIww6dMmbixunlZs2ZNvIik0pg0Q6bRmIGkiatcyFermSB6EBAhIDDG3JKQkPBS3X/CSqlwGgAo1YBmzHgurnnzE/+iMd/wFogROul5C/PCRnGx426++eYTkdJ55ZVXkmg5NhuyQ4Qg4KjDYVwTJkzYWZs8Lly4MDY+Pn6gMY5UEgNo2J803Y23Z2LVBX7kJ/2qagX2JCQkXK61AErVPw0AlGogf/7znzsC1us0HBTxqbhie1eM0xp22223VTlMbubMmYNAs9rQxEUYLfCJw2Eyx48f/15d5L2goKBpXFyTK4xBf2PxCkOTTPIyGraoRdU/gqcHJnFj69atX62LfCqlotMAQKkG8Oijj2bYMLMMmRT9qd+A5JeG0n/69OnVminvtddeuxk0L0YZ93/I4bCGjxs3rt5m3duzZ087j8fT2xjTm2QPkp2MsS4lzaU0aFXNgGBXQkKrviTt+sqnUkoDAKXOukce+eN3aMxfjTFO+trQ/UFApWYAmjvuuefuZ2uS/mu5uX8i+KMocwR87LDMqHHjxu2qr/uL5uOPP25cXl7eGUBLAPGWZcWLmHhjcJsxvCKsL8D1rVq1eu1s51Gpi4kGAEqdJY899ljsVydP/ZPgHabyk36k7fXfvmd6ak3n7Z8xY4bp3bvvy8bC9VGCgGOGGDt+/PgN9XWv1bF37yeJsXHuJww5LbwZwLLM/pYtW/YmWdaQeVTqQqarASp1FghAZ/G7NzU+/sVYAN6V++BdtC94O7BOngA25Ue1WbRnxowZNun5BkQWSeRVAuMFXLJo0aKRdXJztXDw4MGcmJiynRBMC1oZMLBKoG1L16NHj97dUPlT6mKgNQBKnUVLXcMGfhV3ycPHOnfud6xTl3bijI1c9W9M4b3f/XbamVxr4cKFsSdPnsqlMROjTBtcboh7xo4d+0xd3d/pFBcXd7Acjj8bmmsj9AWwSWMq+gLwM5LdW7VqFXHkg1LqzGgAoNRZNisnx2r+0YGfgvj5V4lt5ItLuzb+sl172DFxFQUi+LllWQVCbjIwKxMSmm+qzbz7Tz31lDMhIfEZGt4Sde0A8JENG9b9fMaMGfXW6a64uLgZyAcMeT9pGkcYEviuiH29w+H4L2n6BfUF+G3Lli0frK98KXUx0wBAqQayNPXKKw2sl0QkWUiUtGqNL9u2x9dt26O0VSJgTHBA8Jmx8JzT4Xjq9ttv31/Ta70+d97PDPEb7wx/EUcILLQsc2tWVtbRurzHzZs3O5s2bXo3yF8amtYRnvqFtP7TuHHcj1q1anXi8OHDg40xa0lavn4BJ0WkZ0JCwkd1mS+llAYASjWohWO7xzpPNP8NBT9AUJ8ccTpxqlUCShKSUNI6EaWt28DTqDGMoU2a1x0Wf3Lbbbe9X5Nrvf7GG1kWzPM0bB9l3v+DlmWuHTlyZLVnDYwmLy/PkZiYeB2N+YWh6RlpoiDC7DAG3+/UqdOK4HM/+eTI32hwn6noEPhsfHz8HWeaJ6VUKA0AlDoHLE/tnyIwL5DoHvpHycAfqbtxY5S2ao3SpLYoTWxbWp6Y+Gipbf9u+vTpJ8PTmzVrViMALW2HI94p0lLEtDQOxlPYwxjzAxrGhtUA+AOCMkP8X0FBwV9r0yRQVFTUxO227zCG36dhp4r0QyYHOkjiF126dHkp0lj/I0eONBHBFhr29AUBHssyg1u0aLG1pvlRSkWnAYBS54hlAwY0Z5w8Q3AaEFT0B/2VBv/BitOBsviEUnfz+EOlbdq5y9t2MO6WLZvQWC0NWTEbYNjUvNH6AoRNyFPocFi3ZWZmFlcn7+t37EiKddv3kriHhi2jTA/8maH1O8B+skePHqVVpXfkyJErAawjTZxveOCG+Pj4VJ0cSKm6owGAUueYlWmD7obI4yBi/Psq/aEyuG6ggsQ4Ud4qEe7WiShPbAtPYht4WiWAxopc4AeaASIFBOYkgIeaNWvy+MCBA8srXUuEmzZtyqBl3WHAHJJxURYFescy5vHGjRu/3LFjx1PV/RyOHDnyHZL/CCxvbMxdLVq0+E/1P0mlVFU0AFDqHLQybcAQgK8B6BTyR0ocJWgBaBGyO8JfMn0/JS4O5YlJ8LRuA7fvN1olAA4HIvUFCOsXAJJ7LMv8OD09/U0AKCgoaGeM4xvG4m2k6RFllUAPyXmA9Xjfvr3za/s5HPn881wDXOMLAj63LOuyZs2a1WlHRaUuVhoAKHWOWpyS0jLWKn8ZwBjvXypB4GMSORmrN61fm5qa4HaUd6ewj1B6ARgMYAiBWF8VQUD4H7pYFuyE1vAktoGd2BZ2YltImzZgo8ZRAwJjzDLSlJAYS2MckZcCtjaT8iqA16688soz7rl/9OjRZrbIRkP2Ig1g+O+WLVpMP9N0lVIaACh1TpuVk2MlfHLgTwb8ftDuMgi+7yrY9ET48WtTUhqVOz0pMBhBwTUEeoUcENKtILy7IWC3aAFpnQS7dRLQOgmS2AZIbAPGxFRVQ3DYGD5pWdbM/v37V6vPQE0cPXq0jwg2GMMmJG1jzNDmzZtvquvrKHWx0QBAqfNAftqg20A8CSDWX90vxH+afGV/e+CWLZXa5/1Wpw+9CvTcQMNbACRFLPijfAv4dwstIL4FkNQWSEwCEtsBSW1hktqATqdvBj/ON4bPiMiSSP0FztTRo0dzAL5mDElya/PmzYeQdNf1dZS6mGgAoNR5YnX6wGFCzgGQ6N9HcGlMKXOGbthQ5XS5hZmDU4QsRNDffPR+A76tKpoQAACGQKvWMEltgaS2YJt2sNq0PWYlJs6CM/alK6+8sqDaN1cNR48efZQ0PzSGAPDzFi1a/K4u01fqYqMBgFLnkTVpg7rahksIdAfg+wuWHR6accPzN3xY1bkFrqHPA/KNKgt+Vm4WiHRw5f1BoYNlga0TYeJbHbPf3/cUSk5us0X2tIpp+W6PRYuqHP5XFRFxHDt2bBlJF40ptYwZ0LRp06LapqfUxU4DAKXOM4WpqYlup/stAgOBwB/xQVs4KnP1hqht8AWjhrWj270XQCP/PgIg5AGbPAwiETbbkWwNIImQtvDWNiSCkSoMGLpVxbeJ7y0PnDGfOrr1aGHatCl3tO0oVtv24mzb4YQjvsWXpCk1hscBuC3LOg5jygzwtX+hJN9iSYkkJ/s6H25q1rRpqjYFKFU7GgAodR5akt3vksaljXIBGRvYSXwKYnR63sa3o51XOHzwnwH+IPSJn4+mrlz342jnFOUkx5w81riDG1ZXwnQl7K4CdoWNdjRoC6Br+DmR5i0Ifyf4GDa+BFbrRDjadYSzfUc4k5LgaH8pnO07wLKs4AmK4J8XwLeK4s+aNWv2SLS8K6Wi0wBAqfNUUXJyzP8SGv8X5PWBzn2C/xH2mGGrNkXsJV+YnZrIcvsgiDj/PgIfDc1YfylnoFaz7BVmpyY6RfrCZjJoXw5wAIi+AJzRCvyIIvQ5YEwsnO3aw9m2vTcwaN8Rse07IqZdR1ixMSBZSvKqpk2b7qpN3pW6mGkAoNR5bFZOjtXus4P/BXiTfx+JL2wgKz1vw5ZI56wdPvR5EN8IeQKnjBi6YkNeXeVrbUpKI0dT9KeNwaTJEIgLQHzFBUN+VUOlI8XRrPkXjpatjjKu0e6S3TvnENxpx5XsGrhgS6W1EZRSlWkAoNR5blZOjtX+8w+eg+CWoL/o/9FjslJXr9sWfnzhyNRBRuyKFf8IUPD00JXr766vPMoMmK1r0/oDMkIgEwGkArBCj4pSW1CzbykbwAEBdhrBLhjugGBXbLNju5Nzi8pqmX2lLkgaACh1AZAZMOtWDX1WIN8AAn/YR41BxtAVGypVj68bMXQDiMFBfQGONY0/0eZsFZJbx6a39njsSQQeJtAWQZmuiRqc4gZYDKKItr1TgCIbsvPLsti9w/PztROhuihpAKDUBUJmwKxdNeQlAjcEjdX7wLaslLRlhR8HH7shK+VWEflvaMM7Jw9dvnbe2cjrltEp3UHzTwiyox1T7S+n2nyLSWCrDMBuQHaR3CFAEeF5p//i9e/XIlWlzisaACh1ASnKSY45frTZAkCyAd8wP8p2xCBz6KKKyYLyXK64RlbpYQAtgobwvThk+bpb6zN/eS5XXLM4908h8gAQ0hERAMoFfJ6QuwL7iVkCfkLYcQI0BYwTkBYg4iFoJWArAzStaT6kilc+/wNkm4DbjHCb7XFv2xff8b1rc3M9Nb2WUucqDQCUusDkuVxN4kzJCngXB/JWBpBLHcfKJgRPG7xhZOpLoNwUdOrRg/EdkuqrkNsyJmU0xPwjMIlRMHKtZdvT/1cWs7d5XLlvyWCC4G39F695vqp0Nw8Y4ERC4wRj2e1hox3BDgK0NUAnAbqB6AZBUk3zK5W3vgbwjtiyDcRmC9x4RUrh7tqOnlCqoWkAoNQFaLNrQEK5ca4BcVlgTn/wv0NXrLuNvhJtfVbqNEJmA0Hz/lsmY8iSwjV1mZeN41xtnJ7yvwtwbWBnRaa+APCz/imF//YXpNvGpB0H0Mz3/m/7Lyl48EzzUORyNSmNdXcj0RMGyRAkA0gG0AMCR03SkqCfAE4AskmEG0hscJa7N/RdseHTM82vUmeDBgBKXaDWulK6G0s2AGwZ2Gnw8NBl634BAG9n97uk1L7kM/hnBiRB4I+Dlq19oK7ysHV06jSA/wKRULGXIAARvua2rPsHL8z/JPicbWPSiwHp7p3WgK9dtWjN9XWVn3BFOckx7hMtL7cNBpAygIIBAvQDEBMo4iO2EFSQ8IMEBwGsF2C9wKze36zN29p0oM5FGgAodQFblzU0i8JFBByBsfeU2wYvW/88AGzMSp0HyiR/oQxg96Bla/uc6XU3Zw1obqy4x0D4+hQw6KEfh0CZftWiwkWRzt0+Jq0QRKrv5ZYrFxUMPNP81ERRTnJM+ZfxgwG4aJApglQAjYGgYr6KoCAkIPD+OgFBAcjVFM8az9GyTVWt4KjU2aIBgFIXuI0jU78nlL/7XxMosY2dNnTphi0bRg27k5Cng78IjJEeA5as21vb620bk+YSyPMEO4W9JQSedbvjfjhw+fLj0c7fPjZtLoDJvpfHr1xU0KK2eakLRTnJMWVftRwEiItAJrxzGFwCnD4giBAMAMBJIdbDltUE8o6XxazVoYiqIWgAoNRFYENWyjMEbgfgmzGYB63ymIF0lLS2aQLzBPhW/PnewKVrH6/pNfJcrrjmjdy/oeD7AEzIm8RhCm+7cvGaJadLZ/vYjKdICUxK5BEkXrVozWc1zU992TxggNPRutEPQTwMhPYfkMCPyiS0mSB48wQgK0EudtjW0iuWrj5Q55lWKoIadX5RSp2frEZl99olMUMAJAOEATrZzrKX3m/RcXyXLz46BiI+6GlgBIAaBQBbRqd0N3TPhuCKwE7/VATEW7bwtv6Lq1mI0z4S/GzisEx3AOdEALBtQprL8vCXArjCinQAoasihgcD/kYQAQBW1AoQaAZwsggmu+nB5tHD3jPCxR6RJYwrydepjVV90RoApS4Sm7JTLxfBRgYtByyUH1vACAErVhUEv9jfvF1CdTuubRubPhkizwNo7j098MVSRuIn/RYWPMbTdqWrsGNc2vcEDGqykFv7Lix4sbrn14cdE9Jcts1fAciIeIC3tN8skIMAp0V+O9JplZoHwg8roWClB5hjWWb+uVQTos5/5vSHKKUuBIOWrt1pwB/4X5OAAX8L0tchjd7/EC26nPhwwOnSkxkw28ek/R4ic0A0J71p+gr/TyEYecXCgr/XpPAHAJs84p3ByPvPNqZbTc6vSzsnpF3xzvj0RWIzj0BGULYCBLIMgqwrFhUMAs0J/5M+wZ8L8SsIFhM4xvATEfjEQxINOyxOiHGG+I/tsQ9vHjUsb3N26r0bszM61ttNq4uGNgEodREZuKzwX5tGp46lYJJvV4wIJwRXXQMAxRoBYGPlFLzezs6+ZPv6ky+CmBKhGnGL5TFT+i5dfahWmbR5hEYCGaJEmDionm0b4+rssORhEftGAkbCb1IgBOaB8psr3ioIrLpogCFCb8FuyLlXvLVmt/dw8J0xw3rCcDCBdAEyRNDLf16geSC0acC/6T2GsAC4BHQZuP++OTt1EyBzScw+k06b6uKlAYBSFxnL5j02JRNAc3if+ENqAn3TB48E8Eik87dPSGnv8Zycb4Crwt8z5FtfXeLOSc0tOFXrDBpzBEGT60mkmQPrSfHYIc1KrLgHIfZ9AGICQUhQbgRYTNgP9V1YuDn43M1ZWc2B0sv8r8tt+dy/TUCwuPBdAO8CeBEAisa52pSjPENsZkAwAkTvaIGABCVE7wEU70yPg0Xw+03ZqetIvhDj4Gv93io4VpefibpwaR8ApS5CW7LT7gbkqcpV0oGNr+3PSuLDx6tvH5fWk4JlAlwaeh5ByqyyT0/dfKZj3N+ekppolTuCZ9M7evmbqxOinlAHZAbMzk0Z3yTxOyB02uCK9nvJN8Z6KHlBfkGkNN4Zn5YF4TLfS0/fwWtiajJN8NZxqZ2MzTEiHANipHftg9A+AiFtKVJ5EiIBSiBcYGi/cKIsdrEOL1RV0QBAqYuQANyanZoHMhMIKfh9vwhjMPSKhQUb/G9tH5vRH7AXA0isOJy+x1s8994lbe6qixnvZuXkWH1OfVqGoD5Kttgt6+vJdsf4jFRDPiaQaP0e9gjtH/ddUPBmlelMyJghIr/0vpJP+71V0Ka2eSrKSY5xf9UqzRbPGAHHANI3YhAAQMJ6GAa9/BQir3jEfn7oig3v1DYv6sKlAYBSF6lNY4b1MoIdBJwAAmPYKoIB+XH/RYWPAsC28RmptO2F8PX0D3RcA0Dh3D1NknLqcrrbogkZRwC09r8WcvDlC1Ztqqv0AeCd8WnxDsv6gwjuREgtf6AwPQrIjFOHTz5VnVqNHePT8wC6AICw11z+VkHkEQO18PZYVwcbZWNFOAaCLADNTlsbEBoprBXyMXO0ZI7OQqj8dBSAUhepQYsL3yXxL3+3cwYX/gAAkw4AW8cNG+gv/L1V/RWFvwBrv2pSflOdz3VPHkFgWAGBOu4HsHtixo0OY+2G4C6GPwiRbiH+VuYw3ZPfXPOP6hSYB1yuOJBDK/aY3XWZ3ysW5X/Yf9Hap69aXDitqWmWKMJJRvASAO8Sz4GbqLiVsFEHqRSZabeMfX9jduqDhdmpiVAXPe0EqNRFzHY6f23Kym8hGTLdrrfMlbSto9OusISLBdI8+KkfAAxQ7IiNmXRl7prad/iL7giAZP/lyLoJAHZPdnUWkadEkA0g8MAcdFvrxcN7Ll+4antN0j3V2B5MIC4oMNpV9Rm112PRolIACwAsyHO54lrElo0W8FohJhJoKlLRbZDwzr8cdJ/tRPCwE/LgpqyU12yax4csC+3MqC4eWgOg1EVs4IL8z2nw28COwAM3AKClMVgNoFXwU7/vwbJMKDf0nrviaH3ki+CRsH4JZxQACMA9k1zfgi3vUJAdGM9fMbD/mJD39B6waljywvwaFf4A4DEYEbLDsN4CgGDD8/NL+i9ZO++qJYU3lTazk0BOJTgT4Nf+YyoN8fT+jBXiVoq9aUNWytp1o4ZOkvCaEHXB0xoApS5yTdDs8a/w5f0k2oe/R7JZyOvAhvyiX9D497pGI0ck9Om81gHArnEjOu1x2P8BkBWpjCNkthuO7/adv+JTzK/dNQwxJrSTnuOsd7pLzV13CsBcAHPX5qQ0ch7neANcL8BEAjFhNQEQEKCAghQjnLcxK2XbBsGvB69YN6+mkzep85NGfEopbB+T/n1Q/uJ/HV7dH/JFQazuO2jN8JoMcaupPZNcDwrk4Yqry5He81clVXlSxHSG3w7afwVCAxmfz0F+57I38madSV7fnehKcEM+RaBGVfYmL1jd40zSrEubXa4EiSm/hWLfKWSfytMOS1AnQgAib5P49aDl6+dqIHBh0wBAKYW3s7MvEevk+wASohb+sp74SQAAIABJREFUFU0ANsB1AiywLPN68vz8Op+FbvfVrukQ/AuoaJKwyho177Fo0YnqnL8vJ6u5u9TzpFBuiPQ+BW8KnNMvm7/s4zPNa9Ek180UeREIlJbPJS9YdfuZplsftmSnDbBh3w3BjQCaAP5hg+FjCAARFJH448H4Di/XeSdPdU7QPgBKKVyxdOnXAB8/feFPADQAhhF4RGz7vZ0TMjbsHJ/xwK4JGXX21GsgRyoGAHiVO0qr1Qzw7tWZ6eVl5e+AckPw3P3ef3ICgpt7zc+fWBeFvzevGBPaP4Jr6yLd+jBgacGWQUvXTi9txHYgpsM/3TPDxxAAJJJF8N+ORz/cvnZkypizn1tV37QGQCkFACgandLSbTk+AhAXVuUfeYhZGG9nM+4AOceGZ07f+Wtq3Q6+Z9LwYaAEZtzz9mbndVVV10tOjvVe+dGHAHkQgBXhkI0GvLHHGyv31TZf4YpykmOs0oRPBWjhf3q2hL17LcjfU1fXqG9bRg7p5zGOuwGZDhEHUKkmwIuy0Db8YerSdefNvamqaQCglArYPj79JSO4CUBIr/+qCn+G/gg+ei8Ec8Qyc/rMy9tYk/bkXRMyeliWeS/k0sKf95qX97tIxxfnpLeWcutlgKMivC0A/nQi8cSDA/9dt5Pg7Jo0fDwhb1ZcBh9fNn9Vh/Oh7bzI5WrytaM8m5QJACYI0LpSfwAgfJKhcht8wlNq/Sq9QNccON/pKAClVICx8TSImyIW/pVmzAk89Ye+rnjRHcRPjNg/2TMp88PdNHMp9txesYmreZo25dhGMUfc5e6QFGkijwQonjIyRcrtWQA6RMjI5xTe1OONlUurul5tWZRrBP6nZIKChedy4b8xO6OjgXuCgJNOocxFIC7KyICQBYgggQ2ngdzHGPfN60cO+eUpT6OndL2B85fWACilAgTgjgnpuyHoFTIvYFjhX9E3IELhz7DX4QGE4DMA80nOMWVxK3wT21Ty3uThJQBig3K3pucb+SHT6743dcS9EHmUQEyEJLZY5LSuc1YejHy3Z6YoJyfGKvvsEwDx/n02ZGqfeavm1sf1amtTVlpXY9nXgMyBYGD4tMHBSwkEjQQIfY2gpgDvioj+N3cZ2PcOWblxZb3dgKo3WgOglAogIDuA/wIMVLVHrvKP+tRfueAPT4NoDeAOQO6wY08d3zM58y0DM6eJp8midgsWnAw68jMAHYIii0ANQFFOTkyM5/MnIHJHlFt5ztFcvt3l+byS6Hd7ZqzSz8eQiA8qJEuNuJfX1/VqYsvolO6kdQ0o18CWAQCD2vIR8oQfND1A2MM+dgE4CiA94nHeHX1smOXrRgz9D2PlR0MXbajWKA11btAaAKVUiLfHDOtlLGsPEFZwC58npRXIEQAuAU7/1B+9s2DYcd4Xp0BZTMEcB/BmObmCwFXBOTj5tbNp4+anGtPtfF18BVNYmmUU3Ndt7sp/1eima+HdycPfAORqf6loA8t7z8uP1AfhrNiRndHRY9k3CuQ6CPv790tQo37lJ/qQxYPKQK4mZIHY5s3SxvJZzEn7bQG6hJ4TSDUkQVtwiIZ3p65Yt7iu703VDw0AlFKV7BifsYtE7+B9BG9PfnPVc0U5yTE4lZhOY4+GYAyIvt73K34CVXUWjHQ0woOIMgBuAI1D9gpvoZGHAXSulGnimNBM7TF7eX41b7PWdk1Nb+uwHR9IoBZVQBv39JyfX++BR7DNWVnNHc6SaRTcLEQmfEO7g1cCDJ7sp+J1YNdnABYJZIHH8iwNfoLfNCrlSRF8K+icVQAGiaBxVc0HAnm+zC79/vD87V/U7d2quqZNAEqpSoyRuSIMBAAEAIM2AJCcW1QGFK0AsALAT4qnujqUl9ujQTOGQBaI0IWFQjZOW/D7xQCMAcKbD+SFyocCAPYZI+O75i5/t/p3WXtOj3WrEI6KanGWi8jss3HtzQMGOJ2JjcaQuFlQOgmgdxGioFKfrHgZVq0PADtJvEmxFxQ377Ah0iQ/m7KHjRKR6UFtBe+edMeOcTrLWzpFfiXAbYBYkZoPCH4zlrHZa0YM/Vb6yvUL6udTUHVBawCUUpUUjUsbIsasB4La/IV/T34z//6qzstzuRzt4jFUbIwBMIaQ/iB9E46xOgW/97gqvpkqvUUUumPsyb1ezf+8qrzVFZkxwxS/vXoPID2CHnvf6jkvb0J9XvftMcN6GYfjDoH9DQgSIz/RB1XpV7xZBjDfFnuBoefN/ovXv1/VddaPHdLMcls7AFzqmyVQYOgavHTtav8xG4cPS7aN/QdAxkfrROgLOl6KNe7vDly+5Xjt71zVF60BUEpVcuSkY0vrJvZXBJoESmN6awCq4hsSVuD79+DeKdmJbinLBjjWAKMAtPalVaOCP1Lg4OMWyDxnqbkEwFkJAPZuWz2eRnoAvo5wAEh5tT6utTYnpVHTkphrALkTNtIhwghP9L5MABT6g4CThCwS4RyPJ+6tgcuXV7sAttzmLwAuDdr1dHDhDwCD8wqLAExYP3LIcAgfA3B5aJYIQiCCm0s9jtS1I1JuSF25bmONPwBVr7QGQCkVUdGE9GWgyfK/JmRVnwWrXbVNT2bMMO+9s2YAYY8hMAaCIQCsaAV/eAfD4HcifXEJsNVQZrlt++Uec/I/rG0+T6d4yoh8AJlBS+t9XWZJm+Tc/K/q6hq7r87oKx5Mt4GbAG+TSminu9BOeL5fx4V4Ex57jttZsnjggi0nUUObR6eOF8EC74QAAICPHeUxyf3z86O2528eMMBZ3tz5AwC/ANC4Ui2AV7kI/m9Y/oY/n8vzJFxsNABQSkVUNDHzFwB+BQSe7PYkL1jVu+qzqu/g+LT4sjjnKNhmNCHXgGjmvxZCNrwvon5ZVe5saAskj4JnTppWryfn5pbVVZ73TR05SCAbgaBe9MQzPebk3Xmmaee5XI7EZjIFIt8BmAnfRSKPxQ+EACcofENsvGY1Pbrc2z+jdraOTW9tezw7ACT5ryPCaYOXF86pzvkbsgd3sd3mHwKMC85sWKfDt8TtvEVnETw3aACglIqoaGLGCIArggrko33mr0qo6+vsnTrimwCepr9JMmT+oehVA9X88vqEwNOwHU92nrPk8BllFMDeqcNnArzO/1oEMOTgbnNWbKptmkXjXG3okLsATIegPRA+FW+lIOAkgDdBzmzyFRd1yc+vk7kOtoweNk9EJvmvT+HcgcsKp9Y0nbUjUnIAeRxAUuQARvbZFqdmrNhQ67UiVN3QAEApFVHx2PTW5Q5zBID/m6K8z/xVkWbcq7V900b8VAS/Y1hZX6ngr1mhH3KcrwAqEeBZ2PLH2s4MWDxteLIRvg3ACirUtnafs3JAbdJ7d2LmIBu4H8Q18M1kWEWHujIAS0jMRJyZX5fNDQCwJTvtbkCeCiqujxthn6uWFdZqxcTV6emtHTHup2HbV0epwfhaRO5KX7WxXvpOqOrRAEApFdXuiZmfCpDo77QXd4KN6uKJU2bMMPveWf03AvcCCKn3J+ARQS6J6yN3FqzAqoYLRFYO4D+2Q37V9dUVn9bkxH3TRswFMNl7A4HC+u7uc1c+Xd00BGDxpOHjbMiP4R23X3lyHd+Bvl+bQL7gEMzstaB+RjlsG5XRwzaebQAuqWjW4D0DlxSe8ZwG61xD7xTKXwVoAl/SweMUbMrv0/M2/Vz7BTQMDQCUUlHtmpiZB8Ll/6JwWrFJ3ecuPXImaRaPHRtrGpe+CEEOgKCnewJAOcCbxcgNRnyFbYVyAM5aFPqRfAnBH6WJ+9Euz58+oDkwbfgQgVknAINK5/+VWHan6jyNF48dG+uJK7mJYv8Qwj7hpV3wrHwCHBIbL9kiL/Z9a/Xumt5YTeS5XI5mseUFAIYE8kEpGJCyNpMzYNfFNda6UroL7RcBDA1cA4A/4KEtr8d9bd86cEvNOy2qM2MaOgNKqXParopNQsTd9EwS25eT1ZxxJYshyAERmBzIV/iXkswxYq2xBCFj6gm6LUt6O8h+BO8HsBBAqT+JSv8Y9q/yMU1BPIyvHe+8n5M94rQZp/mdL9mK5gnKP05X+BePHdvs3cnDfyaxJQeM4BnA9IlSq1EC8GWKjOx91arOyW+u+r/6LvwBoEWsewZ9hT8AECiFyF11VfgDQGr+ur1l0ihdBI8i5Enf+ykIOe1UE2tVwbBh7erqmqp6tAZAKRXVrokZD5B8xPuKsAz693wjf3tt0tozaVQ7h8OziEC/sCp/ACgxlKmdZ69cdOCakT8DELQYEQHglc65y28KTq/4prHNYt1l40RwI8CxqOm8JsHT4BPPlzud9/d4eVGlxWz25wyfRDHzwua+P1ke4+kUbfKhopzRLWPcZfcB+J4ALSrPxe+tC7chu0g+7XHGvpCcu+R/Ncr/Gdo6Oi0LkCUATGA2P/KhqxYX/Ka+rrl2xOAc2+az8DUJhK1TcNBDz5jh+Vv21Nf1VSgNAJRSUe2e6PomKM/5vyosmMye81euPs1plRyY5rrMI2YxgU4RCv+vhebqbrOXrRCA708bWQyiW1BVv9i2XNn19RVRe40fyHG1cdB5qwDfQegkNhFI5QZn7479Arm5c+6Kdf7dH0+c2Lg09uQuAJ0Ch3mryR/vOnvl98KTKc5Jbw238wcEviOQQG1JWOe+U6CdC/DpXnPzC6rOa/3YMXJIUrnTuR2QNv4ymODG46WOYb7JnOrN6pFD+hgP5gDoFWE+g6M0Znx63voN9ZkH5aVNAEqpqAwk0FGOBDwGcTVNo3jKyBSPmAL6ClFfav7C/0uIjOs2e9kKAPjgmlEjwgp/AFhYVeEPAF1y8z/pOGvZHzseKe8G8gYQOyvV+4dc2/+fwC6A6Epw9fvXZv3Iv7s87tRDCMq3r8WiFDb+HJzi+1PT2+6bMvzPxuM8QOKnIJpGeL7aR8EPYiDtes1d9Y2GKvxlBozbGfMCUTGzI4GTHsqt9V34A0DGig27HI0wGIL5Ed5uJba9oiBz4Nj6zofSAEApVQU35ZPggszAY9Xk/OJpIyaSshxAKwDhw/m+oDC765yKGgUb9p3hnfwIPFLd6zE/333pa0tndrRbXAnhHRR8GN4vIDQgqBQIOCj40/vXZL1yMCd7gAA/qJQfwb/8Qwk/nDKy1f5pI//ooXMvyB/At0wyfNcDKBQsp81JPa7M7NljXt5fu7wRfVa9s2Hb+rSfAJIdslPkp4MWF56VhZQAYOiiDSeGDd8whZC/R3j7ElvMvPzMwTlnKz8XK20CUEpFtWdiRheh2Q94CzQxmNh7bv6b1Tl337Tht4vwKcC7al5Yb/+jtrFHd8/N2+I//sMpI1u5HfwIQKx/H4GCTrnL02ub/48nTmxsNyq9TygPAGge/n7E6XUr9rklqF+BeLuvn3Azprun9ERJbGzc98XGDwA0l6A6bG91Or4WyEtCPN7j9byi2ua/rm0bn5EKj70KvvsS70yGy/ovKhzdUEPxVmcO/j6BRxHUF8G3sJEbwDczV296uSHydTHQGgClVFQURxmAivWAPKzWd8Z7k0c8KML/oFLHPALAEQAjggt/ACg3vBWhhT+kBk//kbRbsOBkh1lLf++wHT0oqLRcb3BgguC6AO8vR/ATEkkI8A8nym6Ji4nbL4JfIRBUBI78lJD/c5SWdew+J+9b51Lh/874tHhj26+CQf+bCL+w4L69IcfhZ6za+FcA1wMIH47pAPDf/MxBt539XF0cNABQSkVlOR3lwa9Ju8omAMnJsYqnjnjCGDyM4PK1olw9bGy6IrXp0yAwn76v8H+nU+7yhWd6DwDQNnfRZx1mLcsBzU0kQnrb+5sHKl5Hn3bQgPeI4M8CJITd1wFQvhNjnerSbU7e7zu9dW7NdS8AbRvPSlgHSRr57hWLNtTbwknVlb5qYy7JUQDCm0csCv6Tlz74jNdaUJVpAKCUiupk2cmQAMCmifqdUTx2bOxe9+evQHBP5CPkkMBkdp67vNL49oPXjhoGoA9QUe4a8pG6fjLtOHPJK07afUgzv1L5zgib4WP2ifjQc2QnyG8cPOrp2W123hMdc9edqsv81pW3x6Z/F75ZDIPuZ27/RYXnTPV6Wv6GAhF7BICjYZ+7MZSn8tIH3dxgmbtAaQCglIoqxpKQXuG07YjfGQfHp8Uz7tQyANdGTkkOWMaZ2e31ZcWR37ZDn/AM9neUFrNqkeXTEof1FQVHwNAVB8KbA6KpGJwoj3TJXdmv6+zlL5yN3vO1tX1sRn8CfwrbfbisvOyuBslQFTJXb95mUbIAhM+vYAg8tzJ94LSGyNeFSgMApVRUtsM0CSkLxVRabrZ4qqtDaYxzjYDROusVi9uZ2Tl36YFIb+7LyWouYEjgQOGfmJvrqX3OIzt04+jBnnJsE4o34IgUBJxmu6JDBH988JoRv9589wBnXeezruyZNKwpKTMR1LcC3i52dw5ZsfFoQ+WrKsPyN20XsUbA21ckmMOAr6xMHzy+IfJ1IdIAQCkVFSWmaWjhJ6XBL4snDk8W4VoCyYFDQh+ed1soz+w+b+mhaNcwwI0AGgOBgvYTT+Py588w6yEkJ8f6+PrsBy2RAgA9wqr1Q4XXAkSvDLAEfLDl/1oU7Js2qkedZbYOlXjMkwB6huwk/t1/cWGd9K2oL5mr1+0wHkQKAmIMJHdFxqDUhsjXhUYDAKVUdGKHzP0vpqKn9rtTXGliYQ2AjlHOfgficHWes+ZwVZcgEFr9T/6tOgv0VNcnt2R3OWx9uQrEwwI4qyjQ99fyEoMJe+u+a7Km1vL8evHOuIzpFNwUtvs950nHjyKecI5JK9xURLHHAgifnrmRJbJgVcZVvRsiXxcSDQCUUlWQkADA4asBeHeyazKFS4GwTnF+xJZy4YjTrRx4MGf4AABXBe06XuZ0PHlmea5w+MbRt9oebgdlWFXZAHgzwDPpcNiEIrP3Tx35a5kxo8G/V3eMGzYQlSfZKRHa1yXnn371wnNFxpotW4VmMoCQmicBWoptFq9ISWnfQFm7IDT4/1GVUucwj7QNe13y3hTXtwDOBtAo8klcb3nsrN5zV5y2jdkW686Qfv7kE5EW5KmpgzeOj//ohtGvieC/EDQLGUxQsekG+ZcYT/nlEJkMSLczvCyF8tC+navnFt80ttkZplVrRaNTWgpMLkLb/SGCH/ZfuLZWCzk1JNeqDXkUuQlASJ8QAS61rPKFBcOGndEKlRczDQCUUtEZdgoun21YPxbBkwCs0FnbAla73SXZ1Znu9pNbsi8B5Mag+fdOeSw70tSwNXL4xtHDnVL+NiHXenMmvp8VBLKJsAd3eHXJD0uN4zYQ1wS9GdggZC6k0tj0KlEwyTpVmr9/0sikM72XmpIZMB6H4wUAnUMzxdz+iwueONv5qSsZaza/TsG3w/cL0K+Mpa/Oysmp0RTVyksDAKVUVCLoFPLwTLmhipH5q8ocMv6y+YVfViftkpP2dQAqnpRFnu366opPo59Rtc13D3B+dGP2DFtkuQAd/YV+yPS+gq9t8KftPS1S2s9cvu2D60cNBPin4EMC28SLl85aMfVU6alLQf4UwDFfPkMvHOHzEKC/OOx1e3Nc3Wt7P7Wxc1PazwCE95LfX14Wc84N+aupzIJN/xbiDxHeGt/q8PuR9qvT0ABAKRWVEYmytG5oqUfIIkdzGZOcW/32ZaHcEfTSDVp/jnrwaRzOGdunzfFWG2HjlxAYBJf+FVHAXNvj7tVx5pI/MDfXc2CyqwUFs+CrKg9dFwAb7UbuuwHgsvmFX3aatewPHqCLCP4gQGAoZGitQsWG95LsAo9ZtXeK6/La3ldNFI3NGAHwV2G7Sw3s6wYuX378bOShvrlWb/o/AJXWoiDkh3nDBt4R4RRVBQ0AlFJRCXnadnGCb5Q5Wk+uSc/94mnDkwWoGMolMjPaPAFV5g/gR9dlfddjeTaDuDJSuS/AB4Bc3X7m0qkdc1d+5D/PEet4DkCX4MR8d/QJxTM1/H665S4/3mX28p/aYi4X4K2IuamsncDkFU8bnhzpzbqyfcKI9raFVwUIVIX7gpD7+i4s3Fyf1z6bCNgny8xNFNkFhH7iNvDEyrQBQxooa+clDQCUUhG9nZ19CSBVVmELMOt44vFrk3NzK00QVBVDK3jon7g9Vo2rcA/kuNp8eN2ot2zwcRFp5K2aD6n09wD4a4ynLLn9zGUha89/dF3WfQAnw39GRUlSZhv3NH+gEEm315cVd529YoLQvhqCw/40ELIRIgE2lu+bMrJnxHfP0OYBA5yWuF+DIDF4vwDPXblw9VP1cc2GNG7DhhMeG5NAVHQy9X7uMSJ4ZeGQIQ3WAfN8owGAUiqimJjSfvA9UQY3ewdVlb/Y05lw48B/bymvfHZ0B77piqPILYHOg8Sb3ecu3VmTND7IGTXJMs53AIwNzpeI/59sNsLBHWYu/UFiWLPEoeuzhwj4h7B7ASCwie90nrlybXXy0DU3b36Mjb4imBlc8oc0C1RcoI0H9oo9EzO6oI7FJTV+BMCwwJW9v7Y0P2lV6jR3PisYNqzp6vQhfVZkDMg2lkknsCHCYV3jHO7ztrPj2RZ9Sgyl1EVt16TMewg84f+aCF0xD//p2d81nTNm2DVNd9+0ETcQfMWfkIEM6zy7eoXuJ7dkX1JeZv9FhHcHZ6Yia/IlwIc62C3+EWkq4UM5o1vC2FsFoZ0bAYENPNF51vLv1PR+AGD/NSNyxMbTAJpHCQD8wcZe8UhKrwX54XPd18rOienTxGYuAPpHO8DGUQc9A/osXHuwLq5xthSmpiZKjKerx7a7UdDVNuhKQXsA7UXQEUBTwHeXIbEOgkaieH/akJRRhVvXn907OP84Tn+IUuoi1d/7SxBSxAL/7DUv/17Oy6/txDl3BVIUrO78evUK/w+uGzmopNR+iUBP7xA9BjLk+/J/wzid93Z4eVHE5W0F4CHaz0PQKXivr9Fg1ectjt1fy/tB19krc/fmuLaJx8wmcAUQsfAHgO60OLd47NisHosWlUZOrXp2j0vr6RY+i8BHCQDwkOaGPgvXnJOFf55rQEKMMX1sMZdR0AOCrkLpBkFXG+6mIgB9kSbDR1vUAIWpADQAOA0NAJRSkQnSJOjpWgSAkb9c9saqH9V2md69Oa7usOHyFryERXnktNnIybEO8osHbFtmEPAuvFPxvAsCh0Dce+lry+dVlc6ha7N+CGBixZk+xMFY25lT06aMcN1z8/ceyklJKfE0+icFt0X7iARIQ8ypZwS4pbaf4+aJAxp7xOR6JznypQqANh/ou2jVstrdQd1Z5xraWSxeRkgf2LhMRC4Toje8/SGClluIdvs1/lj+B8qnFPkIMBvtUnmmtnm/mGgTgFKqkqJxrja05GMwuOafAsoaA7MCBvN6zc17u6bpFk8Z8XtD/NS39u72rq+vuKqqQvDA9a7O9DheBJAWvN+XJw+M/OPUqZKHTjf3wAfXj0wXmysR/NDjvepJsZHW+fXl22p6L1UpnjL8+wAeBWCC+xkE9xSg4MGe8/J/W5v0d07MeB6Cb1Q8JAsEfLbfW6vP6lC4tSkpjawmJtn2eK40QD+hXAFBPwFbVGQtNOAK7U8SuTo/LEj7VAT7QNlLG/ttykcU86kN+4hlzMdfX3LsyLhFe8+oNuVipQGAUqqSnRMzbzBAoJ2e/g1U9AUQyC4L5qnyGHm2OuP/N989wNni8+YfAGhDAGJ4Q/fZK2ZGO37/tJE3k/gHgOYMbegHgK2EubtT7tItp7vu/htGJllubgXQLni/t7+g3NAld8Vrp0ujNvZOdk22DV+C4JLQQk78//VAZNRl81fl1STdnRMy7wLk3yEFqcgq65L/ZSfnFtVoNEZNrB87pBlsxwDLYw8UylUivAJATxH/0ENBxGCnegHAJwLsEshegvtg2/soZq/b8fW+4flF583aBecbDQCUUpXsmpT5bwi8s8eFlL2VOwQa4JhNPhLbQh6rai6AvVNHTAEwx/+ym9Xqskgd9Q5MdrWwHdaTBrg+/D0CXwn4UGfGPx7p3HCSk2MdxLFlAIZXepP4TedZyx86XRpnYs8010Dj4VsAEsMKf79PPOXon7ww/5PqpLdrYvpVtrAQQFzQ0/8+R0zMkOqsvVBdmycOaCwlzv4CDiQ4EIJBQvSAiPHdBYJuByE/qw4A/ic2dsJIkUB2ClAUa7hzyIqNdZZ3VX3aB0ApVYkIRgEVvcsq+gKEdggEABuIp8gfyr7A3e9OcX2z19z8gihp3lUROPDRSAV48TVZLhF5geKdyjcs+Jjvdpjvdp+59FB17+MDHPsNIhX+kLmd+qT/Elhe3aRq5bLX8zfvmTQ8gwbLEHnZ5DbGIS/LjBmjTjei4p3xafEinI2Qwh/HAU4808J/+7i0nm63pBBIESAFpZLs7aLhfV+CuhmGPM2Hb1fsKAewQ4CtJIqMzZ3lnvKijDVbqlwaWp1dWgOglAqxa2L6VQKzBQjurBX8q3ItQGAvxRaYGb3eyPtNcNv+vpysS223Zz8AizCHpSSmS3Av+KKcnJg4+fxhCH8EwDDoq0mAjywj93bOXTm3JvdxcNqIiULOk8rfc++cpGdYTaYtPlO7J7s6G2AZBN0jV4fLD3vPX/WXaOcLwKIJGfMATAwqaMshHN93Yc06/W2eOKCx8cQOhNukguIt8IHW3qf5oF4K4XM/VK69gHg/3FIBdgD2FtjYCmBL04SvdtRnc4SqGxoAKKVCFI3P+A2In/tL+OoGAaHHmZc+/sK+bXh+vhsA3p06YoYR+SUACPCTnnPzAgvwvDclq7eh/TL9ww4r0vQQ/GdZecmD1V1gyO/gtKyuNrEZkPjQd+QzOOzBXWbmv1+T9OrCrqnpbY3HWgngMiD4iVkA4JTYckWfN1cXRzq3aGLGT0XweyBQMAsgt/Z9a81Lp7vu5qys5pZVmgYjGRRk2JABEO9oitPMWYCQY7wHlNjEOxRugW1v9RhuiTlWtnNZthT1AAAgAElEQVTgljMbQaEahgYASqkQOydk7ALQ21u48xSALwnfNLOn6Q8QHAQI+EovZ8KtAFBc/vl+EJcS+MLjKbv0svmFXwrAvVOH30PwUQCNgtMgsE3A6d3mrNhU0/wf+KYrDl9bhRBc5d/nK8TKAGR1nb1iTU3TrCt7Jo1qR5avEqB7hAK3oPeAVZmcgZCmgJ3jM4eTskwAy/9UTvKBy99c9cdI19g80ZVguT1pBsgU2JkC9oOvo17wk3zFa/+uiE//e21gHYn1tGXdV+7YHf6gTp3/NABQSgUUXZ3eRzwsAvxV+lzYZ8CqiTu3uq6yYF8N4T0gWlUVBFScC0DwCGhWE7LQd+Bve85d+eD+SSOT3MZ+lsQ4hI41/ErIX3541PNYbQua/dNG/Btg5eVvBXd2nbOiwceHF03MutTQvQqQzkCltvPv9FmwKjCV7Z5Jw9q5bWsrgKTAccRjfd9cfZ//mOKxQ5qdNLEuCEYC9ggRJCPou/20w+4Cx9hfE9wskLUiZr3lMOuuWrTms7q6b3Xu0QBAKRWwc0LG74H/Z++846sssv//+cxz00MggAhIETEIhE7oLQlNAoiKZHVd2ypiQf26NnR/62arZXft4OJaUdc1iCggRXqvIi0UQVBQaVIEQtp95vz+uCXPvUmAJDcJhHn7ekFm7jwz57lqzpkzZ87BOH+HYFybL5b4C/Vsv6ZXDVtcD5B4gvAloTmjESAAdwNoTuC0Ylgz0e5uouRNv1fB/wCnK0uNbT553t6yyr/n+tTbhXwnuF+Al5tPmV/mTH+h5puhva+wLWuJAJcBcCrlo8rlatFq6vwjC5OTXZfE6gUA+gD+8/bJJ6ILbos7Hd5dIP1F0F8gSfAFdJfuHP9bCFZCuEqLvcLs7i8+jAFgMBgAAAuTk111Y/ReEg18fRrs2W7G4pXBY7el9W4hLusTAm09PWfxBAAg+DZE8kGO8TT9Y34UwUMtPls4pTzy7x7Zv51AVgKIDvroy71H9NDzTbltG9G3rQiXQFALKNyRU2R86xlLxm4e3vefFDwC+BW5DWC5QLoAiDqrGz/gQ2gR2SSQxUqsRQr2ivZfrjhUcW9nuBAwBoDBYAAAbBnWb7iITAP8ijw7d392fEkBXuuGd46OYey7AEZ5es5gBAAA5QSg4hx9mpAJyIv6fcKsWSfKI/u3owbUhK3XAkgI+ugbV15+96ZfLDtWnvkriqyh/fpQYY74YiA8d+bdAP4E4M8ISokvQVo/0I3vbMEGsEELFlvEIiosa3eefgeGqsMYAAaDAQCwaWifzwiO8LWVwheJ05cMO9Mz6+7uHBZzIHaaAFcH3Rk4ozcA4AaAY676bMGa8sotAL8dmfoJBNcHfXRcWdL9iskLd5R3jYok65p+oyDIDM6YBwS68EvMtOcZ6BZiPSGLta0W56n8pd1nrS6XUWWo/phEQAaDAeuv6dUQNoZ6SvR4tLQt+OhszyW98VXBxkGDbgiLyFsgRFcWOrI9Z9YOI8CrvLIVkPHjL/JSyqKFIXHJf3t9/99By/VB2xlbKDeer8p/36geUSdzIwYL5HoIhpdB+RdAsI6UxQIsjgiT5aW9KmkwGAPAYDDAVWA9CIrLV2WPYLYVpc5YXc9HWGRBMgSNissYWHhtzTdafjlx6amXUz7/KiTKf+d1/XuI6Gf8S/ogH02YsnBOKNYIFeuGd46Okdj+Qow6kYtrAakBoEiufG+Xs+VT/rshnAel5xXkRX6ZNG/eL5UjuaG6YgwAg+EiZ+OgQTHCnNH+bK8eI+Czs2XK+/ra5Frhtjwnou8GAtMGe9qB3gBPDgE2jD0Qey2AyeWVe/c1/S91Q0/2lwj2IsB7LT5d8FJ55w8Fm4b2jne51HBqDhMgTYiYINf9mZT/zwQWasg8l+g5rWeu+L4yZDZcPBgDwGC42HHl3gWgtldHe4wA0R+e6ZHNQ/sMpa3/A0ED3/Y+4HkAQtgU3gXK7wC0hXhMApIPoJwGwMLkZFeBZX9E4WVBCnRZQVjdu8szd3nJSkuub7lwrYaMBJAMDZegyJm956/AR3MhWC7AXFEyt13npRuCkwIZDKHEBAEaDBcxC5OTXbWj3d8AbObrI/BN265LWxWnfNYNGFAzIjLvRYJ3OMYHR/iBgAjlrsRpS97OGtGntRK1Fv7reYTS7HDVjIUbyyr3jhHJz4Ac5/wFJsD3FsO6Xjn1y0q/3rY1LbUpLH0dKCMB9ASgnNq9pF0/ic0iMpfamptjnVySNP2r05UmtOGix3gADIaLmPhI+0YRNAME9O3kBS8Vp/w3D+87CHb+mxA2RtHgPm/OH7834P8Spy15GwASP1+6Neuafi8TeBLwjLOVjAFwX1lk3n5NyjWgPBF4652nQIyoTOW/7br+LaDt6yEyErA7izP8wUsxu/5jAs4BZJYqkLmt5yw11fEMVYYxAAyGi5TMUaMsnNr//3xtEQHJo7CjJjnHrRveOTpMYp4RLQ/QayUUDe7zHgGIAMLfJ36x+BXnHMpy/Uvc7rEAanhjBK4V4H4W8YKfma3XpzaFrd8WCfA5iBB3tpxado/CuZI1PCWRkGGkHg7b3QsITMRTzI8AZDcEMyhqukQfXtLGVMkznCeYIwCD4SJl/dW97iT5ZsAvAeKvHWYu+4OvuWFovxQl+m0AlxdXDdD3o68l4DNtZyx+qrj1tl7T93UI7/E/ZqmkVp8t/Opc5d2TnByZWxMr/FUDfQj+0HLaor+e6zylQQB+c21qFxF9vYiMBHClt98/IGg8AORDsIRKZtgFrhltZy34tiJkMxjKi/EAGAwXIVmjEsPzT/IPvrzw3p38Sbflehnw3gwIy3mWou/3O/YLg/sAR74Af255Ja+2nb6kWOUPALZWHyvKPYDXYHDbwwCcswGQVwOvQtBRvBN4V//4qmmL/nauc5wLMmqUtS3vSC+KPXIHcZ1ouzEQ7M4PegY4BOALgfrCxfwvW043d/IN5z/GADAYLkJyT8SPVkRTX1sEoMLLSdMX/bzh6t69NU+/S43mzgh/wBHl788X4O0VeafN9KUP4Qy0SVq0ZOtX/Q4BqCcARHE4PClvz8q24cm3C+Uuf4fHCtlwSmr8trTHCMWx7u7OYTH7Y1JAjtyed2gEgUuFJe/0vV1fC+UL0prRuuPCtSZi33ChYY4ADIaLjHUDOtdUVuQ3IOr5a/IIjouWRFh8RBH/B0D5xtPp40fQLw3Pw5nboxv8On3yZPtsa28Z1m8yITd4nqWEu/WlCWcpObv9mj7tNNQq+PLle5Y9DMWurT5b9N3Z37h49iQnR+bF6UEaHAlgOIB4/4fFKHy6XLbr0gY78n/c+4rbrb5oP2vRD2Vd22A4HzAeAIPhIoOuyD9CUM8btec9AlAraGEBgKuKpvD1+PhZjDdABDMKDub8Jv2rsyt/z8N6uZAeA0CEeQqdAJSYsW/7Nb1qaFGZcCh/AAUQpreaVnrlnzUqORa5Oo3kyBxIGoSxZxrPqGip0bUna/Toi9hOXS0VGXkpyYmlXddgOB8xBoDBcBGxblCPlhCMDUjaQ0Cg0+jY2xdm7oOjTwK8AULMj8u2RjUroVpgcSjheu30JvDMBoAW10QBrgrqfqT1jEWLznXNTUN7x7uohhMcKbkyCGBkCcF7AAArJlZqdOvNGj37IrZjFzIsINFgbRGJJJl7rusbDOcrxgAwGC4iBOpFX+rcwvrz3s/o0fqFafsDAgS9XV5vANQq12l1bbNFi0qlCJXL3mXblt+4ELJjSWOzhvcdIyI3eYT0eh+ISW2mLX71bOtsu65/HSkoGApylACDBAg/U6CAVSMOsUndEdcrGbGdupCusJKGEsClAExaXsMFjzEADIaLhLUDe11DyNUidF6iLxAgrNAb4D0SOKM3QL7WEWpI4qwz1woojqumLd+/ZWjfbIg3J75Ip+LGZaUldxDRhfn8PdnzVkW6Y0pM87t5RN/GSvM6ACO1290LpFV0VGE5PVeteNTo0RdxPfshum0H0CpmePE0gDEADNUAYwAYDBcBy67pVYO58pqn5a33J4CAT5NyswBtgGBvgMMQ8F31I7YK1OBOny06XhY5CMgmyC4C7T0mBa/YOaRbXIKjdv3OId3i8pTOBBDpeHB/GO2RCTNm5Tnny7om+Uqx9UgQ18NGF/GXIioeV+06HqXfqx9iEtuDSp1peEk0LMtDBsP5hjEADIaLgIgc/XeBJ4WvL5RPgFW7azb8x5UnforyGQBFC/oE+AO+FbcM7DR32Rmj9s8GBbuEaO8zKXLDwi8HsMn3ea6KmABBguORAi38VZsvlv8EAFnDeyWKtoYBGC5a9zrbXSZXnUtQo3tv1OiVjOhWiaCy/AGNZaRBeR42GM4XjAFgMFRz1gzq0RNCT959b7leAjmieHv65Mn2moE9p1rk047NPgBnkKBAgH1E2IBOcxf9VF55BPg2IG1ugb4MXgNg49De9wnk5qBsg/cqYc6WYX2fgeB6rdHCOVlxuC6phxq9klGjRx9EJbQESI/S99c7kHM1AvIBhAf1GQPAUC0wBoDBUI3ZOWRIxDH38f8IoAKC+0Se6vLlih0A0HXuig3rBvXYA1HNAhLse4dTcNAiBrafXfY7904E8mNg5UDVCAA2Du/TiTZeAAqzDQI4KcAfSLtpoLIvqrxVjTjE9uiD2N6p3p2+AklnzkLP+mdW/ocArAGwDMA8ABEAlgeNMQaAoVpgDACDoRpzrODY/wPY2rOL9+6rBQuTeq98BfMcA8mpEPmdJzCP/sh/AkeFalD72Ut3hE4q/hjU0WjdgAE1YedlChDhPIIAUINADX+X04oBwIhIxHTtidheyYhu1wl0hXlkL6xsCNJ/sFF4xFHIjwAWAVgCYAnJ7c4PRSQKgBuBvytNDIChWmAMAIOhmrImtUdP8ZXgLazZe9ii+k2RtLW2mgqlf+dpCLw3BU7a1EO6zF6+CaFE9I+FSYQJgI3CIvLehKC5V8oiOPU+XWGIat8J0b36ISapO1REpMO9H6zsg1S+yH6QywDMI7mcZNaZRCWZIyLb4Y2R8FKn1O9sMJyHGAPAYKiGLOvVq4ZQvw/AAgrz/Yjwjk7zlhc5x+/ce9mKdSt6HSCkvqdHTtsiw7t+uXJNqGVTtvWjbXnsD/H8kw6NWMARbhi0TRcA4Vdehdg+KYjp0ReqRhwIBuQoKLK992z/d8Pjwl/mdrvnRkVF7SmDyOsRaADUKsMcBsN5hzEADIZqiCtSXhHgCjjS+grwUrd5K74o9oEMCAbqrwUcAiJfUUZ2/XLl4oqQza3c9QHl1NX+dLziuKcPAK669RDdOxkxvVMR1qAh6Avm8wYn+nf7ha5+AZApIlNFZElMTMz+EIi8AcCtjrYxAAzVAmMAGAzVjBWpPa4D9O2eFr3KkV/Fxv8yrrjxq/p3u3Stst4gMASALZq3dJ63YnYoZdo4qG8zsXQ6BLcL0NKfV8CHI9EQw8IR2TEJ0b2SEdkhyXttr3BokXP9wDZFcAOJBiQb5+TkTCnjrt/JzqC2MQAM1QJTDdBgqEYsT+3ZVEGvB1HbEWd/XNvo0nPRyl3B49cM6J4OcAKAOiA1gNu6zl3xQShk2TiobzOt7BtF8CsQ7Qs/YdFfPFSISGyLqF4piOrSHSo83BupT++u31eMiELyOxLNCj9HoWeA3qiCwrYQWKqUeicsLOwTkqXOXigirQBsDeqOJZld2rkMhvMJYwAYDNWEmUOGRMTnHVsKoIu/k3ATktZ9/uq5zrFLh/aOD8+zxwO4yTMMIpT7us1d9e/yyLB+YK+GopAO4EYA3QrFCMLboeLrILpPKqJ7p8Cqd6n/XL9QmRdpf1u7dvyVx48f7yzkrQq8kUS9EpR/QJvkSQDvhIWF/ZPkvnN9JxGJBJANR4lkAI3IIrcZDIYLCmMAGAzVhBUpPV4D5X7A4U4Xub/7wtUTnONW9e82EFBvE2jkHyjyRLf5q54vy7qSAbVuZfdUwrobgmvhqy1Qwm8XpRTCWiYiqt9ARHTqCuWySlL2RdpKcXJ8fHy6f22RsJMnTw6BUndTMISE8hsAwd4B+H/OJ/mhZVl/PFdDQET2Amjs6GpzthsEBsP5jjEADIZqwLKU7ukK8jEAZ/m+13ouWPWAr7GiR48oK0b+KILHACjf//4Uyei2YNWfSrvm+oG9GmrILSDuAXB50RGOfH4ErEvrI7Jbb0T0ToGrdl2/a79Q2Qe3izUGxtWuXfu54uTJyclp6na771JK3QmwQaDyL9YYyCH5olLqOZInipvTh4isBNDd0dWbZHCCIIPhgsIEARoMFzhL+3dtQS3/KczcJxDh3HxEPuwbszKlezdQJmmNFs56AABfLo3ylwyodcu6p4LW3TbkOgCuwNzBAVUDwbAwhLXrjMi+qYho1QZQyhEBUFiUyJd3WARfE+wYeJ2vcFIRWV+SbFFRUd8D+IOI/Dk7O/smpazHASQWHzToeQTAU1rrW0VkNMkzBT4eC2qbQEDDBY/xABgMFzDrBnSumeN2rVREK0f39nzJ65GyaMPxrFGJ4b8cjc2A8HF6cwL4IGVit/mr72WJGfWd6/RuomnfBcFvQVzmncHxZyBW42aI6NMPkV16QcXEFLvTdwT5HVWKH9q2/XajRo02HDhw8DiJmsUEAWrLsurWqlUrWBkXi4jwdF7eUCUyjmSvs8QJCMk3ATxcXHCfiHwI4NeOrhtJfnwuchgM5yvGA2AwXKBkjhpl5R7e+xGBViJ+V/t+bemhKfM2HF/Rt0fbX37WkwB0gEPLexX2B936rL6P88+s/Nf079lFE4/YsEdCPL8v6H/Cs6g/q190NCKSeiCidzKsJpd7lGzJewytgZUKnETigwYNGpwu/Eh+BFizmJx+W89V+QMepQ5gBoAZubm5AwD8AyIdirlT6PtaRgPoJiIjSH4XNF3wusEFggyGCw5jABgMFygNDn3/vBBDfPtwERxVWg3eX7fJ98tT+LjA/jPACMBzLOAZRggwNU9H3lEkHbAXyYBatbj7MCo+oiF9i2TTdYylAFbjpghPGYDwTt2hIiIK9avTte919VNhr4h+17b1O82aNfuuhFf7SYDWhXl9PAl9FbCiLN8TAERGRs4Tkc4FBQW3APgLgMbBRYG87XYAVonItSRXOaY4HjRlRFllMRjOF4wBYDBcgCzr2/U2AX7nL+8rchrkCFJOXnb4+/kC9mNxSlvL3F+iat+UNmuWO3jOmUOGRNTKPf6rVUtlHBVaOX0GfvvB94flQli7jgjvlQxXq0S/a7/Yc30wXwFfkpjUuHHjqSSLrB3EyYBzf3jsAIGUK+iOnjwH74nI5Pz8/KeVUo/Clyo50Bi4FMA8EUkjuaSE6YwHwHDBYwwAg+ECY1lyt95a5A1HgZwcoYwA2doWPQtgLAA4Nv0+lkTUcF+bNn1WnnO+Vf27Xaqh7mfesXtB1PVn6fMH9RXu+VkzHmG9+iG8VzJUzVqeMcUoa297s5BvRYSFfdCoUaMjpXhF52z+v7TWZfYABExOngYwLj8//zOl1JsiSCymOnAMgOkiMojkahT9XWkMAMMFjzEADIYLiKW9u7bQWqaCCPeq5RyCY0TwMEXSxLvrdobniQAiWEO3a1jS9NX+s/alA7pcoTSf1FpuASUiKEbA7wAQAFbzBIT1TUVYu86gywWSnr290KGuBRSeoMJHSvHtK664okyFhLQGlfK6/v1H9PJDvXr1imQyLA/h4eGrRKSzbdsvAbynmCFxAKaJSBKAsODHQymLwVAVGAPAYLhAWNKn4yWaMgNAXXo0fR7IjwXyAoC6AAqVdqAhsDncJWndFi8/CQDLBnRuQtv1CGwZAzDCs2sPiBHw/OhywerQBWHJA2E1buKIlfM7+n2iiUCWUfBmbI3YTxo2bOgI6Cs9pCif38ERBLioPHOWvBbzANzrdrtXkXxdRKIY6A6oB+ATeAoCOTExAIYLHmMAGAwXAAuTE2NFu2YCSAD8VfNOUHC702EO+I/ePX3EjjALA7vNX3NkeWrPplrs38ON2wUICwiA8z0rAtapC1evZLi69YKKifVuwX3BBgGxffupMElEv92qZatvQvi68YVHCT5PgCwK4fxFcLlc74nIRhGZBaB+0MddAWctAwDGA2CoBhgDwGA4z8kcNcrige8+FCAJCDjTv0S8B/YEg0/OAWCfUq7BeQUF4Uv7dXtZa/fdBCKdRwPO+Xh5c4T1TYXVrqO3Ap9vF16o/AFogSyg4I3TOac/S0pKKgj1+wpQzxFH4DFORBaGep1gSG4QkX4A5gNoFPRx8I4/+EjAYLjgMAaAwXAeIwAXH9zzBsBr/H1Fg/u85+8A4Nuly09QuEXb9uOKvBOQCJ8ed8YIMDwCKqk7XL2ToS6t7wjzd0jgPOcXPbZtm7avV9wbAxDULXRjEAT21bv00t0VuqYXkt94jYAFAJqeYaj53Wm44DH/ERsM5zELeyU9R43f+lzhAapZgo0Az58UaIDboTFHIJ48AIGDgJo1YfVMhtWjNxgdU7jbLzmi33fu/3RWVtbHiYmJRyvifbOyssIBxDuS/wBSMef/JUFyt4gMAbAKnkDA4rArUSSDoUIwBoDBcJ6yoE+XpyHyGACfH9y7GXcmr/H8HWQIKEBSAz0C3nH1G8DqmQyV1A0Mc6FIrr2gNsl1AJIcdkB9rfFPAL8N/RsDcXFxTX0uB58BQlXx7v9gSG4TkVsBTEXx2Y7PlsvAYDjvUWcfYjAYKpv5PTs/AJE/AUGJ+sWTtEaCMvh6r/ohaKhnnAjY9ApYt46G66FxYLeegMsKuOYH/+X/gPbanJyc/gIccH4O4vasrKz+IXxdP5ZlXeGXwfuH1npRRax1Nkh+DuCdEj42HgDDBY8xAAyG84z5vTrfBeJl8WhwAD5l7sCTGe/MhoBlgR27QD34BNSYB8FWbSB0RtYBAmSXoPw1ibHdu3c/IZC/BC1OEUxct25ddMhe2ovW+opC5Q8A+L5+/fp7Qr3O2RCR1iIyBcAdJQwxHgDDBY85AjAYziPm9066CSL/hi+Uz5dWFwh05QOOq37i7fMq9/BwoHNXoHcKWLuOf+7C63sCEMsBNZ5gS4g8XbT8Lt/p0KHDGgCwCwr+o8Ii/g9AgiP5T/PIyOjXAdwW0i9AqSud9wxJVanufxG5XGudISK/IWmdYajxABgueIwHwGA4T5jfo/Mo0TJJxFm217HPF2evo+ltSGQE0KMP+PCTwLDrwfjafneAd+xp0fKm1qpj9+7de8fGRk8R0aOd03jHHwP0k75+z1U//ZQ4PAUAAMqtWVnb7g7V+3uWlzYOaSrN/S8il7rd7le01jvgMWrOpPwB4wEwVAOMB8BgOA/4skfnUUL8F97/J4sG9/mMAAbc1BMAiIkFu/YEevUFIqMgLFKEdxfB17XtfqdPnz7+srYnT578Faka+OYpDAKUJzt16nzYOUH79u0/2bhp0+cARhSOBwB5eevWretat269PgRfAyho76wAiApOACQitfLz8x9zu90PkYwJrhDoGwagAIHJf4wHwHDBYwwAg6GK+bJHx5sIeV/gcTkHX/UDSjAE4mtD+qQAnZIAV1iw0tcQzKLC+F69es7xVsILgOTDnhkDkv0s7NSp0xvFyemyrHtsW/cWoI5jfKQIJ2/atCmpXbt2x4p77lzZvfvgpYD7Ur9Mgt0NGzb8vjxzloSIRObl5T2Qn58/jmRtb19weWAhOR1ABoB/w5MR0IfxABgueIwBYDBUIXO7d0oXYBIAy++up7OUj4cAQ6BWPKRPCqRTV0+gH+lMCnCUwNuKeL1Pn94lJs9ZsWJNfxHp6E8g6LECTgMymqQU90xiYuKBjRu3jCXlI2dyIFCucLnCP9+3b9/gxo0b55T1u7Asdztn3AMVFpV1rpIQEZWbm/ub3Ny8v5BoUtgfeJUSwAySGSS/8j4XnPEwDwbDBY4xAAyGKmJO9043C/EeACswuK8EQ+CSerD7pgBtOoKKgM/V7wnaWy/C8RERYR/17NnzHJSw/qO/nI9f+/H3SUmdvz3TU+3bt/nf5s2bRwC40bO0LyhQ+pw8mf2RiIwkWSb3OGm3Fyh/8iEJcfrfU6dODcrJyXkeYHs6Mhx5Xt/fnmnbKiM8nGuDHs8Pap8IpWwGQ1VgDACDoQqY3b1TOoB3RWAVOdNHoCGg612qpWc/Je07glRgYUGePAg+Edjj+/cfsPJc116+fHUqKX3gW8NjaKxMSur0yrk8r7W+SymrpUA6MNATMGL79u2vAyhTYCDJdoUtgdahOf/Pzs7uKCLPkRxYUsIjEcwBkBEWFraqhGmCDYCToZDNYKhKjAFgMFQys7p6zvwBWIXBboFp+AWA1K2Xp5MHREirREWlvOfTAgH3KXAiIW8OGND/YGnXJ+WPQYrwtFL8bXFxAsXRvn377K1bt15ri6yF4BLA77gHwNHbtu042bJli0dLOkooCQHaOzbmOxs1avRDaZ4P5tixY00ty/qL1vpmksoTVxDk6xeZoyzrz2FhYStKOb3xABgueIwBYDBUInO6dbxBAM9VP3/CW8BpCKBmzZM6eUAN3bZjBBR9gWkiWhYK1PjISNe0lJSUMgWhLVu2LEUgfemo6yvEY0lJSdtLM0/r1q2/37Rp6w1UMleAcEccAUj87ptvvokVkXvP1ajIysoKh6Cl40xjUenerJDjx4/HA3iKVGMBRPo/cHr9RWaIWH+Njg5fc47TBv+uNAaA4YLHGAAGQyUxu1vHkRr4iL7/73zX6n2GQGTUcXfKgBjdqWsNUvnS+J8kMMl2q/HDhg3cVp71RYTLVqx81nnuL8DM7l26lKm6X7t2rZds3rz5JlJ9DKHLWTQIwrt37NgZu3DhwtvOxViJiYlJBBDu8yWI5pLSyrNnz57I+Pj4sQCeAhgfqPEBUjTAz0TkrzExMV+Xcvrg35XmCMBwwWMMAIOhEpjVpf31Io9+PvsAACAASURBVPIRSFfAOT8AcbkOu5MH0U7qWpeW5XWlyzYC490FBZNGjBgREmWzdMWKXymwq0P5H1KQ35bWVe+kbdu2n27ZsuVWkO8DsByZAkHi1w0vu+ySrKysG89ePVB1DLgBQH2uO3OIiDp27NivAfxVRJoCRFCQnyYlUwR/i42N3VLGVzUeAEO1o7gqVwaDIYTM6tL+eiH/ByDMH9dPAFRH3F26/Wz3G3AVwlwgCYIgOX3YsLQR5VHMwcycOTOiRlytbYQ0Iz3HCiSu6dGjx/RQzL9ly7bbqOQtkpb3HbxGAEFwF4kRCQkJW0t6fu/eva8BuN9zs4FHGzW6rO65vP+RI0cGAngeQAfPmr7vECDpBvkRgb/HxcWV6ogjGBHZAKC9oyuaZJmvPBoM5wMmFbDBUIFM79r+OoFH+QP+BLe5iI79R84jT8a6UwdfJa7grLP67VAqfwCIqVFjLCDN/CuAE0Ol/AGgTZtW7xG4AYLTgD9dke+FrwSwcteuXb8q6XkR6ViY7phrz/b+hw4d6nDo0KE5WsuXItLB/6jnjwIAb4lIy5pxcbeWV/l7iXf8XGCUv6E6YAwAg6GC+KJr+2FK+D8BwgoL92Cem2yX88DDH8JyRQRU8/NU+MvPycmZF0o5lixZcgnB3zvqAuzIjol6JJRrAEDr1q0/A6Q/gMO+heD9QYA4Efxv165dk3bu3BnnfE5ELAHa+8aTUqL7/8CBA80OHjz4vgBfARzkqF8I0cgD5HUACbVq1bqrVq1aZ8xpUEqcBkC5Mh4aDOcLxgAwGCqAmZ3apUIwGZBwABDgqBaMSVu9YdDw1Rt2ilg1i1H+AGRTenr6qdBKw+cgEu9dpoCQWwa3b58d2jU8tG7depXWdk8INvv6ggoZ3UKlNu3evfsaX8f333/fAoIY32g3sDp43kOHDtXfv//AqwC2C/AbSMDvrhwIXgF089q1a98XHx8f0vTBIhImIrGOrgOhnN9gqCqMAWAwhJgvOrfrphU/E0GkAALK+1pbVw1bu+ENX0VfEanpf8CpIcldoZRl8eLFPUXkdv8KxJ969eoVnOUupCQmJu7Kzj7VncS7wRUEva/aVASf7969Z9r333/fGkAn36cCIMKy/B6APXv21Prhh5/+5nbbuwAZCyDc4Vk4BeCftm03q1u3zkN169b9sYJeKR6B8VKlzr1gMJyPmFsABkMI+aJz27aanEmgBgQ7lZZ70tZvWhA8TpQOC7iLD6+G0QiZAZCZmWmJYDzpz667bP+PPz4bqvnPRFJS0mkAd2z/5pslELwMoEZhsiAPAhluaz2U4D5Hbp49DRo0OPzTTz9F27b9AJV6goD/Sp/3PU6J6FdtW7/QsGHDnyvhdeKD2sYDYKgWGA+AwRAipnfokKChvoQgSsA/qV+y2xan/L348+U7jwJEEDL3dd169e4H0MHbPCHavjU9Pb1Sy9i2bNHiHa3tdiLak9ffERfg/UsBaFpY5VDW7927917btneBfBZSqHwFyIbwea3tZvXr13+qkpQ/YAwAQzXFeAAMhhDwWZc2jUXruYBsJ3Dv8HWbzxZ5bnvy5Th2xQKIkpCUmZ0/f35TCv7q9y4QD/Tr229PKOYuLa1atfpORPrv2rXrHgB/B6SW776/L/NfYZvXARjpLQfs+/w0wH8r8rn69S89VNny27ZdWynlLBdsjgAM1QLjATAYysmn7drVU7b6gMTTw7/anDr8q7Mqf1iAu/ggQATfCSw1njL2aiKAGp4VmNmvT59J5Z23PJCUhISE1y1LtRRgkvOeYGCQoChHOweQl/LDwpo3bNjwkfr161e68vfSUEScbeMBMFQLjAfAYCgHmZ0711SSfzMZPnL4uq/O2SXtdvOosvw60L/dVcJyG+ULFiy6jcRg7wb6B0vhnvLOGSq01kLPNboCAOFBO32fJyBfgImAfrZx4yY/VaW8ACBko6CMacYAMFQLjAFgMJSDmgUF7sGbNr9Y2ucsSx+UYoIAReSS8sizcOHC+lrLC+LJhqe1jdv6JPep8nvrWVlZsVZ4+P1a5CmCcZ6SxoFBgQ7ClIKcOHGyss74zwhFGgdUEDQGgKGaYI4ADIZyMHjTpjLdp7dt2+/ODjgKgFxVHnlsW78h3qA1Cl/o379fSUGIlcK6deuit2/f/oTL5fqeIs9C4E0C5Pd+nPT94HD9U0QerBEXt3Tv3r3NK13oojTy/eA9CihXmWKD4XzBGAAGQxWQnp6eQ+Dn4DgAAC3KOufcuXNHAxjubW7Mycn+f+UQsVxs3769xrZt28bFxMTuAfisALUd5/wiwGyIpJF41qH8C7yf+9pdSa7/4YcfbqmKd/AhIo28fwPAEZK/VKU8BkOoMAaAwVBFaEFhZTpvEKAArRcuXFjqo7n58+c3B/iCV8fmEnJzWlpaXsiEPUc2bdoUn5WV9bRt6+9E8AyAeo5kQCdJvGbbdquEK68ccuWVV84SkU6+nb8IniIxToA8h10UJ8CkH3748ct9+/YlVPb7AADJRo4YwCq5SWEwVATGADAYqghCPAZAYNmbuGPHTvYqzTyZmZmWbev3BIj1zvdEampqVojEPCc2btxYb/PmrL9Rqe9E8CcAtT2iCCD4EZAnXC6rcUJCwgMtW7bcAXhuKwjQ038aIGpR06ZNn1NkEsCvHccEADBQKbVp//79f9y5c2dEZb2XiMQJEOevOSCyu7LWNhgqGmMAGAxnQEQoIhVSNlsEW4IuwwECWBbTSjNPzZrx4wTo5Z10Tv/+Ka+GVNAzsGnTppYbNmyaSKrvBfIUAH+hH4FsIXCH1vYVLVu2fL558+YBrvM9e/a0BdDA2zy+d++3GwCgSZMmWw4fPthNRP4sKDwWABCpRTJiYmK37t+//1YRKfeVybORn5/fGIFXAI0BYKg2GAPAYCiBSZMmxQCeO+wVMb+IvRQIDgIERPQ152p0zJkzp69AMrzNn23bfUdFyetkw4YNKV9v2DBda9lK4m4BIuF39XMRiaGtW7Vq16pVq3cTExPzi5vDrfXgwt2/np2SkuJPgpSUlFTQtGnTPxJIArAKCCiZcAWA9w4cPLhl//5D6SJSYb/HLMtqEtRljgAM1QZjABgMxTBhwltXARWn/AEgPT19q4gU3nMvjANoOW3atMFne37OnDn1tOAjeK/zEnLP1Vdfvb+i5N25c2fE+vXrb/nqq6/Xa5EFEAyD9xo/IDaEkwHp0qZN65TWrVvPPOt3pzHK84MAwPTihjRu3HhTo0aX9dLkWIgv+M4fJNiSlI8PHTq04cChQ3fu27cvKiQv6hRRa78BICLQWhsPgKHaYPIAGAwOMjMzraNHj6aS7uW33nrn6QpfkFwAT3nbgLTAIupxALNLeiwjI0Nprd8HVUPvA58MHDRoSkWIuHr16mZKWWN++eXEb0FeQgog9NXHOw3R75DqhXbt2pyzcty1a9eVIugCAALkEPiipLEkNYDxe/funepyuV4W4AZn8iCAbSl4MyIi4rnDhw+/5XK5JoSqJLCINCEJEYAEXC6XMQAM1QbjATAYvLzzzjuRh48evaF27doLxowZU/HKHwChpwdVzPU2dMrnn39eYjBg165dnxRwkHf8EctSY0Mpl4io1atXD1u9eu0XpNoF4AkAlxTKh8MAM9zugqYdOnQY265du1IpRtuWWzxTCUTj0+D4gOJo0qTJTw0bNhwlmqmAbPQH5hUOqQPgcbdtf/vzz0fmHzlyZPSJEyfqlEauYEg2caziBrCvPPMZDOcTFRLcZDBcaLz44ou1wsMj73C51GtjxowpqKx1MzMzo5Ry7QdRkyQIegrOECC5Iz8vt2N6enqO85mZM2f2E3A+ScvjMeAtQ4YM+iAU8qxevbqZbcstSvEOkJd7RPHJRJD4FqJeAOx3vSV/S83ChQtdl13W6DsQl5GEIgc0b958fmnmEBFr//79d1GpvxC8xCOeV0ZPFkRfu4BQ85TCpyIyLz4+/rvSrJOfn78YQF9vEaAdYWFhLUvzvMFwPmMMAMNFz6uvvtpQKddDtl3w9IMPPljpd+c/+WTKmyDv9BkAXuUPr3J85Zprhj/kGztnzpx6Bbb9NcGG9OTTnZGWdvXwM81/NlatWhVXoPUNCuo2QvrQszgClb9aqyj/2L1796flLSm8Y8eO60h+Cs/7fde8efPmXjd/qdmz51it6Oj8JwGMBRkdpPyDjQEQ3EVinlJqvsvlWhMVFbX3TPPn5eXtIXm599/HFJfLdUOZXtpgOA8xMQCGi5rXXnuthUD9C9A3VYXyBwCt+a6ycGdx5YE15IHPP5+xdsSIYR9kZGSoggL3ByAbegoH4BSg7y3LmuvWrQvLzc0dIMJbCtz2tSSjAA2QcByvayrMsIkXe3TpvChErwsAj/qKAAn4blmVPwA0axZ/HMAThw8ffklr+b0Ao0lnkSH/2/iKLl0J8EoRuaegwI2TJ0/+THK9UuprrblJKdkjIt/FxMTsFxErPz//Mt9aIrKlGBEMhgsW4wEwXLS88NpriS7hVEUZNnbs2G+qUpZPPpmyHGRP384/wBOgWKCAMYC6DMRfCo8KZFxaWtpz57rG9OnromPisq9WwutIDCUZD/96jl0yeQyCtyyLE7p16xbSa2/bt29PBTnf61nQtu1q3qpVs+9CNf/+/fsvtywrg1Q3k3T5d/8OT8A5tnNJ7CXZwve5Ukx3uVyTQyWrwVDVGA+A4aLkX6+91sLSMpeUe8aOfaBKlb8H61lATwNQWBrQh0aYEG+DoukvHSjfnDp16qxVCBcuXFhXaw5RSq4TnhpMYbTvs8Kdvvh2/psV+Fp4mOuDsp7vnw0Bfu/blJOYFkrlDwANGjT4DsDt+/cfywgLs38H8E4Bop1fp2f5wi+5hHYkwBbOz21bGw+AoVphPACGi44XX3zxcirXUpLTH3pw7H1VLQ/gyTg45dOpGwi2cwQBBgcF+s+0lWJaWlrarOB55s2bV0dr3RdQyVRMIdmG3u0tHbt9RztHEVO0Vm/27dtzcUW+47Zt23qCXO57J6XYMyEhYWVFrnnixIm6BQUFY0neT7JuCXEBQe1CT4A3+A8k88LCwmJJus+8osFw4WA8AIaLimcmTIiXfPcXBMK0XfBUVcvjg6R8+umnD4tgvsARBwDPVbmANjE9LS1t1vTp06OVimhN6o602IFAb9vWbUgq/3DfBXYEtgl8JZC3tNv9Ud+UlOOV8Y5C+nf/Ilhc0cofAOLi4n4GkCEizxw7dux6gneD0s//pRQbJ+CQufDr22GUv6G6YTwAhouGjIyM8LiateeQSIbCbx5+8MEPq1qmYD759NOPCaYXdyPA0f6GZA2CDTzH0wzwDpTcxs8APwKst1JT+2yszPfaunVrd4Ar6AEk0q666qoiHozK4MSJE1dprX9LqhtIXHGOcQH/DQ8Pv7kq5DUYKgqTCMhw0RAbV+tlQJIFsuL/Hnjgv1UtT3G4lHoUYG5QeYCARPgAWkDQIKCKgPfzom3ZD8EEiO7/88+H66emJj9Y2crfU1AJL8J/uUA2tmjRosQshxVNXFzcjlq1aj1Rs2Zcc6VUBwB/EmA9IP4dfnCKISHN+b+h2mGOAAwXBf944YU7CNwDAND4Z2UUzDlXMjMzrwSsVCr2d9s6hWCkJyjP6/r3uc3hzH7rOBgo0uZ3AvmMxJTly5avyMjIKPM1u1CwdevWXwPs7hFVQMHz58v3HxsbuxHARniOCWJyc3OTNDCOIlc7j07EttdXmZAGQwVhDABDteef//xna4ia4PGgy7eXNWo4rSrlef/9KQ2scHd/BaSCKhVgU/j1oe9o+ixxAHCe38kPArVSQRYocv6gQQN2VsZ7nAvr1q2LFsGzLDRgtrZs2fLjqpYrmGPHjtXKzs6+XSl1DwRXBcYBiERERKytOukMhorBGACGas3EiRPDTpzKft9zrQuwoV4ubya70vLhhx/Gi6hkWkilsD/obuWJO6MnGU5Q8p9StL8npHdaWtoPlfk+pSEiIuJxAI08LYFo9RTJSv3+z8Tx48eTlFL3krwRQLTW4t34+4oyASR2kTxalXIaDBWBMQAM1ZpfTmY/SaATKBChDV3wUUWvOXHixOiIiJjeSqE/yFQt6EiKBU1vEb1Cn35hUT2U0D6jMdBUCwcDeKui36ksbN68uTHAxwC/6395YmLLz6taLhEJO3HixEgRPEyia2E/QMeNAF9bBGuqSlaDoSIxBoCh2vL88883h8iT8JVzBdY8+uijP4d6nYkTJ4a5XFHdaCGVkP4kuxMS7lHVwcq+xPZRIVYC0ohg+yLJgIpPawsQz8+ZM2f64MGDD4X6vULAeADRHuVPgBhXlcIcO3aslojcffz48bEgGxc9Uik+ORBJ4/43VEuMAWCotgjUSwQiRcR7lQshuXaWkZGhGjVq1F6EqVTsT6g+oI71b99L3Nn7lb0IZQeAlSCXK8jKUaNu2LZo0SLryJGjux3DziUIsHZBgX4BwG9C8W6hYtOmTb8WwXAUfg/TEhMTl1WFLIcOHbpSKddDWuvbScYG1wkIsq02CfCTMwhQa208AIZqiTEADNWSvz//fC8Aw5yZXEgpswEwYcJbV1mWO5VUqUKmaGEd+jfjPrd8ifvI0xSsJblcNFe67fCVt912/ZHgNT7+5JNhCmzMgDkBABsFyCMc7moUGhgkbp45c+aXaWlpk8r6fqFk48aN9UT4MnxGjyibCpWedOngwYM9lVKPAbwG0CpQ2Qco/3yB/hTg+Bo1aizLzs4e75imICoqakNly24wVAbGADBUSxT45yA1ap84cWLTuT7/yiv/aWRZdiqI/opMBe1GAv9RQqEC8dsXAdv0fRBZLsRKiqxo3LjxhpSUlLNmkaPIfQCLVgQU/B6wtlhh9noIahcXFwDw9S+++OLroUOHbj73b6liEMEroNT1XkmEQP6dmNgmq3LWFh48eHAYycdB9nae6xdTIfAHAhMtS70ZGxt7wDFNu8L5uJlkTmXIbjBUNiYToKHa8cwz/+pIpdcDATnd9zz26O+uKOmZ1157rY7WTAGYqhRSQVzlPf/1HR8guO3JzMcCkl8rYqUIV2jtWjF69G9KHZX/v//9r4VSru3wJMpzZv5bNvL66/oAwOeffz5UwOn+bHpFM/99A+guaWlpJ8r41ZWbr7/++lpSTYX3+yF50LbdLTt27Fih6YazsrLCa9eufRPAx0gkFmbyc+T597QFkAVKqQm1atWaFpzeV0SYnZ19jGRNgFCKr0dFRZ0X9SIMhlBjPACGagfpvl+ksJALAIiWXc4x48ePj83P130ApFJJf7ct7Uko/331ksPzf4bISoArbSXLabvXjRkzJgSV81wP+GvyOYIERdHvOh8xYsQXn02b9v8A/K2EZEAtQE7OzMwcnp6enl9+mUrH+vXrLwE4wbnJJvFYRSr/w4cP18jLyxtNqodF0Chgtw/AcQzzC8FJInpC3bp1t5c03/Hjx5uGhYXV9D0lgqUVJbvBUNUYD4ChWvHCCy9E5eYVHCIZ66zmBvIti9YkQPcHmUqyG8mwYqrjOdua5DZCVgqt5RRr5X333bkj1DJ/9NFHDZVyfQsiMrACIGfeMPK6ocHjP/98+lskfwuHpyDQE6AyV69ecVNlZgAUEa5fv2E6FYeycPe/uF27tikVkfVv9+7dl7pc4Q8qhXtBxp+hwt9mISdQ5IN69eqdOtu8J0+eHAnyE8/XSZBsFB0d/WOo5TcYzgeMB8BQrcjNLRgMItbfUVj97k6BvrOIxSsC8Sl94BQgazS4XAlWFhTkrnz44YcrvFIeaT0pkMigzH82RT9Z3PgDBxrcU7/h/iYEBxSOd1rzOr1r955HAdxbcVIH8tVXGx6kwlCHt6RARN8fauW/b9++K7WWR0jeTkqkgMXdjswHZSqpJtSrV29JaeYXke6+oksisjMmJsYof0O1xRgAhuqFQpqzkE5QytzghLrfCblCASsVZfnRo0c2Z2RkVGrJ1w8+mNJIYN8VnPxHgW/ccMMNxQYtjhmTVDBnzpxr8woK5kDQq2hQIEDIPbPnzJFVK1eOrWhPwNq1azuC8pxnffquML7YsUOHkAX+ffvtt0mWZT1u2/p6kpb/36XjbqSAPypgostlvXnJJZfsL9tK7O77r4bk4lDJbzCcjxgDwFC9EPbx13Lz3v/3ki8a66GwUoHL3QXWyieeeOCnKpPTCy33OACRgcmBeCw/P/zpMz03ePDg7JkzZ6bZtswD0AVAMcmCeG/Pnj3rZGZm3lJRMQFZWVmxp3Ny/gcgAoXn/ttPnz6dEYr5d+/ePQjA4yD7O29cOJS/ALJQU01o1KDB58FBfaVBRMJOnjzZuTAToBgDwFCtMTEAhmrDs88+W1MLj8F3U89xrg/hgCeeeGR+FYsYwPvvZ15pufQWkhHeGwUgAUX14KhRI189lzlmzJgRL+Bsgl2DbgQ44gIwNzcneuSIEb1Phvod1q5d9x7IWx1n5m5tqd5J7duvLuucCxcudF12WZNRloXHAXZw3CjwnvEDBE+QnKS1PeHyyy/fFop3+eWXX7qSXO2LI7CUahIdHb0vFHMbDOcjqqoFMBhChZtMQDFGrYhAKR1XBSKdEVr2S/DtnAF4PRdbjx79+d/nOsewYcOOhYe5Ukn5MvCwXRwnIRwYFZWzbt68ea3LLbSDtWvXjhXgVjhWEsHzZVX+O3fujNixY8etjRo1yiLlvyLo4Jzbu8IOAuO0tps2adL4gVApfwAQkYGAd0WR3Ub5G6o7xgAwVBuUjSZFOsV3HKBqVrY8Z+K///3vcAL+CH+vuhZN3D9mzJiC0sw1ePDg7Ojo6BEEPvNOFqg2RSBACy1Y+eWCBdeEQHysWbOmnxa84FxMgM1xcbF/Lu1cO3bsqLtjx44/aq1/APmeCFr4ZvR8KygAkAlI8uWXX96yadOmzzVr1qwigjMHepc15/+GiwJjABiqE0WUvE8RCnWtSpalRN55551ILXgJQKCyFrx906hRi8oyZ0pKSm529qkbCLzq3PsHbaDjaOvP5s+f/0xmZmZ4WdYBgOXLlzcVwWQAYQ7lXyDavi0hISHvXOfZtm3b5du2bXtFa/lOBBkC1A0S/ScCGZalml5xRbNfNWvWrMKU8qFDh2JJ9hCvxQFgUUWtZTCcLxgDwFBtIBHlbIs4XdOMr3SBSsAVHv4EgCsKlb8AwEGl8Hh55k1PT7fT0oY8COFYAG7f9jnwhAHUgnG169RZtWDBgsTSrrFu3bpo5XJNFeASv3fFs8pTXbp0+fpc5tiyZUv7LVlZH2otO0XwAIAYCXRbLAIk/Zfjxy9v3rz5ny6//PIyRvSfOxEREf1EEO47ACA5t6LXNBiqGmMAGKoNGiwxIx9FJ1SmLCUxadKkNtB4Mkj5g5D/S09PPxqKNYYOvXq8aAwn5Xig8ncaA+wognXzFiz4XWZmpnUu84oICwrcb0PQEU7jCvi8S+fO/zrb81u2bEnZtGnLLAG+huDX8N5C8ir/kwBfV4ptWrRISElISJiclJRUqqOQ8qC1HuT7WUQ2xMTEVLjRYTBUNcYAMFQbFPhLcf0iAg2WercbajIzM8NBTgIQ4VT+EMy88cYb/xfKtYYOvXq21joJwEbfIsUECUYS/FfdS+qtWrBgQeezzbly5crnBfhVQNAfsCc/IvyOkhL+ZGZmWl9v2jRq06ZNa7SWBSCuRkCSZdkGkbEul9WoZcsW9yUkJFRK0aBgSA70G2Pk7KqQwWCobIwBYKg2aC3fF+317bBxVUZGRpXmvTidm/s0wI6BvTxOyj0VsV5aWtq3kRHh3Ql5KzgoEIHtJKXUmgWLlkyaN29eneLmWr58+X0CPuoZ7+/OE22P6tOu3bHg8du3b6/x1YYNdye0aLGVWjJF0MVv9Ag0wBkkBrZu1SqxdevW4xMSEqqsgNGRI0caiUgrR1eZy0YbDBcSJhGQodrgcslOW0PDYdgWJo9BRHhs7JUASiwEU5FMmjSpm4BPODL1wZv8Z+xNv76pwq6bpaSk5AK4a/aXX64C8CIEsYVVi+H/grRAkXKLyxU2eNGiJRki9n98JYyXL19+o4CvOsd7c+U91L1796+c661evbGZy6UfyD6dcyeJOO+lfS9yAKL+Y2v3xA4dOpxPKXYd7n/8EhdXY1VVCmMwVBYmEZChWvH3Z57bCEc9dwCOZEC4e9y4x/5T2TKNz8yMjcnJ/YpgC1+yH2/Rnsm/+c1N6ZUlx+zZs69UynofZPfiiwg5iukobqfIOACnqKyZJMODPn+hR7duj/jmXrt2bS9APUziWpIWHPORXEZivMvl+jQxMbHSqxSejWPHjn0CYKQn/S+m1KpV64aqlslgqAyMB8BQvRBZDLJd0W4BiGEAKtUAEBG+O2nS2xC2CNz5ywFlSaXWmb/66qt3LVy4sE9Bgf0UgD+A4gosJ+zwDGi0BPkZSBuA5XSlgJjcvWvXxzZu3BiTk5N/MxXuFUGHgFK8ItlU/FBra3znzm2LrWlwPnDgwIEYERniM1gAmPN/w0WD8QAYqhV/+9tzKVRYENzv3Ylm5+Zk183IyMitLHneevfdR5Twn4XlhuHNYs9ht95688zKkiOY+fPnd9WC90m2KKkksn+372yDy0h5kLTuIHEryJqO8r8AuYOQ1wG8m5SUVGxQ5vnEkSNHbgA52ecN0Vo3rlOnzg9VLZfBUBmYIEBDtSIhodkSQEo6X46JjI1NqSxZ3n777X4Eng2Imff8/VJVKn8A6N+//xptuzsJ+O+AhAkAnPf7g9viOdf/CpAHBKjpDeqzSXwGyKCkzp1aJSUlvXwhKH8A0MANviuSADYb5W+4mDAGgKFakZ6ebhOcWOIAW26tDDnee++9ywT8GNp3zOa/jbA2MjJiXGXIcDYGDx6cPbB/yr0k/lGcsi+uTZF28NYcBGBD5FnLUld06dLlui5duswt6Trg+ci+ffuiLGft9QAAIABJREFUKBjqeNvPqlIeg6GyMQaAodrhcqmJAE4F93s3utc///zz9Sty/UmTJsW43fZUCC4Nuu9/HJBfVVRp3tIwd+7cmnPnzh87b978LVq8GQgL0/p6fzizMQARC1CdAVRawp5QEhUVNRhArKNralXJYjBUBcYAMFQ7HnvssUMQvubsc3i5wwXq0YpaOzMz08rLd39UeO/dJwCgKaNvvfXWPRW19rkwe/bsTnPmzH1DhD8C8qoAiT75gtIG/+zvBorLHeD7YaDb1htWr179axG5oGKKRHCDIx/jd/Hx8eeUythgqC4YA8BQLcnPD3sOwIHiPhORe1944YXLKmLdY7+cfBkiwwPO/QUQ4Su/ve22TypizbMxY8aM+FmzZt03a9actaD6CsRoQGKKyQz4PcFnFdFORMYXN1eQD8DXrgfww7Vr1y1YvXp9+4p6j1Cyc+fOCECGAf7s/2b3b7joMNcADdWSjIyHjz/zzHOPCvBB4CcCgNEFBfoFAL8K5ZpvvPHmo4Dc779a571Up4GldkFOhXkdiiMzM9OKjq4xQCncDvBaASJ9t/iCrvQdhujJVOq/KSnJK3xn+IsWLX4jOFlQ0RxGCL5CmExlf7127dqpSqk/de7c+by9/lerVq2BAGp6riwCVGIMAMNFxwXlsjMYSsvfn3nuvwBuAnzX2ByJgRSue+LRR0MS+PX6G2/cqMAPASr/dT9Psp0ftXZ3Hj169MFQrHM2pk2blkhaN4O4hWSjosl+CBKnQPUZLP43XKm5vox/PpYuXRrvtvVhklbAdUCoMUqJAHwaZKMzXhckBcQCinpt9+6d09PT0+3KeP9z5eDBgx8qpX7tSf7Dg3Xq1L6MnpwHBsNFgzEADNWajIyM2PCI6LWAtAQKlb/XGDjistjxkUceKVcq3gkTJ16rwEyCYUH3/fNEmDx69B0Vmlp26tSpl5OuG0ncRKJdkLL3Ked8ArMBfuR2508bPnx4iZUTFyxYnE6Fj4OU+/fRUZEJSUlJBQsXLowMD4+6H5BxSrFusPIvNBj87f0ApwBqcseObZeR1BX5fZyNQ4cOxQI4ADCGJJTif+rUqXN3VcpkMFQFxgAwVHv+9rd/tKHSqwFEO5Q/SEKRG7V293niiSdOlmXuCRPeGEIlnxEMD1L+EKXuvvvOOyok8+CUKVMaKOUaqSE3KbIHQXoUL5zKPw/EPMKaYln4/Oqrrz6ncsMLFi6eTWBwoOdA7uvbt+/rznGrVq2KE5EHQeteQhoGKP/A5ECOttoPYIpS+OTIkSPLg70PlcHBgwdvBvmBz0CyLCutdu3apgCQ4aLDGACGi4Jnnnn+JoF8QFIBQZ4AwfzTp2OvycgYU+KuuDhee+3f/ZWFGQQjg5U/yVdGj77zoVC+Q2ZmZhNa1vUKHAmwJwhVmLnPr/xzQM5WUFMiI8NmDBw4sFQJeb5cvDjBpWWHZyrfTp4/ZmefbJ6WlpZX3DPr1q0LKyjQ1yslY0HVu2TlX6R9iuRyKC6G1ovz8vLWJiUlVfiVwoMHD84EOMR7TPNL3bp165Gs8quZBkNlYwwAw0XD/2fvzOPjqsr///mcO0laSumWZu69MwmhtGwBBAoIyL5TpOwFQdkUEFkU0J+7IuIXFAQUkF3cEKiAILRWQMsuCgURu9BSCO3MvXe6l7a0Teae5/fHJOkkTTJ3kpks5bxfr8CcO88955npzDzPOec5z3P99T+7CMRdaDFurQa7xRy9EIZNJ37rW9+KZDB/+atfHWRB/ZXEsJZ95Px9/+kjR24zuRT73lOnTt1RhCeBciqp9s7N8/Nm+rnx1oKcpiiPDRkyZPoxxxyzrqfj/f0f/7iZ4JXt9/V58SGHHHRPlPtff/31PQFcBPB0kGOKcAZAch2If0L4hmXxTcuy3hw/fvz7pUwuFARBDcA0yRgJQKnf1FRXn1+q/g2GwYRxAAyfKH5y/c+uVMTNHbcCWszqu6RMvvrqq+d318ftt991FKj/TDLP+Lc5E+80bRx64BVXfL5H9e0feOCBIVVVVYdCqUkEJxHcHu2di1bjv4qKT1Gsx1avHv63888/rNf1DWbOnLm11rKI5Ki8ff05IvpTxS7Vv/HGGxUi6khSn0mqk0Bu08HYt1QKLtherRTfAvgfIWYrYHYsFpu73XbbrerJa/R9/zJS3db6fopYx8TjY57pSV8Gw2DHOACGTxzX//TG7xK4DtgsKBAk10Lhyq9feeV9nd17222/OgnEwySqcsa43dJ/JhtTn77sS1/6sBh9HnzwwW1DkeMUrONBHE62xCogb5aca6eEnEaLTyCb/UepMwo+++zfr1GKP8wP6gOsEw477KCne9PvzJkzh2yzzeijSH0cyWNJbhfR+HfXThOcS3IOiTkA5mWzQ+ZMmOAs7U4X3w9eJbF/S2GjTE3NWBP9b/jEYhwAwyeS66//2UVUvCO3FNxhJYCEgM8hxq9+/Yor5rTec+ttt31eQT1AItaJ8f9YKRx+8cUX/6vQ2NfMnBkbt3jxZ7RWk6gwicSunRh7gAwJ/BsKT1vk9ClTpvynXO/HzJkz7TDUC0Bu3Tq+UvjHoYceekSpx3r77bd31MBxCjya5Gc6rg60D2Qs3G4LVsy1l5OYQ3IuyblKqTkA3nVd98NMJrO91noBW28S/tK2a0oap2EwDCaMA2D4xHLDDTcdA4WpCtgGecY/t5JPkGym4u8ltK63LH0kyDtIqrznW41/llQnX3LJRV3OlO+7777xtKzDCHUUiaMAjsyPG8iLI8gwF7k/AwhnnHXWWcv64r145pnn7qLixXlxBU1aqz2PPPLgOYXv7jlTp061GhoadtMaBymFAwF+BkQiorEvpr2W5EoSta3PA7KfbdsFHTaDYUvFOACGTzQ33HDzblR6GsnadkGB7ff1Q5KKLSftOj4vUBde9pWL220Z3HvvvUlAHQ7ycACHkazrMLtvNf4fE3wJCs+KUs+e87nPvVPKoLcoPPfcc7uI4G20rIa0rIf85IgjDvteX+rRyrvvvpvIZmVvEvtQYR+Ce5Mc3Qvj31l7YTxeM6Gv32uDYSBhHADDJ54bb7yxRqB+S/JYAB2Nf7dtgtdceuklP7rzzjtrSB4mVIcR6nASE1qXtTss7a8D+S8CL4nFF9euWvXKFVdc0enxur5g6tSp1ogRo16i4v6bZtpYOHTokN0OOOCA9f2lV0fmzp1br5TaA1B7KMU9Se4Boq6nzgAgP3Yc5wf9+6oMhv7FOAAGAwAR4c9+fstVCvg/kpWbxwUAnRj/+SBnkDycRANbLH3e8wC5TJGvCuVFaPWK1k2zLr744gFTPveZZ565SsCf5xl/AdTRRx552HP9rVshFi9ePLqpqWlP0toDCntQsBfJXToz/h22WSAiu7iuO7e/X4PB0J8YB8BgyOOmm26aCGU9BMGE/KDATvb9O2t/RPIdkLMomKWUzLrwwgvnDNRl5ueee25cNtT/JTmsxfiDVHcceeThl/W3bsWwYMGCbWKx2JkAv0Zy5+5n/wDJNx3HmdjfehsM/Y1xAAyGDvz0pz8dHotVXAeqS9lSEKeLIMG2tpC3XXrJxV8dqMa+IzNnzoxt2LhxJqkO3PSa8J5ovUdvEgn1JQsWLGhQSl0G8gtsyesfaSsAuMp13Vv6VXmDYQBgHACDoQtuvvnmfUF1N8A9osQFgOpZhfD8Sy65JN2/mhdm+owZNxD8Zt7SfyiWOviYI454tb916w4RsebPXzhZKVxG4vBuZvprlFIzBDi9w/NNikw6Tvf5AgyGTwKqvxUwGAYqV1111b8/Wr1qH5D/D8DHgEDaze/btwl9lED9984775nSx6oWxbRpM06E4P8BACT3HxFcN5CN/7x583ac++6718+fv+BDUh4HcHiL6i0IBAgh/Bsgn6+oqLC11n/q8DxE42lj/A2GHGYFwGCIwE23376tFeqfEPxc7khgl3EALW15KmZZl3+pyKyA5WbGjBnjQ43XSYxs3RMX8h9rVq86uhS1C0rJwoULRzQ1NZ0B8FwQBzBv5aVDZsD/CfG7yljswbq6Oq/1/sbGRQ8pxTPzgwAB9dlk0pnWf6/KYBg4GAfAYCiCX/ziFxOF1s8UWpafuw8KXEelfgSdvXUgRP4/+eSTw2OxipdB7t5q/EEGFTFrjyOPPDLT3/oBuWOJO++88xFQ6hwFnkJyaBeZAJco8iER+d2ECRPe7NjPBx98MEQptYRUw/O2BrxEwt2WZJ+XIDYYBiLGATAYesAvf/mr40H5KcmG9nEBmx85Izkbor510UUX9Cqnfm944403KvxgyVMkjtmUjAhZRRx97LHHzuwvvYBcQOKYMWMOBdTpJE4BUb3J2G9yqEhuVIpPkfzd6tWrZ3RXOnjRokWTRfBkflyAUvxpIpH4Vt+9MoNhYGMcAIOhh1xzzTVqzJixpwv5HUXuXjB5EPCCZfGbF1xwQZ+nn33qqafvB3lBnvGHorrquOOO6Zdo+JkzZ8ZGjhx5GJQ6nYKTSVZ3srQPECGELyqFR5qbm6fuvvvuK6P0/8EHH/5WKZyTFyQoSnHnRCLxbrlfm8EwWDAOgMHQS0SEd9xx92RSvgdy7w7JgjpuDYgQT8BSP7nwvPNm9YV+f/nLX34Aqh/lRfwDVL87ftKx5/bF+K28/PLLw6uqtjpaKR5P4oT8mX57469Cki9B4U8Sho/ttttuRW1PzJ49u3LYsGEByFFtKwmQV+rq6g4s00szGAYlxgEwGErIHXfcdSyV+iYph3YfJAgQ+BtgXX/BBee8UC59nnjiqUupcFuujEGr8ce/h2211SGHHXbYhnKN28qrr84aX1GhPytQxxNycFuWxZbcA5uMP0NFvCSi/hSL8fGGhoagp2M2NjYeL8DTHc7+f7Guru7XpXpdBsOWgHEADIYycNddd31KQ12uyLNJDOnWGQD+BfCONWtWTS1lXYAnnvjLxSDu3GT8CSgshtb7n3DCCWXJVfD2228PW7du3UG0rKMoOJ7kjh328fP39TWpXgL4p8pK67HeGP18GhsbfyfAF/Jm/2uGDh3q1tTUrC1F/wbDloJxAAyGMnL33XdXQ6mLIPgKqRJdBAm2tpcS+DUpd59zzjkf9Gbcxx9/8gIq3Js7sti2778KEjtw8uRjZ5fm1eWCCzds2LCfCI9QioeD3I9kRevsvhPjrxXxEoA/hWH42L777lsSo9/K4sWLhzZnswHBbdry/pN31tfVfaWU4xgMWwLGATAY+oC77767gox9FgpfJHgsSavV+G9aDWhrC8mXAP4+m9346Pnnn7+qmLEef/yJ80Hc18H4byTkmMmTJ/dqu2Hq7NmVNUuXTlRKHQjwcJAHERi2ydhvWtrPa68h+QyJ6WEYTttvv/3KduRw4cKFp5DqsfzMgJZSu9fW1r5TrjENhsGKcQAMhj7mzt/+NhEL5TxCzlfg9h2Mf0dnYAOpppH6sVgsNn3KlCmru+v78cefuFIgPyfbFv4BQivic5MnT55arK7PPvvsCKXUAYD6DC0eRME+ubP5XRr71vYCRTVNhNO22WarFxsaGpp6+n4Vw8KF708leXre8b+X6+u3PagvxjYYBhvGATAY+gkR4a9//btDqXAuyZMIjCjgDDRBcSYgf5aKihlnn3rqh/l9Pf74n68D+J2OiXNE4cqTJ0++tZA+11xzjdp33wN3isX0vqTaB+CBJHZF3kpCm2Hd3Pg3K+JFETVNKtS0gz796fnlfO86Y968ecMrKioDkltteg/w+fr6+gf7WheDYTBgHACDYQDwwAMPDFFKHQdYnwPls0TeLLtd0GA74/6ukM9S4RklPJ7kxZtlzQNuPvnkE6/ubMynnnqqTqmKfUjsS6X2JWQiyOHMM/CbdOiszQyJ6YCaXllpPbPffvt91Hfv2OYsXLjwEoC/ypv9L8lmm+smTJhQssBKg2FLwjgABsMA4/777x8ei1WdSMUpJI4iOaQzB6DN2HfRJvHI22//56wf/vCH8vTTT48XkT1B7klae0KwJxVqur4fmxl/kutBvkLw76T8/ZBDDplFUvfz29XGe+8tfKdlxaI1n8AN22237bf7Wy+DYaBiHACDYQAzderUrTduzB5D8iQqHM+W5DYFtgoA4mOCv6fiLgT3ADG8g3OQt5TfZTsk+AaZM/hKqVf7IndAT5g/f/7BSlkv5GUS1EpxfH19fa9OUxgMWzLGATAYBgkzZ86MBUFwiFCdSMjxpBoXxRmIaOxBsiln8OVFki9ls9mXJ02a1K/L+lFZsOC9R0BMad36IDFt3Lhxn+1vvQyGgYxxAAyGQcqDDz46oaJCHyO5Y4WHEhzWllI3Pw6g2zaWArxfLD7z8UfbvDZlygHr+/t1FcucOXOcWEXFh7n8A62xD3LC9ttv32/FlwyGwYBxAAyGLYDp06dXrVu37kDSOobE4SD3IGgVihNoaWep+D8K3iAxSyn1xqpVq/47ZcqUPjm611vmz59/Lcjv583+F44bN26HgRSfYDAMRIwDYDBsgUydOnVry6rcj8SRSvFAQO0LSkUEZ6C1nSUxH8QskLMoMqu5ufn1SZMmDaiI+g8++GBkU3PzBwRH5uX9/+r48eN/2c+qGQwDHuMAGAyfAJ5++ulRYRgeJOQBCmp/EHuT3KrIOIENBOcCeNeyOAfAPJLz1q1bN7+/HIN58+ZdR6rvtjouIFaH2WztTjvttKZVZvTo0dsMraw8puO9ITDbsqxKZLPJdCbTtl0wfvz4qvVr104OgeeDIFjaV6/FYOhrjANgMHwCmTlzZuzjjz/eQ4T7k9gPuRz+44oMGmw9HhiC+ABUcxVkLmC9S+o5zUOGvHfY3nsvK9drmDdvngvwXZJbt8U2QN0yYcL2V+XLxePxGou8Cjm1zwfkzyJcRUueFa0mE3JpKBgfBEEjALhufDKFTyjw0MW+/2K59DcY+hvjABgMBgDA9OnTtyG5O2lNhMJEBU4EsFOXmQC7zheQXwRoI8A0FXySHoQ+qTxYeN8CfBHx9t5778ae7NfPnTfvDwTPzgtsDCGyww477PB+V/cknPhblsapizKZ9wHAdZxfELK7CKZ5QXATACQd548C2V6B3zAOgGFLJtbfChgMhoFBy5G/l1v+AORqAQCyJ8hdIXo3gdqVQAOAERBB66Y7ALS2BS0zi9yDKhDjAIxDqzgFFEByyXow6823Nsx6880UwaUklwNcoRRWiHAFqZYrJWtIfqyUWk1yndZ6vVKqFoKz8geCyF+6M/5dIYJHSZ4F4CbXdbcS0SNBfAjp8VtpMAwKjANgMBi65KijjloN4PmWvzaeffbZuoqKigaAu4KYAJEdQO4ogJ2zyZ06A120ZQiE40GMFwCkQIRtzoK0yGstbSsQ+b6H5MQAomC9g05RsgzCdbU1NduHCPeB8CkQh/WoL4NhEGEcAEOvSCaTQ1U2O07IpAAUrVexomJ+KpVa0d+6GcrHUUcdtQjAIgB/zb/+2muvbdPc3DxBYO0AYAIV6gmpF+G2IGoJVHTlHOQQQNhlWyBgJ20B3txxxx16vFxP6qmhUqcQ2CcrclkMNA6AYYsnlnTsNzpeFIGXDoLJvek4YdsPkxjf/ipvSfn+ZpW5XCf+uALrciKYmfKCb/RmbEP5mQhUBI59g4TZL4fEVmhdL1WEhFk4jlPv+/6H+fc0NDRUzp49e1CcLTf0jJaCQLNa/toxdepUq76+3hWRegDbgoxDdBJkHGBCBHECSRDDgK6NfWdtUn7RK8VVxeNKss9AZHEmk1mScO1edWcwDAZiAkzc7CoxsTYe33VxJvO/nnRaF4+PC4kpsnmQYbwzeYINAuwAACKyqCdjGvoUBq79OARdpVpd4/t+279jMpkcCp395qqVy2sAfKVvVDQMNKZMmRICWNzy91JXcq+++urQYcOGjQkta4wVhmNIVmvIGEU1EsIRIhgO6K0U1TCAIwGRbDZ8OIoOhJqrK6xNRxZFllO4NuWlViQce44Q03NyWCIiA7LugcFQKrrcAtAWpwDokQMQKpwBc8JgiyVh26d2ZvwJfCTA1hD8Dy1LAol4/LMSZn+BXBDYA32tq2HwccABB6wHkGr5Kykp3z8rv+0FwbWtj9N+cE6bnBdcVuqxDYaBRtcxAILTAfygR70KzzTmf8tFyJPZLkRabq2oGvqjxsbGVQCscaNGbd32lMJdABLFjpG07X01eTKgd6TQErIRDJ/2vCXPASY+22AwGHpLRwdgDYDhLY93Ssbju6UymXeK6dC27V1A7N7SbBfe0xVCfT7ArQBAKVlSzHiGvoeQCXnNRWk/83UAYUs7fH/lytU97bu+vn5k88YN92sIQfmNiLqLlgqJ7I6irTNdx/6egOd0jC8wGAwGQ3G0dwAEz5M4RIBtAEAsng6gKAcgpnCGtM7PBK+B2L/QPZ635NVixjD0O61OIgSYi03Gv1eMHj16m+aNG/5G8GdQ2qO2dgMQl2zWr9D6jcalmQsT8fh+JP7iOM5k4wQYDAZDz1EdWhsEeLKtndsGKAoRnNn6mEoiBeYYBhlERdtDwcpSdTu0qvJ2grelfP8xaHWaUK7R0MdB8fvNMeuDhG2fm85kXhOlL7Egv4eJMzEYDIYes3kMgJapUPxCS2unZLJm91RqyX+jdOa67l4QvUOuxQUa+g2W9zfaSsbju0CpHUBdpYF1KsT7qUxmDno4K43H49tVKLWnpv6osln/r3Hp0qDQPbZtj7VEdhMLY6kZKnKJVmp2Op1e3hMdgNaTFNxZlGwDWOtFZLlSak5v+gQQS9r2XlqJDWCY0lwVko2+789DD/fVSZZkP762pmZ7AepTvv+HvMuzPD9zCgAkXftnAvwYwG89b8mrCdt+r9Zxjl7s+38rxfgGg8HwSWMzB2BkdfUzq1YsXwlgFABIyNMBRHIAFPSZbdaA0Wf/Cdt+DsR2Lc1n0n5wSXfyjuNsa1G+IYIzBKhuTRZCAKKAhGOvBOQ3Quv/PM/rtBhJwnFeAcTO6c3zF/v+y0nb/oUQlwjEohDNMUsnHPtxS8s3W3OHtzIRqAhs+2wQlwPYE2wxhQQ0BNBhmHDt1wXyC8/LPIIIBnbcqFEjNg6tuhqC80KgFkDunDN0zo3SoU469lta8OtRY8bcF/VMfTJZs7uE/AbAEwUYnuszl19FQZBwbR8ijzSHcsOSJUsynb9f9jygbeZf23pdICckHHtha5uC5zXwJonWgiybjn4SpyUc+5C2phUem0otXQAAYUwdpyB/6vpVyAqAza0tRT4SihwPwDgABoPB0ANUxwuzZ89uouDPm64w6jYARTCltaGFD0XWgqgFcvnCBdJproBWXNe+TEHmiuBSANVdiI0CeCVFz3Ec56DORaRu05jYyrXtW4W4DICVJ6QAnJa1rIr8O13X3TFw7NdAPABgL3S+FG1BsB+FDyUc5+Vtq6ud7l5XnW03bBxS9Q4E30eege2AEmAiiTtWrVj+juM423bXJ4BYwolfJ6F6E+Dnkbd33w6BA/BrFZZ6z3Xjn+uir+2Atpzu+e/H1m3XgXFC2CRH5V3LdzKH58uqrFXZ9sKAbSFqQYcxd3Zt+4aEE79LwCsguKL1iSat5xOoL/D6DQaDwdAFmzkAAEByal5zx2SyZvfO5PJx3Zr9AbQYJL7t+/7cUiiYT8KJf4eC2wAMbbtI+AJ5EJBbATwKIH8GO1ZB/pqMx3frrl8BDmbO+G8O8Zrnee+26ZBI7EDRLyNn+FvJAngekLsFci8grwDIq24mB2QrYv/qymCPGzVqRJhLQJJn+LkAwGMiuC3XL/4GYH3ebTso4NmGhoZKdA4TTvwBgN9Fe6emEZA/UHA7cu9XfsrerSl8MOE4X+ukvw8AvA/gfRDNedfXtl0H3qcgEJGVedeyebJr8mV1LGxbwdDCrGi92YqUAoYR/Bw0vpYOgmmt1ysqdEwo2Y7yBoPBYIhGp3kAFvv+3xOOvQwtM2wJOQWFtgG0ajv7T0r02X9EkrZ9aMsecCsbILgq7Qf3IG+/Px6PD4tZ/BEEV7dcGiaKvwGwN7pahqd8HQICWEHiNg15S4mKA/pUEdW2GjJ69OhtqMMZkr/yQDwtUJd6ntcug2EikdgBOrwHQOuSd62C/Gn8+PEHvffeexvzZTdUVX2VQF1LUxP8csr37+2oZjwer4kp9WdADshdkQmrV6w4D8A9HWVd2/4+gM/nXVoKwVfSQfBovlxDQ0Pl6pXLrxTgxy0zewJyUyIRfyedzvy9VS7tBzu1vTbXfg/A9rmXz6c6Jldp4Q4ASDjxFMBcHgDBo+kguKATWYAyHwq7AXg67+rcVBBcnnCc/5FybzKZfCWVSqUBAGFsdwDvdtaVwWAwGArT6QoAgCwgj21qFtwGsMC2EwOS1XikBLq1QxM3YpO+muDJ6SC4Ex2C/TKZzLq0F3wdkLvzLu9V6zhHd9m5oEKAQIV635QXXON5mSdTvn9Pys8ck/b9u1rFhlZWflXQFqsAgg+lveCkjsYfANLp9PyRo8ccjfbFUvbZsG7NlzvKkjxlkyp8uDPj3/LaloQiJwGbIu815OSOcttWVzskvpV3aaVQHdzR+AO5LZ+UF/xUoKZg06qFBa3uRPuVg7KSzerpAKagE6c07fv3CrEUOvvt1mtCOd8Sebyv9DMYDIYtja4cAEAjfxtgh0Si5lNdiSbi8UMItFTP4D+DIGgskX4AgFrb3oe5GXwLcm/K92d0e5OKXYe8ZXgNvZmhbIfgusVLlizs6un6+vohoFyVd2nxhubmi9HNaYPZs2c3hYJzkbfMLuDV2MzISdvSP6G7rWceBMFSEA8B8h8Aj0Hwz44yYWXsSuRvk4Bf9TxvXnf9ep73BIk783SakLDt7t+zEpILPlTTk679vU6e1hS5TQRf3La62mmJU/h4cRC83lf6GQwGw5ZGlw5AOpN5QYBNR+B016sAovLO/lOX/Oy/ppyY36bOLS/tnpjuAAAgAElEQVR3RzqdTgG4lYLbRXApdfd56CvD8LHunm9ev/6AXOGRVuTOZcuWrSmkRxAES0n8Ou9SbSIe37uD2NJND3lubW21212faS+4NO1n9kz7wWn5uczbNBMcl9dMpX3/j4X0BICsxk3Ic5qE7DMHAADSvv9D0dgz6do/Wr+x6UdNzWFbQGLKz9xOK5bIxmInUfPy9RuavtSXuhkMBsOWRtcrAECoiILbABOBCoKntt4Ta9bdHOXqIcL92h4CQdT0xGk/uDoVBJd7QfCrVCbzr25E3y943t/ioflNpfFUFB0AIBT+Jb8tFg9uJ0D8I69Vq7Oxd1zbvqHlBEPX9Ro6IR6P1wBoyBttOiLmRGhZuXl7k1r6kK6ly0I2HQSnAMDQqqoXKyzrKteNn+i68RNc275SdHYaiN2zIketWLHioz7WzWAwGLYounMAEArz9/J3SCQSe3SUCWz7aACjcy3OjJI4p2gId9NDFpWaOBKCDwqKiIzLa65fnMlEPuWQzWbfym9TZPv8tsrqnxPIN2ijSXxTQV5MOPaShGs/krDt8+rHji1YpLwiF6OQdyxRvdWlcCdQkCfPRH19/ZBi7i8BYcoLfgiljlDkQgXuSXAfKFlJFTst7QeXZDKZdX2sk8FgMGxxdDu79H3/lYQTT7dFcWt9OoD/tBMizmh9KNQlj/5voabtkUhvMuF1DqOks+WYTY9lBYrINLh06dK1CcdeB2DY5n0Bi5csWei6NadR1MNoc6baGAXBFBBTmmOWuI49i+BDKtb88OLFy7zN1WzfN4Giiitpckl+pb8wXDsawObjlJmWjIcP9vW4BoPB8Emh2xUA5PaD85f0220DJJPJoQRa9+c3xmJVf0bpUWhvFNd3JdgLCvZJwYi8Vk9moB/nPd6q45Oet+TZimzYAMgt6NpoMxcMKT/X2dj7Ccf5CTo4cVrJNu1uAIrSlSL5ekKEm+lqMBgMhsFPIQcAaHekTya02wYIw0mtlQMJzli0aFHJCsO00wDYkNce2pVgWSHX5rV6YhTzs/B93JlA49KlQdrPXGX7QVKojgFwswCzu+ivCpDvJBz7/nZqhsjXE9K26hAN5jL7bWpTOtXVYDAYDIObgg5AOhc819h2IbcNAAAQStvyvy5D9H8bxKq2h5SOS+R9AyXfuRmDIs7Ijxs1agSAvL106bQ+QSuzgGbP855J+8HVnh/sKlR1pFwI4DG0d4YA4Jxax2kLKhTLaueECTA2qp4AIER+nIG2rK1XdClsMBgMhkFL4RUAQMj8bQA5FQBc190KgkktF9eFYfSo+KIRtJ3PF+GuUW9LOs6xCce+07XtbyRs+7Tx48dX9UKL/KxzQ+tse6cuJTvQVFW1Z35byG7P+nfE87zFKS9zX9oPThOqWrBdtjxoStsxzDAMF6BdxkPdbuyCEPnyXmNjY0eHw2AwGAxbAFEcgI6nAXass+0Gaj0JLcvLBP9SzshsCl7d1ICbSCR2iHjraQC+TOJnULjvvffeay54Rxco4Sv5ba3w2aj3CnFCftsSvtb6uM62G1zb/nrSce5LOvaLyWSy2y0Oz/OWVa3f+Hnk59iXTUVxMpnMEgDzN93BSYi4WhGPx7eD5B8hRHdHJw0Gg8EwiInkAPi+PwuC91rbIXAK1KaAQF2+6H8AAMlp7S5IeFGhe5LJ5FDBpgRCFJmJdgV6iiMkX0J+Rj/BJfF4vOD+eiKRGAPg3LxLy7YZPbrNAcgq2Y3EjQL5ogAHSXPzEYX6fH/lytXISwdMcFX+8yTy8w7Uum58CiJgkVci/zMh7VcaegY31T1Q7eMLDAaDwdB/RHIAAAB5FQJJnAnB8S3NlaNGVZe1Jvti338RyD+fjiuStr1vd/dIGH4feUV7RHhfb3TwPO9jgHflXdo2ZvF2dF4KuJWY6Oy9yMUMtGpy9+zZs5s2ta3nkLevL4o/7KbCHwDAdeNHIm9vX1PaHc3UULflV+yj8Je1NTXtcg90pNZxjiFxad6ljCg1tcsbotMWRCiCbks9GwwGg6HviOwA0ArbtgEE2AUty/8CPtbeoJUHCq5E69l7QYUoPJOw7dM6yjU0NFS6tv0DQPKL4TyfDoLpvdWhoqrqRnBTPAIE5yUce2pnCXpc161zHfspol063febsvqGfDnP85YJ+IfWNoG9V61Y/sS21dVOZzok4/FPU5if2ncdabU7CeB53mLR+EnepWodUy8lbXsSNsdybftSDXkSeZ8HoXwt5/T0DrZbqcABCds+13XdujrbbnBd1xwxNBgMhn4icprZVGrJfxOOPQ9Au+A3qjJG/+ePHwQvJF37uyLIGVDBCBB/yukkL4hwFRXiq5YvP5p5mQMh8ELgfHRVCrgIGhsbV7muezoR/iOvLsBpzTHrswnXfg6C+YBQwJ0p+nAA+TP5ZUrLiUuXLl3bsV8q9S2E4aS8jIfHZStija5jzyTxPwJaBDaBXQSYmHerELwylUua0w4vCH6cdJw927ZBBI4Q05KOPUeAF0Wwmgo2RI4EkOig0f95XlCSf1cNvkXIQS3NGIjfUDRCAioXR/LX7u43GAwGQ3koKs88iUdE8MNNF+Cn05nnS61UV6S84KcJ2/4IxK3YZFx3ArgTiZyJb78gP1eTpwa+31gqHTzPe8t13f0p+gkAO7ZcHgJpDQpkZ3sCr9MKz1rsL31v86dyWe9c1z2comcAbQF9lQSOgeCYVs+lgweznpRvpryg09LBAHTK909NOM7PAbkCLe9My+rNLm3vV3tt1wH8en4J5N4iwF0ELkK7Y5Btz+0C4wAYDAZDv6CQW6Jt/es2kr/lNECbPIE/oJuUuEqrbL68iHR6pExyefBb++xWh3QQ3Glp2RnEb0Gs7lRI4AHyHaHa2/f9TnP2C9AaSLcSKC7Zjed580aOHrO7CC4D8L8uxATEvyA4N+0HB6RSnRv/vD7fzWrZtcXBauxGdBkED1hadk15mdsKqBqmff9rQrW3QP6MLhIQAVgCyK1CtXMk4y+b3jtd4N/L9/25FBwCyCvo6MOQtZ3fZTAYDIZy010A24BnIlARxOMTxbJshbAaopYrkfmLgmAOSrDkH5VEIpFUWjcIMFYAKmDJxjD8T67Gfc9wXbeOWu9GJSM0MIQhlohlpT3P+y+KqEOQT319/ZCmpo/3UmLFQT0GolZA6wWpTGZOT/sscvyRGzZscJVSYWVl5Ycmx4DBYDAYDAaDwWAwGAwGg8FgMBgMBoPBYDAYDAaDwWAwGAwGg8FgMBgMBoPBYDAYDAaDwWAwGAwGg8FgMBgMBoPBYDAYDAaDwWD4ZFDyVMATgYpMMlnDbNYFOVqLbJM3lijyo5A6ZIi1IflRGIaLOquQN4ixHMdJWlrb2sJwAEOpOQQASGY19RpS1mlteb7vLwag+1ddw0CmoaGhcuXKlXGGYYJKjRSR4Wj5LgGAKLUaCLXS/Egr9RGARaUo42wwGLZ8eusAqEQisTu0PhSUA0SwC4kdIKgorhtZBTBFcKEAr1PklWaR1zOZTLeFZvob13WrgXB/itoPwL6AjANRW8TrbwLwgUDmEOplJfLS4iB4C0C2fFoXTzKZHKqam51CcmMzmcWzgOa+0GkLJZa07b00cAiJ/QDsCmAciqzaCWA5wBQgC0XwGpT6Z2Vl5Rum9oLBYMinRw5AIh7fT8izCJyaV8O+1GQBzoTIPXYQPDlQDEsyOXa8hGoKoKYA8qmSD0CshsbjAH6fDoIXMABWCJK2fagQMwvJCdVOnue92xc6bUEwaduHaMpZBE8GUF2mcZogmAHgnnQQzEAfFH8yGAwDm2IcAOW68SkUXgVgn3Ip1CmEn/aCcjkaUYi5bvx0Cr8GYN8+HHcRITdrWvf257KucQDKQsx14+e2fKZ27duh+Xba9/fo2zENBsNAI9LSouvGj6TgRgj750dDEO+PYScCFb5rX0zB1RDU94MKdQLeStHfTtj2jXYQ/HKgrIQYeo7ruidR9A0Q7NgvClBq+mVcg8EwoOjWARg9evQ2Q6qqfk6RL6IMAYMDmaRtH5IhfkXBLv2tC4A4iJsCxz4voeXCdCbzWn8rZCge27bHWgp3QPTp/a2LwWAwqK6esG17l6FVVW8Q8iV8goz/2LFjt0649gNCzBQMCOOfz65QfCXh2jeh+MAwQz+SjMc/bVHegsAYf4PBMCDo1AFI2PZhFvEaIBP6WqH+xHXdnSpj1r8hOA8D1+lREFydcO1nbNse29/KGAqTdJxTRPEFgIn+1sVgMBha2cwBqHWcg0E8BWB4icYQAAP+nL/rxk+k6H8D2Lm/dYmE4DCLeN113Z36WxVD17hu/EShPAygqkRdagAD+niswWAYHLRbRnYcZ1sNeRzAsKJ7EnhCTofIW1Dqv5XNze+tA9bmJflRdXV1I7Bx46isZY2wRGo0sLMADQpygOQMb7/Mul03fgaFf0DvltU3AHhNBP+CkgWWqAVihatUM9dKZbiBTdaQMCbDGapRWsn2FLU9RPYFsT+ArXo45rYQPdNxnMN935/bC90NZSAZj+8mwj8CxebFAAA0gvgrhf+B1m83iTTGYrE1eadBYolEYoSVzY7IWtZIau0IsDMVdoXGZ0CML+FLMRgMWyD5Bk8pyiMQjCnifi3gw0rk3lQQvIjuz6zrRYsWrQSwMu/a31ofxOPxGsvCCRSeCuBoAFYRevSYpOOcLSK/7eF4GyF4guRvYlVVzxeRaOX51gcTgYogET8Yws9DcCqKXHkhYBMy07btw4MgmFPMvYbyUV9fP6R544ZHUZxzlxXIA9T4dTqT+Rdasv11JZtOp5cDWJ53bVrrg0QikZQwnEyF0yA4FAN3S8tgMPQTbT8KSce5SCB3F3Hv80J1led5b5VaKdd166D1V0hcCmBrADrtByV3CJK2fZzktjuK7ftjCm7XSt3oed6yUukzevTobYZWVV0OyFUARhd5+4ehYJ8gCJaWSp9WTB6A4knY9vdBXBv5BsFTotQ3yvH+JRKJHSQMLyNxIYAhAyCvhsFgGAAQAMaPH1/18bq1jQTsiHf9PO0F30SZs4m5rlsNrX9AhS+nvaCylH07jrOzovwTghFF3vpYrDl7+YfLlvml1Cef+vr6kU0bN95IFHf8ksBLI0aPOXL27NlNpdTHOADFUVdXNypsblqEnPNaCA3I99J+5gZ0P+PvNYlEIgkJr4PGUekgMAGJBsMnHAUA69etmxLZ+EO+m/aCr6MPUol6nrfMC4IrtHD/UvZbV1c3Son8pUjjv4aUs9N+cFo5jT8ANDY2rvJ8/0KhOhbtl3i7RYCDVq9cfnMZVTNEINvU9EVEM/4QykVpP3M9ymz8ASCdTqfSXnCeJieXeyyDwTDwaT0F8IUowoQ80zJT6VN8359Vyv7CbNMtRQZJLaalD0x5mT+WUo9CeJ73DK1wPwCRZ9Ui+Irrxo8so1qGAjDi9wmQP3he5v7yarM5pf4+GQyGwYmKx+PDADk4gqxoWldgABSn6Q1J2z4OgnOLuGV+rDn76VRqyX/LplQ3pFJL38tqORjAvIi3kMJ7q6urS3WM01AEiUQiCWK3CKJNYa6uhsFgMPQLqlKpiYh0RlleHez7u2PHjt1aiHuKuGWRUB1V7iX/QmQymSVQ1lEAPox4S31VhfWjcupk6IIw3B/R4jaeLkfApsFgMERF6ciJb9Rfy6tK+amMxb4GIBlRfG0oOM7zvEXl1Ckq6XQ6pcDTAGyMdge/4rpuXVmVMmyGRPw+kTLov08Gg2FwowBEMxIii8urSnmpq6sbBeiro8oL5UsD7Vz9Yt9/Q4ivRxSvUlr/sKwKGTZDkZG+TxQ1qL9PBoNh8KNEJNJesSIz5VamnITNzV8HODKKrEDu9bzMI+XWqSd4XnAHBP+MIivEOfF4fLty62TYhDDa90krNai/TwaDYfCjyGhpSrVIseflBwz19fVDAPlyRPFMrKLqm2VVqHeIKHUZoh3DjMWUurDcChk2ISKRvk8Mw0H7fTIYDFsGMQFXMcIRZFKcPtCnLGSb1p8CMFpmPcH/a0lZPGDxPO/NhG0/CuKMwtJyQUNDwzWlTg5k6BwKV0UJAdRq8H6fektDQ0PlmuXLJ2hyRwHqAD1UhCNIaSa5FsKVmuEHYcj3MpnMB/2tb28ZO3bs1kqpsUqp0SKyvqIiu8qytl5RROpwQyfU1NTEK5XaWSsZp8CxAgwTjUpSPgLUBogsVuQHTVrPzWQyg72AVqx+7NhqbVljmskhFVqvRFXVyt7aqhhElkfMNXcogF/0ZrD+QsAvRhR9Nx0ED5ZVmRKhyRsVJIIDgPiq5csnA3i03DoZACoslwgpfZjLz/9wufUZKNTWVrthc+wskkevWrH8MyC22pT7iCBz/8+9dwKKQkwBCcfOAHiF4OMbs9kn84qLlQXXdeuo9ae7kyGwNhUE3QZxuq67l4K+AILDBNgld1UAAjobg85uyCZs+3WI/F86k3l68/vjJ1KzYPbTrMj0vjZu8Xi8JkYeUkhOaf3m4iVLFpZwaCtp20cL5SSQR0CwvQCgbJrCtn6O2t5rCGKK2YRjvwXwOWr9UCqTeaeEOnVK0rYnSYGieqLUa57ndRkLNHbs2K0rLOtcEpMAHNTcUidGQRAqAs1NSNi2B8o/0n6my9wjyeTY8dBqkghqhHifjD3ZUkcEMQKRotwFPLK6unr4smXL1kSRHygkEokkdHhYNGn+BH2Q4bAU+L4/y3XsFwkUzuFAORHGAegjZFG0U4A8fiJQMQtoLrtK/UgiUbM/QvVtncUkElYPEh7GAZwikFMqY9Y613HuB3lTdz+cvUGJHCTEH7qTEXABgE4dANd1d6TWd0D0EQVeaQzE/iA+DWAzB4DCL4A4tZC+FVSfB9CnkxaLvATENQXERFdUlKRUeXV19fCqioorAPmyAEmAxX6MYgD2AWQfUfy269hvKPD6lO8/gXLltSFuB9Bt/BW1PgNAZ59jK+naXxfBNwGMKjCOC/BsdJF8LOE435MQYmn9UKypafmGoUPHQcJrXTf+jOdlnlSMxV6J9oqw9ZDKWNQI9AEDtZ6EaL/IS23fH1QzMgVG/OLzOPRRdcVPOhpW1O9TMrDtL5VVmX6kLh4fl3Dtp6DVqyBOQGk+f8MIuYKi5yds+/sNDQ0lrQ/SW1w3fgFFvwniiF53puU3UcSEcmavxyoSkmdHEHshnU7P7+VQynXty6oqYu8Dch2iH+HuFgJ7C+SxhGP/M5ms2b0UfZaKbaurnYRjPy+CG1DI+Bcg6cavoMgsoQ5CxYc2Dq2aAZGvDN1q66sUuFfStvdVqVQqDeD9KB2K4OqB9oYVRh8XTU4eHHSzMct6FECUvf0xruuWtJ6CoXM8z3ubwEeRhIkf2bZdX16N+hy6tn1pqPhfCD5bpjGGgLh21Ypl/xoo71/SiX+VwvtQXPnnLklnMjMECAoKCo7OHXHuG5K2vS8gEwrJkXJvb8api8fHJR37eQpuA1Ddm766YV/R6o2E43ytTP0XRW1ttZutiD0P4MDe9tXQ0FApwp1TQfBXao4U4vdpL9ifIsPXr117wohRY34ilC8qACDxWMR+h0monnJdt7a3CvYFDQ0NlQJGyosvtH5fbn1KTSqVWgEi0oyTIgX37AwlIRTgiYiyYxXxdCKRGFNWjfqI+vr6Ia7j/IG55c9u9z9LA/ewiNcT8fh+5R+raxKO8wUBb0ERlTsjkFUFtiJaqMxmN55cwnG7RUeb/S+PVQ59vKdjJBLxI0LF1wU4qKd9REZQAcgtSdu+H/24ShqPx4dJNvYsgB1K0d/KlSsbhPJ6a1tp1CZt+1CQtbCs/86ePbuJwiYFAM2h3InoeyF1EP1vx3HK/4/TSz5asWJ3RKnKRvie571Vfo1Kj2g8H0kOemKZVTG0QMEdkWWBBurw9USi5lPl1KncjBs1akTzhg3/IOSsPh66GhZn1DrO3n08LgAgmRw7AZBfobTGHwDAUH4bRU5JlNNAJSHGSIHH8vuennBI2PY50JwBINqprRIhxAUJ174Pmwrk9SkV5C83BYv2HkvrGEW1rWgLuadQbhHqX7ZuzWhAFABkMpkPBPJk1M4J2Iry94TjfG8iouUR6A8E2DOi6N/QB+VYy4FFPh9FjmC//EB+EkkFwb8BvhpVXoDtoNWrSTd+OfrpB6g3VFdXD99YVfVXED3dZtoAIAWgZxH+ghEaMi2RSJRkj7iooUPr14hY+rlYFmcy/wPweiE5AQ+3bXtsOXTIJ+k4RyIXlNktobBHy/9JxzkbxK+RC9rrCUtbtk16FsgtOC/h2tf0cOwek7Tt44S4oJR9NonMAdA26RPKX4TWZII/yeXFAUEZ0vZjE2pcDeDjyCPklk5+HNj2G7W2vU8plS8VQonmAEScRQ9E1jc3v4VozkttX/xIGHIIeTmAbBG3bCXCXyYc5yXbtks2E+gDYlWx2J+LNP4fAnILBYdWVA0ZlfaDoWk/qE37wXBasa2EameAV0Lwd0R3zGsg4Z/6ckLiuvETUYL92u4QQZRVgJhFFjwx0GtdoCMs/8srPUmhnrTt4wTyG0RdhieaAUwneFEo2M72g8q0H9R4fuCk/aAiFNRAywkA7ooUS9GmPr6btO1JxerfC5QAN5S609zRUL0mkaj5lAAbFGSD53mLIXi2ecOGMxOOc5ESPqHybvhAiOIryBG7a+KfruPcWz92rF3SV9FbNPaIIsaYHpTL/wDQciwz0lHOWIFjKYbS4XnemwB+WfydcoBFvJVw4jf3ZXBXT0na9i1FRL0vgeAraT8Yn/YzV6WC4IXGxsZV+QKpVGq953nz0r5/azoIjlSCTxN4KVLvgv182+6rgC5C+JOuVcFsED+GlhM0uDe17A6lD4BgCiA/Afh2lEFULPYQIhUAi5QTpMfkysbzpMJqFD/7d113R6H8ERFn/gL5M1XYkPaD41O+f28QBI0dArglCIKl6Uzm6bQfXAKq7UXwQwBR8iUoodzTV+XUk278TBBdBdZ/DMHDQvkSlD5AadlNg3sL5SghLif4ELpZNbP9zLXQvEQpWTliVPXvAKCiasi3AdSSuioVBNM77lvFXMd+msAxPXw9awHeQMu6OZVKre9hHyUj4dgBCi9ZbbT9YPigOwGQR8KxpwEo6LUSPC3l+1EDPttI2vahQswsJCdUOw32ktGlJJlMDpUw+wKAnq6QrSDk2rif+dVA/Hy6bvwMCqMdnSWmVa3fePb7K1eu7slYCde+FoLvRxBdB2XtlE6nUz0ZJ+k4ZwukQPAdF0DkYhD/2PwpLBTIlZ6XeRoFVi9aciQk00Hwp27lXHsqBKcXUF2rWLZ28eJlXgG5HpF042eJFDp2LKuEVsLzvMgryePHj6/6eN3aWQQaIoivEcrZnpd5Kmr/+SQSiR2gw2cAbBtB/Oa0H0QuHteRpGO/L4UmXIIzQH4VkAM6PKMp+FUWuLZQyfCxY8duXVVhfSPlBV0Wfks6zrECOQqgBcpHlsYji4JgNrD5fmN2yIaNZwD4d7eKd83WgFwnYfMC17a/0p/ndFvGjrLk/f5A/HEtCuLDKGIStfKjoSSkUqn1FdlwMoB5PexitIC3Bq49N2Hb52AA5XKwbXsshbdFkaXg9rQXnNhT4w8AaS/4ASRSJcxhovU3ejpOEVzU8QIhT2RD+VSLgSq4dZFOL/lnIeMPANT4TQR9lGStQk5CjxEpHP1P8sFijD8ArF+35vsRjX8KSh/UU+MPAOl0ej6UdSByiZwKcUlNTU3BeIfeQIWGzYw/sVqojksFweWFjD8ALF26dG13xh8AUr4/I+0HV6d9/2tpL/hBq/EHOgk4en/lytVVGzYe3bL/1kOYIHHHqhXL5yfd+Jf6I1Bw+fLlLiIFVDFddmXKjOhoe1yDuZ7DYKVx6dKgIhsehgjBXF0i2B7EbxOOPdt145/DAAgUtIibEMnBlntSQXA5SpBhMx0EPwcxtZAcIV9yXbdcZ8cBSALEKe2uAH9L+ZnTy5GWNxUEf4Og4MxehGXZBojH4zUAji44PnVRy/+5WBdGKby2UqiOTKeXRNo26Y50Op0S8syWGILuGFphWV/t7XjdIYLLO1xqUsLJnuc9U85x8+n0h+T9lStXp4PgGOa+5L2Jjt9WhPcGrj034ThfQB/OYJRS0SKCKYPeAVBkJAegUG5qQ3loXLo0qKgacjAFv+5lVztS+MeEY7+ddJyTUYajZ1FIxuO7Afh8BNHnbT9zWSnHFqhLARQqpbyVQljO44hbAWhb3SQwp2XltJigz2IIiQg5AYj9HMeJsrxdFJbFKSi8P//vYg20olwXod+sUJ9Ryq1Fz/PeJHB9QUHKeSivzWoX4yPElxf7/otlHG8zuptJhCkv+AYEZ6Knx3NaEWwPyO8Sjv1OwrZPRx/8cFHrqOVWl5VVkT5ARFZEEtQYWmZVDF3Q2Ni4IRUEXwT4ZUQK6uqWXQXyeNKxX+/jiOUcCtei0CoEsbo51GeWenvN87xlgBQMrtTCLoujlJhsVnB6b7Y3ohCSv4kgRopMKfXYBCIs/xeX+a/WcfZmlKBCyA2et+TZYvqOwsbm8MaCGTsFTm3u6GNf8DvPCx7oo7HaKLiUmA6CqRrcFcD0Eoy3M4ipCSf+ZiIeL1eaUAAAySGRBEX6PVixt4iSqAalJGlKDT0n7ft3a3BPAC/3ti8BJgoxLeHEX07a9qG9164wtm3XCzi5oKDw2iVLlhSaqfeI5lDuR4EU2AQm1tZWu+UYv904grt6cuytWHzfnwviXwX1IUpaGyCZHDsegm6rIwJYs7FZF1VHRUMuR+GJYCqrS39EDsjtnYMomP1VUwp/1nvPOlqx7/TBOJsRaS/R9/0P035wvFA+h8LLbxHgHlB8KuHY0+LxeLmOpkWc7aotoCa3RHoNQhlQxVM+qfi+PzftBwcTvBiQVYXvKAQ/I8TMhG0/tG11dVnjPCzyQhT63RC8N3L06FicoLsAABseSURBVNvLpcOSJUsyEMwoIEbJVhxeLh1yyCqxrGvKO0b+cJFWAfbKZScsDTprnYWChloeKqZMczKZHA0UPNUAgN8pZ6lj6gg5FqQEhZ0KDSH4WUtNnj6nqGAiz8s8bFVU7gziVxGCKKIwKab4v4QT/3bJTwxQR1oBEMrgPgEAQGkVpSAQKIwkZ+gTJOX798Saw10A/A6lKEtKnJmtjM11bftSlC1QsHCqXwHunj17dlk/a6IK18DQ0IVLZfcCkg+21lXvCyqqqh5GLmtit0gYK1kwIFl4+V9BFXf2XzefgsITtKUjR49+pKh+i2RxELyFwsnvdmwJgiwXWQ3cWcb+u6XoH4lFixatTHvBpVThLhA8jN6n0N0K4P+tXrH8rUQiESlxTyRERXpt1Kgq2Zj9hFY6mvOkCv94GPqWD5ct89N+cC617AFiWq87FIwgcXvCsV8r5UwQaAv+q+9WiGjOal32wlpKR1kO527l1EFDPVTO/jvS2Ni4ChKl0FRpkgK1ZHgtVJzmrcW+/0Yx/YrmCRGk/lBuJxK5oM03CwlZVpeJekrBs1GO+5WLHs8SUqml76WD4HNCtTchvT62IMAu0OGrrhsvSU5kAaLt7UeNFRjQRI536G3wmaFMpDKZd9Je8FkNHlxMHYFu2Ee09XrScU4pLBoRi4UDDgXPlmvvPx9VWfnfCLrsivIFHDd6nleKf6eiUNGCAXets+0oZ+u7JVLlP0FRs/+GhoZKEAUD64RWlEqIvYco+DmiqF3LqECfOpEd6fUyoed5b6b8zDEUHIbeBzYNpfD+hG3/OplM9ipinZHrGuhBHxlPHc0BoLAE+82GcuL7/ktp3/9MSx7z3qWoFowQyKMJ174JPS+w0oYWKRQMBhJ9coxp0aJFq1A4t8DWruuWpdQyBf9APxQQW+z7zyFXOKlbQtXrCoExQAoFFK6r2rjxj8V0umLFit1QIBiZwEee5/2nmH57CiOdAtMlP1rZioo19yLfTgnGL1VHqSB4Pu0HBwnVQQBe6FVnxPkSZp8ZO3Zsz6tsRYzuF6iyZnvqIyIlPZGI+QIM/U9LHvO9hHIUIixTdgMhuNp14lN7m5CLYMGUxqGUZPUiCgJgZSEhFYblCYpU0icGqhNCgFG2WHqVByFS5T/B1GKPP6pIabHlNZQiJiYCIiz4GQJZrtMkS8qVujkqvZ4VdMTzvJcBHJqw7eNBXAtgrx52dWBlhfWk67onFJtesoVI5/sJSfSg74GFghNlLkJgSfmVMZQSz8s8B2Af142fTuEPAezck34Inhw49kPwgzPRg4Q19fX1I5s3biiYXEsBE5OO0yMdi0UifOi1hTiAd0o9NkX1OitdTxHytxT5dvdC2N513b1ailIVP0aEYE9YxWX+AwCKNEihMwVQTDrOZqmWy4EgQsVYQVmCAIl+cyLbKLkD0Eo6CKYBmO667okUfQOAHYvuRHC4Qvhn5ArdFJVKNBaGi5pjEZI4EX1eQ7zUiNBhhB9DEelXb9PQY7TnZR4B8GjCcc4C5Dr0rK7Dqa7j/Nbz/QhlXduTzX5cF23BUG7p83Xx7ilL7ouQLPvZ/67wPO/dhOO82kkRmXYorc9AD1aPXNfdCqJPLiD2v3R6yT+L7TtaPRI5SoCjiu27jJQlg6oA/fYZaqXcOcXF87wnbD/YLXfmufisewIenbDtopMkNC5dmkGEIzMQ1LuuO6gT5BASKdo7ls32tCiNYWAQpn3/97RiO5H4FoA1xXZAyFk9mV1JMwdlIamo8TFFIp7nFV46LiNE4TPskksKVHQQpEJ4EoBut1+LzfyXd2PZ9tPLhpTnpFik7Ycy0ydFRWYBzSnfvyerpUEg96LY/R3iB8l4vGAAUgcEwKIIcpalda8jZvuZwvoTqz9ctszvA10MZSaVSq1PecFPhaqh5ShuUQjkZtd1i1uRI0cXO86AgCzHj/fHKEFxo95QuWHDIyh80qkuUfzvJgQstPy/Aaqih1H6Mvg+R0RZToqR7D4VcR/Qp1XFMpnMEs/P/P/27jxKrqrOA/j396q7k5BOIJjueksldKDJAA2ICmhAJIIcFkEckcXxREVxnaOODs44LkfHQXEcFT3jYUYRhNFxBHFw2BdlCTjIEc54kChLiJ10vaXSTRZ7SdKp937zRzUxge5693UtXZ3+fs6Bw+n+vXdvNfWq7nv33t/vA6I4FwYLePbSpjm5BllHswKjeToVSZ8HalETmd9MFgH+odF9oeYKgmCgshVX/wpAloxpCwXJ1ZkaE5mdT8k0bcZ5GiQlh3wTbNi6dbtC/zs1MONuANu2u5Ba+U9vLhaLZvVHXm7W77qqFxVtaP0IEzNSVrQYRXdZcXICNH0P5h6KY1w3nykvsyZmJVhVtcEpQxsnbm9fZRSokpo4hWanICj9l+SSkyB43vggxWlePv+6DM3wg/tFSabBVuMIrjeIuhAZPuct4CJo9d0imTP/7YvvownSAu+jGasrPrB58/M7xsdPEeAJ02NEJdNaAMu0BnslMcWM11ifDhU1y1Wtmpo6lWavYnHzk+VYTwJgXjZVpPpKcpqcSEuscwyC0v1IneYUr2Dbp5ieU6zUMs/PDIThw6bno9Y2o196W7Zs+VNud/k8mBcYOtF13SNMz78rjh+HWenVV7hud5a7odah6Vm1AAC5XOYVuzS7lEqlzZKLz4Pp4kDBuZ7nmSbKmfVVM/dDCaCpOQHUcBpgWXf3YamV/yqZ/2oZADEdeQtp2DZAUxuHhkLXzb9fVG41ibcQnwHAaDX74ODgiOvYDwhwVlqsqLUGQNNTe9bC87zjkMRpuboBxZO+76dmD6PZr1gcfK7g5j+pKiaPaS3E8ekAbkqNVN1psgKnnGhnIyu40b4kl1yvce4zqLY+SnEBgI8hJf9DYllplf/G40rhqhrozvSlXPIVPww/W1s7ZKIlHnsHQek2CB4wiVVIygKVfYnCaGAB4OKenp7ZVRcgidcYxVn4nwb3hFpIMShdBzFLfiNidj2ppUaLduelZY+juioWB9cDqZURu123+42pJ0ur/Ke4pfbCNelb30TVrq0NMtUSAwAAQGJYElFxVKbz5nK3wWzb4ZLdu3a9J9O5Z9BErYS0+ToAgMK6pcHdodaSKPA9k0BVNbqecokYJZEq5/jh3Wwqen1ajKW5qtMAyxzneKQka1NLv5+tZy8nSE9GpgK+h5qkZQYA7fPn3wezL+pMaRknHn3fbRIr0L+rNV96syTl8nth8rdQPBkEQW1FZWjWsaz4HrNAs+tJ29qMBgCW5vjh3WTj4/FNSNkGqtC39fX1TVk2PEFS/e5f8HwQlGouXKNiNJDke6hJWmYA0N/fvw1miXs6s2buU9F/N4oDVkS2fVmWc8+E3t7eeSL4lEmsWtnKddL+YeLRcPrCPcM858ViMQQwkn666dUqoOkbGhoaBpCWE2DJtqGhqaZ7cgqpXvlP9VrUo/qh6nMGUSsBGORxp1q1zABgglFyiY6OjilHspMJgtKdADYaBQu+nM/nG1L8oV52jI5+CoBJSs2Rjo75zamrTa1GATW5nkyvpQSCp1KjRGfnbprZLkmfBpgqKZDruqdLtbtuwe72cvKDafdtb4lR7pfOQqF7tmdnnRVabQBgVP63v78/9U7kJWKBfMUwdkm7ZX0r4/mbZll392GAGuVDEMXVE09WaC4SMbmezK8l1fTMmorVvb29DcmdTlPzS6UHAfRXixHIWybWDu37c63++F9Vb+8fHKxLKXHN5YyysyZl68x6tEfVtdQAoOoo9M+GMY1ypsUwvA7AsyaxCn1Hs8pRZtHb2zsvyVk/hlk2rdEy8PVG94laU6FQWADFgamBap6SWwUPGoR1jo0NZ9qpQ3WRiFTfoqfAYsTx2Xv/bGI6tWrlP8tsS6mRIAgGTDJWioW31atNmlrLDAB6urpsBRYbhJrMIU2mDMXnTYMV+u1pFCBqqB1jI98EcKJZtF5V+5Ydmq1Ux9PzQwBQwXrTcyaJ/BIGC3UF0nKD57nAivUGpMzTq+hLpgHitwBYVOWQjcUoMltQakpxn0HM6wqF7mPr2i69TMsMAHa3tb3VJE4h0y5p60fRTwV6r2H4fLXkjuW23RJzUZ7jfBaKjxiGb1TJXdnQDlFL09gyup4EalwkqjKglF+nN45zPK/7labnpfrYVCptALC2apDi7L2naARS9U5bFdcha/XWFKK4zSROy1bmMvCUjVVw7S/atp1tb31DJEZ72i3goRoa0URy7xcYV/N6RQzcO9ODAM/JfwbQK0zjVfTjQRCMNbJPNDnPtb/uOM5M1zxvE8E7TAJVMl9PJpngLMTWNzCNWvRUI00tELRo1+jo6on/boPqGVViY8nlrqtLv/ZSjKJ7FUhfUyC4yHXdk+vdPv2ZpQmOyAke82z7w5ihJwKebb8bEJP/0VpW4zv4SQVBsAmQy40PELixhV+5bt4s534d9fb2zivY9rWAfNn4IMUPgqDEzH8zRXG8BX2i4ObT0qo2jOvan0RKUpcJu3bu3G2UgfNFufb2mwCkDy4Fp7uVz5SmqrbXfS4Yj+ObkbKwU1XPBQDHcVYBctCUgYK7GpRCvGwJUmsYABDR5Lquri6jxeF1JLMlH0ytXvzC74TgatexH3Mcx7hyVD0st+0+CL5hGP5QFEX9tbZZDMNrILjB+ADFgaJyl+faX2rWG6OQzx+zY3TkYRW8N8NhT5dVP9qwTpGpV6jKf3qOfb/ruq9uZsOe171KFF80Clb8fMuWLZlq22/atGkroN81iRXBVQXbXp3l/LUoOM47t20Z+tdmtdeKBgcHRyC4uVqMCs4FgJxo1ZsahTYsh4jkyt+CWWGglR253I/RpLwAhyxd6riOfWep0NXTjPZm2j53/AIcb0HXFhx7bcG2z3np7+vN87pXxYK1AMwqkqlhumAD7R3zPwTBYxkOaYPi85FjP1aw7VPr1Y+XKhQKB7uOc6Xm5AkAJ2Q4dGusuICFWFrKatHkCc+x75z4ImzoE4GC45yFxLoPhjXXBdO7nqy2+Osw+/DuUMFtXj5/2nTaMeU4ziEFJ3+LQn8ElfSdD/s5SVKnAXoKhYIHlSrrNNSfyJ/SEAMDQwEEZtMLgvM8x/5Jg5/uWAXHeX+5ve13JsXj9heTfsErcIoK7vAcu99z8v+UpQSvie7u7rzn2lcjsdYCONjkGAUe96Pop/XqQ39//04rV34bUvbOTuJVKnjQdey7Xbf7DNRpkLSsu/sw13Gu1LjcL9BPQzM9adhlQd4aRdHv69EXqruzVfCA5zjPeI7z2Xw+v6KeJ3ddd7nn2P+h0DsALDQ87K5iFE1rPc3AwFCQYVqqEzm527Xty1HnGwrXdZe6jnOlBf29QowWPc4FxShaC2BD1aA4PkZVq61t+gGmsd06C4X1BQBDhuFv37blhUcqeVDqq2Db57iO/ZhCvwfTm9H9RFo54GWAfE40+Zxn2+shehsS3B+LPJZ1i5nrugdYqmcDuECh50HNkv5MKEuiH0U9UlHuZWBgKLBt+425yv7mTAu3BDgTap3pOfZGUdyYWMkvgLZfmS6+6+3tnTc2NnaCaHwKRM5PFK+V6b28XSp68UAQVV/92wyafMtzbbNa9HUiVtsnisWi38w2p08PB3BFmyVXuI69DorbLZEHrfb2xyqP1s0dumTJgeMLOt6sKhdAk3MAZKlkOapifSJT11/ioIMP/trWLS9cIkD6AllFuwj+xXPsd6gknw6Czb9ADdey53nHQeMPQJM1MEweNseoKm4QwT9OFZConiiCQ6f6daxybYP6tkcQBEOebf9thunYE5Kc9TvPyX8TVttVvu+/MN22u7q6Oue1W5eoyocVePVcXa0qnm3/BDJ5isgUGwA8LYoNsNSHWlsAjKlqmwILLQudAJZCtVdh9QF6KKY9j6Of8cNSw7a15fP5FW2WPAhgeU0nEuyG4o9QPAOBr4rtIjIsoh1IMD8ROVigLoBDJ/6p9ZHWCCx9q+/XXqSjmoJtr1bDcs3NlkCOCsPQeCtbo3mO/SCArFNECsh6qD4NkQ0qGlgq2yDJSAKZB2ChBSxU1TxEDp+oiNmDad5Rq+j7gqBU8+ru5bbdFwt+jexfwk8B8hMVuTMIgt8h5U6zUCgcjDg+EapvVMF5qFZvQHGjH0XV89pXa8tx3qnQlPTZ8pwfhkZ5FmaKbds9uUrCnaneI0MAlk72CwXuCcKoaY/BPSf/Q0CMdoHtZQzAzwTy80RkbRAEaU8ScoV8/ii1rJOgeg4EbwIwZU0ZycUri8XB6eacQcGxNyhQ/Umf4mI/im6abhv1kPYEoJpDARyqAqDyr8pPpTLRqXvG93v9bhoEcm0xjL5aQz9TlUqlPy5btnRVUm67BcaJdiZReWy/EoKVACBS+aEqJv4udX2AsUHFenvgs9LffkAAPRyCwwGFKKBQQGXPogHdE1ZzU1cGQVSXrV2bomidZ9uXQnAjsg1Gjgb0ClG9wnPsMSjWA9gI0e0AxiDSUXlCqA6AHo3LXqXr9ej13BBFUb/n2g9CMdX6i0m//AHAQv0y/5mQXPsHNC4fBSDLgtkDAKxR6BpRhefYmxToF0FJVbcJoFBZDAuLVNEjwAoFDqiMtRv0QmahWgYADVf58g8/iDo/+p/MwMBQ0NPTc+ruXTu/B2BNo9urieLW9vnz3808/5SFQr4ahGFdk6v4UXRzwc1/UFW+i+k9kTgAgmMBHLvnk3mfmweatgQ3QKYcAEyllA/DWxux928qxWJxh23bZ+Us/BKKY6Z5muUCLK98v0+8bybuPfkumlrLZALcR+VR+uXFMLwMQNysZvv7+3f6YfQuKN4Dw8qEzaRAJKLv9KPofH75UwY7VPDeIAz/oREnLwal70PxPgDjjTg/TU9Z9Weo1E4xporrnwB2N6hLU4qiaLAc65sy7syiGlliGa/CbBL9rcJ6rR9FprkB6s6Pohvay3EfUH0/bRONiOJr83fuOqIYlH48052hqlrqehLgYVi544Igqk851yn4UXQ9rGQ1FEEj20nxSAx8aQbbbymlUmlUFFl2TqnVFn+/YR1KUSqVNi84oPNUQeMXIFYxCsgni8XB6rso9hNWMYg+KpA1Cqyb4b5shOJSPywdHwQzP6/dPzgY+WF0IRJdpcDdM9SNEqBfVrFWFKPo7zds3bp9hvpBhvwwugSKj5hUPGuwp6G4sBhGp/q+b1QFs1a+v/nR9vnz+yYSBdU1f3xVivUCWeOH0Ru4FXZfscj1xsGCB4rFQePiUI2wfv36XcUwvAyKc5F9i3YtygK5VsU60g/Dq9DEJ88zyQKgxTD8URBGRyeQN4jiOwA2Nan9BIpfQnGhHUaH+1F0PVrsD++XSr8OwuhsUbxWFNdlqCMwXcMAfqai59thtMwPS58zWOFKraPsR9G/+UG0UsU6U6HXGOU9r1PbUNwGxbl+GPX5UXQzmrB+Zm/9/f3b/LD0IVi510BwExo3EFAIHlDRS/woOrIYhj9Ck1/rbBCG4SMTiyxTNTLzX1Z+FN2hYvUJ9G8ADDSwqc2q+OdyoiuLYXhZEASNbKvlTLk+wnGcI3OSnKyQ10NxLCpbb7LsNZ6cIoDgUYHcMx7Ht27evLlU8zmbqFAoLEiS3eeLytkAVqPWrYN/tgmJXnrQ0qWPrFu3rqXmUpfbdl9s4Qsz3Y/JzJI8AFYhn+9LRE6ByMkiegwUf4Hat4ECwCaB/EqBuySXu6NYLLbU2hXbtnvaLL1EVS4CcBxqW5O1FcCjqrgTlnVrIz6sXdd9vSD5WLUYVQmDMPx4vdtuFM9x1kD0vGoxolKev3DhpevXr9/VrH6Z6uvr69i6degsqHWxiL4ZilqyPSYQrFOVB8RKbvX90kNoQMKjgmt/R4HuqkGSXOX7mx+td9tZZLkYc4VC14okaT9aND5SgRUCWQLFEhEcpMCSibiyAMMKDEMRKTBoiT4PWM/EwB/CMNzYiBcyU/L5/Io2kdeIhcMS1cMAWS7AEkDmAboIlQRDhvkP5Eq/zqu0qWW1ua7bK0lyNIAjReQQhS6B4CAolgB7PuTGBRhVwXZViQQYVNXnYCXP5nLJukpWvtlh+fLlS+Lx8ZMg8ipRXaEWVohisUIWA1q5RgSjAEaRYFCAQRV9HirPqmU9FQTBM+Bd/lyXKxS6+zTOrQJ0pUJXCMSDYAH0xSyYEgv0Tyr4k6hECg0BeVZUnx4bH/+/rPUv9mfcIdFgnuOsAfQGGP+t5fN+GBqX/iUiIpqOplRYmsuGR0aeXLxo4Tggpxsectqizs6x4ZGR/21ox4iIaE7jAKAJhkdGH1m8qHMxgFUm8SI4Y1Fn54LhkZFfNLhrREQ0R3EA0CTDIyP3LV7ceQgqC6FSieD1ixd35oeHR+4C5z2JiKjOOABoopXDI3cOL+o8QYBew0NOOHDRwld2zF9w59jYWEvtDCAiotmNiwCbLJ/PL2yzcA8gJ5seI8Dv1cr9ZbMSuhAR0f6vNWsB7MdKpdLoeDk5S4CHTY9R4ChJ4t94jvMhcNBGRER1wC+TGdLV1dXZ0Za7Hdlrxz9kQS4fCMPHG9EvIiKaGzgAmEGV6QC5HZWMgpkocI8k+p0FixbdlzF7l3iedzinE4iI5jYOAGaY67oHSJLcCoFpnoB9CbYDuFeAJ0Tlt0gSP87ltre1tY1YO3bM293RsRhx7Kmlh1pqrQL0NAWG/DA6sb6vhIiIZhMOAFpAX19fx7YtL1wD4F1NavI3HAAQEc1tXATYAtatWzfuh9G7JypfNa+MKhERzVkcALSQYlj6NhQXA9gx030hIqL9GwcALcaPopstyBsAeW6m+0JERPsvDgBa0EAYPj5eLr8agqvBKQEiImoADgBa1ODg4IgfRH+dQE6E4HawHgAREdURBwAtLgzDJ/wgOs9K9FgAPwTXBxARUR1wADBLDJRKT/lh9K5yol1QXATFjQA2Zz6RIFTF/fXvIRERzSbMAzDLFQoFT8vl4wAcAdGDVOVAC1ioFnZBZZuIbofKVqgWY5F1YRhunOk+ExERERERERERERERERERERERERERERERERERERERERERERERERERERERERERERERERERERERERERERERERERERERERERERERERERERERERERERERERERERERERERERERERERERERERERERERERERERERERERERERERERERERERERERERERERERERERERERERERERERERERERERERERERERERERERERERERERERERERERERERERERERHtn/4fuDOZNXVuSWYAAAAASUVORK5CYII=;" parent="1" vertex="1">
          <mxGeometry x="-56" y="10" width="100" height="100" as="geometry" />
        </mxCell>
      </root>
    </mxGraphModel>
  </diagram>
</mxfile>
